/* XPM */
static char *result[] = {
/* columns rows colors chars-per-pixel */
"50 50 256 2 ",
"   c #626060",
".  c #444242",
"X  c gray29",
"o  c #5C5A5A",
"O  c #4C4C4C",
"+  c #4C4A4A",
"@  c #444444",
"#  c #605E5E",
"$  c #4A4848",
"%  c #5A5858",
"&  c #484848",
"*  c #444442",
"=  c #5E5C5C",
"-  c gray26",
";  c #545252",
":  c #4E4E4E",
">  c #585656",
",  c #626262",
"<  c #464444",
"1  c #565654",
"2  c #484646",
"3  c #666464",
"4  c #464646",
"5  c #4C4C4A",
"6  c #424040",
"7  c #464644",
"8  c #525050",
"9  c #4A4A48",
"0  c gray32",
"q  c #686466",
"w  c #565454",
"e  c #525250",
"r  c #565656",
"t  c #4E4C4C",
"y  c #5C5C5A",
"u  c #817E7E",
"i  c gray33",
"p  c #646262",
"a  c #505050",
"s  c #504E4E",
"d  c #606060",
"f  c #585856",
"g  c #484846",
"h  c #50504E",
"j  c #3D3C3D",
"k  c #424240",
"l  c #666264",
"z  c #010201",
"x  c #1B2113",
"c  c #858383",
"v  c #4E4E4C",
"b  c #40403E",
"n  c #3B3A39",
"m  c #5A5A58",
"M  c #6B7E43",
"N  c #5E5E5D",
"B  c #464442",
"V  c #687A42",
"C  c #708646",
"Z  c #A9C173",
"A  c #161A0F",
"S  c #AAC474",
"D  c #403E3D",
"F  c #A5BD70",
"G  c #585858",
"H  c #576636",
"J  c #545352",
"K  c #040503",
"L  c #6D8245",
"P  c #080A06",
"I  c #3E3E3C",
"U  c #98B068",
"Y  c #A7C172",
"T  c #849A55",
"R  c #748849",
"E  c #202615",
"W  c #64763F",
"Q  c #12160C",
"!  c #4B592F",
"~  c #5B6B38",
"^  c #888787",
"/  c #636161",
"(  c #343333",
")  c #2A331B",
"_  c #373637",
"`  c #171A12",
"'  c #14180C",
"]  c #819553",
"[  c #3C3C3B",
"{  c #ACC676",
"}  c #A3BC6E",
"|  c #40403F",
" . c #30381E",
".. c #231D0E",
"X. c #4E5D33",
"o. c #5A5959",
"O. c #181819",
"+. c #0A0B08",
"@. c #1B1B1B",
"#. c #AFC978",
"$. c #414042",
"%. c #3E3E3E",
"&. c #1E2214",
"*. c #676666",
"=. c #5E6F3B",
"-. c #0C1109",
";. c #A1BA6D",
":. c #262820",
">. c #404C27",
",. c #4F6033",
"<. c #353F24",
"1. c #72582A",
"2. c #889F58",
"3. c #4A5631",
"4. c #7C9152",
"5. c #9DB56A",
"6. c #2E371F",
"7. c #252917",
"8. c #282E18",
"9. c #B08D47",
"0. c #677940",
"q. c #778B52",
"w. c #625E5F",
"e. c #1F2415",
"r. c #4C4A4C",
"t. c #2C331F",
"y. c #B8D37D",
"u. c #745B2D",
"i. c #39383A",
"p. c #282212",
"a. c #758C4C",
"s. c #605C5E",
"d. c #21231D",
"f. c #8EA260",
"g. c #565856",
"h. c #16180E",
"j. c #708346",
"k. c #C7A057",
"l. c #1C180C",
"z. c #4A484A",
"x. c #687C42",
"c. c #29301C",
"v. c #323A22",
"b. c #81817E",
"n. c #545250",
"m. c #1A1D11",
"M. c #1A1E10",
"N. c #424D2C",
"B. c #10120A",
"V. c #B3CD7A",
"C. c #94AB64",
"Z. c #71582A",
"A. c #B1CA79",
"S. c #484644",
"D. c #5D5C5B",
"F. c #BCD882",
"G. c #86985A",
"H. c #C9A257",
"J. c #46522E",
"K. c #96763D",
"L. c #61733F",
"P. c #536134",
"I. c #3B4425",
"U. c #6D6B6B",
"Y. c #151416",
"T. c #809255",
"R. c #6A6668",
"E. c #A0B96D",
"W. c #484648",
"Q. c #90A75F",
"!. c #60605E",
"~. c #728748",
"^. c #899D5D",
"/. c #B29049",
"(. c #242C16",
"). c #64743E",
"_. c #384224",
"`. c #767575",
"'. c #444E2E",
"]. c #10120D",
"[. c #323232",
"{. c #B5CF7C",
"}. c #1E1F1A",
"|. c #444244",
" X c #798E4D",
".X c #D2AB5F",
"XX c #C19C53",
"oX c #8EA55F",
"OX c #535051",
"+X c #646463",
"@X c #373634",
"#X c #839659",
"$X c #4A4E2D",
"%X c #70824D",
"&X c #222818",
"*X c #555555",
"=X c #BA9550",
"-X c #070807",
";X c #758750",
":X c #2F2F2F",
">X c #A58445",
",X c #9CB269",
"<X c #282D1F",
"1X c #8E6F39",
"2X c #93A964",
"3X c #7B7A79",
"4X c #464446",
"5X c #8BA15E",
"6X c #6A7A4A",
"7X c #737171",
"8X c #43371F",
"9X c #4A4846",
"0X c #B6924D",
"qX c #27261A",
"wX c #72854E",
"eX c #5E5A5A",
"rX c #A9C372",
"tX c #7A8F50",
"yX c #CDA75C",
"uX c #AD8944",
"iX c #464648",
"pX c #3E3E40",
"aX c #444446",
"sX c #404242",
"dX c #605C5C",
"fX c #838181",
"gX c #1E1A14",
"hX c #9F7C3C",
"jX c #384222",
"kX c #AB8B4A",
"lX c #241E12",
"zX c #34321C",
"xX c #2E2410",
"cX c #816632",
"vX c #B5CF7A",
"bX c #95AD66",
"nX c #645630",
"mX c #AB8540",
"MX c #5C6C42",
"NX c #1E1E1E",
"BX c #323C20",
"VX c #323A20",
"CX c gray18",
"ZX c #384026",
"AX c #5A5856",
"SX c #3C462A",
"DX c #504428",
"FX c #937236",
"GX c #4A4C4A",
"HX c #6C5228",
"JX c #526436",
"KX c #546434",
"LX c #3E3A24",
"PX c #B59350",
"IX c #DDB564",
"UX c #E9BD68",
/* pixels */
"/ /   / / / /     /     / / / / / / / /       p 3 q 3 q q 3 3 q 3 3 3 q q 3 3 q q 3 3 3 3 3 3 3 p `.",
"/   /           w.D.# w.                  w.D./ 3 3 3 3 3 l p w.l l l   p 3 3 p   3 l 3 q q 3 R.s.7X",
"    /     / / p = $ > p / / / / / / / / p # + > R.q q q q R.s.+ # R.l t J q q J t p 3   N N N s.< *.",
"/ / /   w.G > > w 5 0 > > > > > > > > > > r O ; o.o.o.o.% % w t r o.G w dXl l = % l 3 o i w w 1 g 7X",
"        # O 4 6 2 + X X X X X X X $ $ $ X X + $ & & & $ 6 [ 2 + 2 | * w.R.n.n.q q 3 q D.1 > 1 f n.3X",
"        w.: $ < $ + O O O O O O + + + + + + + X X & 2 & . D 4 2 4 k @ D.l w w +Xp p l f h e e J t `.",
"> AXw.  > 6 $ + + + O + + O O + + & * $ + $ | * X . D I - - - - - - 6 t f # w.; t = w.h g 9 $ 9 [ 3 ",
"w >   / w D & r.X + O + O O + + r.g . $ + $ D . X @ I I 6 - . . . - 6 + > # w.8 + N   8 $ 9 9 + n +X",
"w.  D.o.# t $ 7 $ + + + + + + & 4 X X + X + X X 7 6 - - - - . . . - 6 w w.> f # # o > h $ $ < & < U.",
"    > J # s 2 k $ + + + + + + 7 k X r.+ + X + X k %.- - - - - - - - 6 >   J J w.  > 8 s 9 $ 6 4 g U.",
"/ / !.  D.7 & $ $ $ $ $ $ $ $ $ $ & 2 $ $ $ $ $ & . . . . . . . . . - s % % % w J % o.s < g g 9 | R.",
"/ / / +Xe n 4 $ $ $ $ $ $ $ $ $ $ @ b 4 $ $ $ & W.@ * * * * * * * * . * + 0 J 7 6 a i J $ ; % > | R.",
", , / , D.< & $ $ $ $ $ $ $ $ $ $ & 4 & $ X $ & 2 @ * * * * * * < * . 5 0 J J a : J J D.D.N w./ w 3X",
", / d d N + & & 2 $ & $ 2 & & $ & & $ $ $ 9 $ & 2 @ * < < < < < < < . s i J e 0 i J 0 o w.N N N o.u ",
"/ / / : + X $ . n 7 $ 2 [ 6 $ $ %.I & $ $ 9 $ & 2 @ * < @ @ @ @ @ < * : J 0 . 2 J J $ S.o w.% 2 s fX",
"/ / / r J X $ 7 | 2 $ & 6 < $ $ - k $ $ $ $ $ & 2 @ * B * B B B B B * : i 0 9 O i i t s = # D.8 J b.",
"w.w o.+X# . D & X 2 6 4 X & b 6 $ $ < - & & & & 2 @ * * * * * * B * * v 0 0 J i 9XS.0 N o OXD.  o u ",
"d *Xo., # . D & z.2 6 4 $ & b 6 & & @ - 2 & & 2 7 @ * @ 4 7 * * * @ @ O a s a J $ S.J N o e D.  o.u ",
"/   / o > X $ 7 | 2 $ & . 4 $ $ - 6 2 & 4 . 2 4 7 6 * @ i.n * 4 7 k j X a s X : J J t v = # = 1 w u ",
"/ / / 1 J X X . [ 4 z.& 6 < $ $ %.j & $ < 6 4 X @ :X( @Xx d.( _ %.* [ + 8 a g + J *X+ 2 D.w.o 8 J b.",
"d o N / # & - @ * < @ < @ @ < < * @ * - < 7 * [ ( &Xx ZXZ G.e.E <Xi._ 6 X X O : O + : J D.f = # o.u ",
"# OX> , # @ [ - . . . . . . . - * * | D k . i.z t.Z Z ,XT A.F A.q.K -XO.- 4 GX5 < |.5 0 r s m   o.u ",
"/ N # # o $ - - . @ @ @ @ @ @ - 6 . k j [.gX].c.bXy.F T F ;.4.2XZ 2X5.;Xd.2 7 X X + X O o o N D.> u ",
"/ / / w e X @ - . @ . @ @ . @ < [ _ @X].DXXXFX1.J.Y Z ;.] 2.Z Q.oXF.F.{.6X+.NXg 5 v * D o.  o h J b.",
", /   = o.X . . @ . @ . . 4 6 i.( ` LXPXk.UXk.uXu.gX3.} U V.Y oXS ,XF q.ZXN.Y.v 5 O $ 9 D.# N % > u ",
", / d , # X @ @ @ @ @ @ 6 i.:Xh.t.;.G.qXnX.X=XXX9.1X1.m.SX,XE.#.q.&.&. .a.! O.h 5 5 5 0 = # =   o.u ",
"/ , / / # $ . - . . - - @X` 3.#.Z E.2.S ;Xh.zXK.kX/.>XK.cXl.$X6X .j.R L V >.O.: 5 | k 8 N J $ = o u ",
"/ , / / # v 4 < 4 4 9 ( t.S S {.Z ] #.} j. Xf.+.xX9.H.k./.hX1.6.j.tXy.#XP K @.: 5 @ 7 8 N f a N o u ",
"/ / , d 8 i % r g k 5 +.t.{ S V.V.E.4.2.Y 5.T U T.xXgX8Xk.k.u.c.~ E c.J.F L.Y.B 7 v O 2 v # w.w.o.u ",
"/ / , d h J % r g . |.A KXx 3.#.Z S Y #.;.] S y.#.MXz z 8XIX>Xz '.,X2XU F.wXY.B < O O 2 v N #   o u ",
"/ , / / /   G 1 1 m iXA W x.X.e.x SXE.Y V.Z Z T.x I.R ,.lX.XK.E T.F { #X&.Q @.: 5 O O 8 = # #   o u ",
"/ , /   , / G 1 r m X K c.M V W V H x '.Y f.&Xv.V V L ,.p.yX1Xc.H e.&.6.j.>.O.: 5 O O 8 D.# #   o u ",
"/ / / / o.o G 1 e J aXM.H Q  .V W W L P.h.8.x.M a.%X' -.lXkXu.K BXM M M M >.O.: 5 5 5 8 D.# N w.o.u ",
"/ / , d 5 s m g.X g @ m.L ~.X.P -XE ~.j.M V T ^.-X) R P.p.0X1.(.R j.2.#XP K @.a O : : J N       o fX",
"/ , / / D.N 1 J i *X9 z _.;.U f.bX4.&.'.F ^.&X<.L.W ~.JXp.=XHX) ~ M.E <.=.jXNXa : X O *X# # D./ D.c ",
"/ , / d , / 9 7 1 y %.' ,.E N.] T Z U wX&Xv.=.=.T q.Q -.lX0X1.K VX=.~ J.M.<X4 : : | k i !.w $ N = c ",
"/ , / / / / J s 1 m @ h.W V ! ' h.v.j.4.U f.j.H ' _.~.X.lX9.Z.x 0.~ ` :.$.@ : : : & X 1 # = > / D.c ",
", / / , , d o.r 1 m X K ) M V W x.KXQ  . XW A ) V 4.C.,...mX1.P ` m.$.4 h v $ O : a t a N /   eXo.c ",
", / / , /   G 1 r m 4 A ! Q  .M W V R ,.B.8.L tXE.%Xm.-...Z.+.NXW.@ v 9 5 5 I - : a < | D./ o.9X8 c ",
", / , / / d f 1 1 m 9 z E C ! P K v.;.j.0.R {.5X-.t.j.H K @.j I : : 7 I g O 7 9 : : X 5 N   # > > c ",
"/ , / / / f t 1 g.e | - I E Q +.KX,.7.N.F 5X6.<.~ N.x :.%.sX9 g 5 5 + @ [ < v : & 4 : 1 #     p eXc ",
", / / / , o 8 1 r i 9 r *XW.CXK A 8.H 3.7.6.H 3.M.:.j pXh v O O O O O 5 - g O : X 9 : i N     / D.c ",
", / / 8 0 , G 1 r r g.1 1 m 1 t j +.` (.H ! &.:.4X4Xh h O O O O O O O 5 O O 6 7 : : : i N   / p D.c ",
", / / a 8 / G r f f r f f r r o.i t i.+.x d.@ X 1 h 5 O O O O O O O O O O O 6 < a a : w #   / p D.c ",
"/ / / / / d f 1 r 1 1 1 1 r 1 *X0 i J t z.r.i i 8 8 e e e e e e e e e 0 e 0 OX*Xa s 1 N       / D.^ ",
"/ / / , /   = D.D.D.D.D.D.D.D.D.o.o.o.o D.o o.o.o.o.o.o.o.o.o.o.o.o.o.o.o.o.o N n.8 D.d   w.  p o ^ ",
"      o.o.                      # # # # # # # # # # # # # # # # # # # # # # > o   w.# o w.  # % > ^ ",
"/     t t /                   w.# # # # # # # # # # # # # # # # # # # # # N 2 s / / > 8 N / o $ 8 ^ ",
"/     = D.    / / / / / / /   d # # w.w.w.w.w.w.w.w.w.w.w.w.w.w.w.w.# w.# # % =     # = w.  w.D.% ^ ",
"/     / /     /           /   d # # # # # # # # # # # # # # # # # # # w.# # w.        /       +XD.^ "
};
