/* XPM */
static char *result[] = {
/* columns rows colors chars-per-pixel */
"50 50 256 2 ",
"   c #626060",
".  c gray29",
"X  c #5C5A5A",
"o  c #5E5C5C",
"O  c #5A5858",
"+  c #4C4A4A",
"@  c #545252",
"#  c #605E5E",
"$  c #4A4848",
"%  c #4C4C4C",
"&  c #484848",
"*  c #444242",
"=  c #585656",
"-  c #626262",
";  c #565654",
":  c #4C4C4A",
">  c #4E4E4E",
",  c gray32",
"<  c gray26",
"1  c #525250",
"2  c #565656",
"3  c #666464",
"4  c #484646",
"5  c gray33",
"6  c #444442",
"7  c #464646",
"8  c #4A4A48",
"9  c #525050",
"0  c #4E4E4C",
"q  c #424040",
"w  c #464444",
"e  c #565454",
"r  c #686466",
"t  c #464644",
"y  c #585856",
"u  c #444444",
"i  c #4E4C4C",
"p  c #817E7E",
"a  c #646262",
"s  c #606060",
"d  c #504E4E",
"f  c #3E3D3C",
"g  c #40403E",
"h  c #5C5C5A",
"j  c #484846",
"k  c #858383",
"l  c #666264",
"z  c #585858",
"x  c #50504E",
"c  c #424240",
"v  c #505050",
"b  c #4C5B30",
"n  c #3B3A39",
"m  c #383738",
"M  c #2F371F",
"N  c #29301A",
"B  c #5A5958",
"V  c #353E22",
"C  c #C0DC84",
"Z  c #47542C",
"A  c #545452",
"S  c #45512C",
"D  c #615F5E",
"F  c #080A05",
"G  c #90A561",
"H  c #5F5D5E",
"J  c #839951",
"K  c #5D5B5B",
"L  c #030502",
"P  c #AEC876",
"I  c #323A21",
"U  c #414D2A",
"Y  c #3F3D3C",
"T  c #131313",
"R  c #888787",
"E  c #29292B",
"W  c #5F5E5C",
"Q  c #14180E",
"!  c #6A6768",
"~  c #404C28",
"^  c #536334",
"/  c #697C42",
"(  c gray11",
")  c #2E3421",
"_  c #89A059",
"`  c #3C3C3B",
"'  c #4B5833",
"]  c #63753E",
"[  c #ABC572",
"{  c #495531",
"}  c #191E10",
"|  c #252C18",
" . c #7D944F",
".. c #181818",
"X. c #B7D27D",
"o. c #627144",
"O. c #83985A",
"+. c #566337",
"@. c #3B4625",
"#. c #4F5F31",
"$. c #231D10",
"%. c #8DA45C",
"&. c #394424",
"*. c #0F120A",
"=. c #5D713C",
"-. c #403E3E",
";. c #000001",
":. c #94AB62",
">. c #92A862",
",. c #99B066",
"<. c #B3904A",
"1. c #353436",
"2. c #3E3D3E",
"3. c #D1A95B",
"4. c #202615",
"5. c #44502F",
"6. c #545150",
"7. c #1D2212",
"8. c #819556",
"9. c #333235",
"0. c #718649",
"q. c #687848",
"w. c #4A4846",
"e. c #2E381B",
"r. c #8BA15E",
"t. c #A8C271",
"y. c #A2BC6D",
"u. c #161618",
"i. c #040504",
"p. c #4A562E",
"a. c #6D5327",
"s. c #AFC978",
"d. c #565856",
"f. c #2A2F1F",
"g. c #2C341C",
"h. c #101013",
"j. c #798A52",
"k. c #4A582E",
"l. c #7F622F",
"z. c #B5CF7C",
"x. c #6E8346",
"c. c #4C4A4C",
"v. c #BC9750",
"b. c #745828",
"n. c #646062",
"m. c #4E504E",
"M. c #5A5A5A",
"N. c #3B4429",
"B. c #0E0D0F",
"V. c #1F2016",
"C. c #81817E",
"Z. c #8FA65D",
"A. c #93AB5F",
"S. c #60713C",
"D. c #3F492C",
"F. c #262D19",
"G. c #12160A",
"H. c #626161",
"J. c #BAD57F",
"K. c #C3DF86",
"L. c #9BB367",
"P. c #5A6A38",
"I. c #384028",
"U. c #262011",
"Y. c #0E0E06",
"T. c #424042",
"R. c #303722",
"E. c #06070A",
"W. c #757474",
"Q. c #6F7F4C",
"!. c #79904C",
"~. c #A4BC70",
"^. c #484644",
"/. c #8BA05A",
"(. c #1A2012",
"). c #708546",
"_. c #303A1E",
"`. c #2F2E32",
"'. c #242919",
"]. c #3C321B",
"[. c #58663C",
"{. c #879D58",
"}. c #6B7A4A",
"|. c #9DB568",
" X c #677A41",
".X c #686666",
"XX c #685329",
"oX c #2A2A18",
"OX c #BBD781",
"+X c #2B321D",
"@X c #9E8044",
"#X c #161912",
"$X c #374124",
"%X c #6E8144",
"&X c #AE8A44",
"*X c #859B56",
"=X c #555555",
"-X c #7B8F54",
";X c #B7954F",
":X c #A1BA6A",
">X c #3E492A",
",X c #D9B061",
"<X c #B3CD79",
"1X c #54603A",
"2X c #A98745",
"3X c #9A7A3E",
"4X c #4B3F23",
"5X c #ABC374",
"6X c #646463",
"7X c #21221E",
"8X c #41351F",
"9X c #97AF64",
"0X c #62502B",
"qX c #464442",
"wX c #6D552C",
"eX c #4E4C4A",
"rX c #7B7A79",
"tX c #EABD69",
"yX c #C39B50",
"uX c #706F6E",
"iX c #70582C",
"pX c #A17C3C",
"aX c #9DB56A",
"sX c #444244",
"dX c #4A484A",
"fX c #4C5A2E",
"gX c #838181",
"hX c #262624",
"jX c #C19B52",
"kX c #26242A",
"lX c #5A643A",
"zX c #201A0E",
"xX c #5E6C40",
"cX c #5A5856",
"vX c #4C5C38",
"bX c #362E22",
"nX c #201A0C",
"mX c #3A422C",
"MX c #876834",
"NX c #6E6C6C",
"BX c gray18",
"VX c #3A4228",
"CX c #CBA558",
"ZX c #2C2E2A",
"AX c #786236",
"SX c gray40",
"DX c #5E4E26",
"FX c #9B7E46",
"GX c #3C2E16",
"HX c #5A6A40",
"JX c #4C4E4C",
"KX c #A9C372",
"LX c #5A4A26",
"PX c #8F703E",
"IX c #585658",
"UX c #D7F593",
/* pixels */
"H.H.  H.H.H.H.    H.    H.H.H.H.H.H.H.H.      a 3 r 3 r r 3 3 r 3 3 3 r r 3 3 r r 3 3 3 3 3 3 3 n.W.",
"H.  H.          D K # D                   D K   3 3 3 3 3 l a   l l l   n.3 3 n.  3 l 3 r r 3 .X# W.",
"    H.    H.H.a o $ = a H.H.H.H.H.H.H.H.a # + = ! r r r r ! # + D ! l i @ r r @ eXa 3   H H H # w SX",
"H.H.H.  D z = = e : , = = = = = = = = = = 2 % @ M.B B B O O e i 2 B IXe # l l H O l 3 M.A e e ; 8 uX",
"        # % 7 q 4 + . . . . . . . $ $ $ . . + $ & & & $ q ` 4 + 4 g 6 D .X6.@ r r 3 r K ; = ; y @ rX",
"        D > $ w $ + % % % % % % + + + + + + + . . & 4 & * Y 7 4 7 c u K l e e 6Xa a l y x 1 1 @ i W.",
"= cXD   = q $ + + + % + + % % + + & 6 $ + $ g 6 . * Y f < < < < < < q i y # D @ i o D x j 8 $ 8 ` 3 ",
"e =   H.e -.& c.. + % + % % + + c.j * $ + $ -.* . u f f q < * * * < q + = # D 9 + o   9 $ 8 8 + n 6X",
"D   K B # i $ t $ + + + + + + & 7 . . + . + . . t q T.< < < * * * < q e D = y # # X = x $ $ w & w NX",
"    = @ # d 4 c $ + + + + + + t c . c.+ + . + . c -.T.T.< < < < < < q =   @ @ D   = 9 d 8 $ q 7 t uX",
"  H.D   K t & $ $ $ $ $ $ $ $ $ $ & 4 $ $ $ $ $ & * * * * * * * * * < d O O B e @ O B d w j j 8 g ! ",
"H.H.H.6X1 n 7 $ $ $ $ $ $ $ $ $ $ u -.7 $ $ $ & 4 u * 6 6 6 6 6 6 6 * 6 + , @ t q v 5 @ $ @ O = g ! ",
"- - H.- K w & $ $ $ $ $ $ $ $ $ $ & 7 & $ . $ & 4 u 6 6 * 6 6 qXw 6 * : , @ @ v > @ @ o K H D   e rX",
"- H.s s o + & & 4 $ & $ 4 & & $ & & $ $ $ 8 $ $ & u w ` h.7Xt * 6 6 6 d 5 , 1 , 5 @ , M.D H H o B p ",
"H.H.H.> + . $ * n t $ 4 ` q $ $ -.f & $ $ & 4 $ f ..T f.G }.T #XhXt 6 0 @ , * 4 @ @ $ ^.K D O 4 d gX",
"H.H.H.2 @ . $ t g 4 $ & q w $ $ < c $ & 8 d t E.'.G G r.%.P G ,.o.;.;.( M.1 $ % 5 5 i d o # K 9 @ C.",
"D e B 6X# * Y & . 4 q 7 . & -.q $ $ w 4 ` ..T } 8.J.5X%.aXKX_ y.~.q.Q.1XE ; 5 5 $ ^., H X 6.K   X p ",
"s =XB - # * Y & dX4 q 7 $ & -.q & i 2.E.8X@Xb.0XHXJ.s.:.*X{.L.G >.C C z.o.T BX; w.^., H X 1 K   B p ",
"H.H.H.M.= . $ t g 4 $ & * 7 $ + -.T bX@X;XtXjXpXLXI o.X.9X~.5Xr.y.P z.G { _.u.1 , @ i 0 o # o ; e p ",
"H.H.H.; @ . . * ` 7 $ & q & n B.V.O.j.8XAXtX3.jX2Xa.DXF.{ X.P s.G f.+XI ] #.u.d @ 5 + 4 K   K 9 @ C.",
"s X o H.H & < u 6 w u 7 ` h.mXr.G P {.O.}.].4X2Xv.<.3XiXXX+X1XO.V ^ #.P. .Z ..1 + + > @ K y o H B p ",
"# 6.= - # u ` < * < t m ) r.,.C s.8.5X<X).HXj.*.GXv.3.3.2Xl.XXI ] _ C r.Y.F ( > u * : , 2 d M.  B p ",
"H.o # # K $ < < * u g B.f.K.X.P 5X>._ _ ,.:X/.}.lX8X4XwXCXyXb.g. XN 5.' Q.U u.0 . . . % X K H K = p ",
"H.H.H.e 1 . u < * 7 1.*.p.R.xXC J.X.9X~.t.O.|.C C vX;.;.0X,XFXF >Xj.}.O.UX8.h.8 : 0 6 -.B   X x @ C.",
"- H.H.o B . * * * 7 1.(./ Z U N.V 1Xz.X.~.L.J.>.N.{ +.@.zX,XFXG.0.C K.L.mX'...% : % $ 8 K # H B = p ",
"- H.s - # . u sX* 7 n L M J %Xk.b Z f.1XC ~.I V p.+.J S.oX3.PXM / f.f.I ^ e.( > : : : , o # o   B p ",
"H.- H.H.H $ * < < w 1.Q S 7.@. .!.x.#.S R.I.b +._ -X7.Q $.<.AXF _.#.b P.J b ..> : g c 9 H @ $ o X p ",
"H.- H.H.# 0 7 w 7 8 m (.).+.@.Y.F F.J 0.b ^ Z.G G.R.=.U U.<.b.(. X .A.r.*.F ( > : u t 9 H y v H X p ",
"H.H.- s 9 A B 2 j * j i.S KXG o.q.[.| ' [ G V 5.@.b J S.U.v.a.M / F.M 5.p.N u.6 w JX% 4 0 # D D B p ",
"H.H.- s x @ B 2 j c 7 *.S I.[.L.:Xz.-Xo.I.>XS b A.8.4.} U.;XiXF _.p.b U e.) ` q w % % 4 0 H #   X p ",
"H.- H.H.H.H.z ; ; M.7 (./ Z &.4.4.' :.{.Q.Q. . XN D.k.$X$.<.a.Q S.%Xe.) E m > : % % % 9 o # #   X p ",
"H.- H.  - H.z ; 2 M.. i._.J x.b #.U G.@.,. .4.N Z / t.S.$.&Xl.*.| 4.`.m 1 0 8 : % % % 9 K # #   X p ",
"H.H.H.H.B X B ; 1 , 7 Q S (.&.!.!.x.+.U (.F.k.] P 8.+XQ U.MXnXT 1.m x 0 & 8 . : % : : 9 K # H D B p ",
"H.H.- s : d M.d.. 4 j L F.] p.Q F $X[ 0.b S.J.:.V.I S.b L U.m < 1 m.. . : : : > > > > @ H       X gX",
"H.- H.H.K o ; , A @ m.E ZX$X4.F ~ Z N.' t.:.' 5.U @.V I E 9., 0 : : % % % % % > > + % =X# # K H.K k ",
"H.- H.H.H.H.8 t ; B $ -.% m 7XL g.V p.Z N.D.k.U M ) E 9., 1 : : % % % % 0 0 : > > g c A D e $ H o k ",
"H.- H.H.H.H.@ d ; 2 1 4 =XD , m kXF g.V Z U _.R.`.n 5 x u 4 % % & t : % % % % > > & . ; # o = H.K k ",
"- H.H.- - s B 2 2 2 2 y , , 2 o @ f kXi.N +X1.2.M.1 : . Y * 0 0 * Y + 0 : % 8 % > v i v W H.  K B k ",
"- H.H.- H.H.z ; 2 2 d., c + 2 =XqXw.@ 2.m 2.= = 9 % j . 8 . 8 $ + 8 . j : : f < > v w g K H.B w.9 k ",
"- H.- H.H.s y ; 2 ; =X=X0 1 ; ; 0 + @ 2 z = , @ @ . ` w 0 % g g % 0 7 f j % t 8 > > . : H   # = = k ",
"H.- H.H.H.y i ; y 1 * x B ; eXi 5 =X$ q v @ 5 @ @ i 7 8 % % & j % : + u ` w 0 > & 7 > ; #     a K k ",
"- H.H.H.- K 9 ; 2 A 8 1 2 ; x 9 @ @ i w.9 @ 5 @ @ 0 % % % % % % % % % : < j % > . 8 > 5 W     H.K k ",
"- H.H.9 , - B ; 2 2 d.2 ; 2 2 2 @ , @ @ @ @ 5 @ @ 0 % % % % % % % % % : % % q t > > > 5 W   H.a K k ",
"- H.H.v 9 H.z 2 y y 2 y y y y 2 @ 5 5 @ 5 5 5 5 @ > % % % % % % % % % % % % q w v v > e H   H.a K k ",
"H.H.H.H.H.s y ; 2 ; ; ; ; ; ; ; @ , , , , , , , , , 1 1 1 1 1 1 1 1 1 , 1 , , =Xv d ; H       H.K R ",
"      - -   o K K K K K K K K K B B B B B B B B B B B B B B B B B B B B B B X o @ 9 o s   D   a X R ",
"      B B                       # # # # # # # # # # # # # # # # # # # # # # = X   D # X D   # O = R ",
"H.    i i H.                  D # # # # # # # # # # # # # # # # # # # # # o 4 d H.  = 9 H H.X $ 9 R ",
"H.    o K     H.H.H.H.H.H.H.  s # D D D D D D D D D D D D D D D D D # D # # O o     # o D   D K O R ",
"H.    H.H.    H.          H.  s # D # # # # # # # # # # # # # # # # # D # # D         H.      6XK R "
};
