/* XPM */
static char *result[] = {
/* columns rows colors chars-per-pixel */
"50 50 256 2 ",
"   c #626060",
".  c #4C4A4A",
"X  c #5C5A5A",
"o  c #4C4C4A",
"O  c #545252",
"+  c #5A5858",
"@  c #4A4848",
"#  c #605E5E",
"$  c #4C4C4C",
"%  c gray29",
"&  c #5E5C5C",
"*  c #565654",
"=  c #565656",
"-  c #4A4A48",
";  c #626262",
":  c gray32",
">  c #585656",
",  c gray33",
"<  c #4E4E4E",
"1  c #525050",
"2  c #666464",
"3  c #484848",
"4  c #525250",
"5  c #4E4E4C",
"6  c #585856",
"7  c #464644",
"8  c #444242",
"9  c #565454",
"0  c #686466",
"q  c #4E4C4C",
"w  c #464444",
"e  c #504E4E",
"r  c #484846",
"t  c #484646",
"y  c #817E7E",
"u  c #5C5C5A",
"i  c #585858",
"p  c #606060",
"a  c #646262",
"s  c gray26",
"d  c #50504E",
"f  c #464646",
"g  c #40403E",
"h  c #424240",
"j  c #444444",
"k  c #545452",
"l  c #858383",
"z  c #414040",
"x  c #666264",
"c  c #040503",
"v  c #444442",
"b  c #181D10",
"n  c #000100",
"m  c #5E5E5D",
"M  c #6A7C42",
"N  c #3F3E3E",
"B  c #060805",
"V  c #667840",
"C  c #161A0D",
"Z  c #3C3C3A",
"A  c #505050",
"S  c #3E3E3C",
"D  c #A7C072",
"F  c #13170C",
"G  c #353435",
"H  c #829754",
"J  c #313A1F",
"K  c #393837",
"L  c #696667",
"P  c #6A7D43",
"I  c #A4BD70",
"U  c #1F2316",
"Y  c #6D8144",
"T  c #3B3A39",
"R  c #1C2112",
"E  c #A3BB6E",
"W  c #3A3A38",
"Q  c #171811",
"!  c #5A5A59",
"~  c #191D12",
"^  c #AEC776",
"/  c #888787",
"(  c #636161",
")  c #2C351C",
"_  c #333233",
"`  c #181718",
"'  c #3D3C3C",
"]  c #708546",
"[  c #63753E",
"{  c #6F8346",
"}  c #AFC978",
"|  c #A9C272",
" . c #2A311E",
".. c #282111",
"X. c #566636",
"o. c #4C5B2F",
"O. c #373638",
"+. c #0F140A",
"@. c #5C6C3A",
"#. c #1D2214",
"$. c #3C3A3B",
"%. c #242B19",
"&. c #39373A",
"*. c #615F5F",
"=. c #545254",
"-. c #ABC576",
";. c #768C4B",
":. c #B3CD7A",
">. c #5D6D3C",
",. c #28301A",
"<. c #98AE68",
"1. c #424F2B",
"2. c #B1CB78",
"3. c #526134",
"4. c #687A40",
"5. c #2E3520",
"6. c #8B9F5E",
"7. c #586838",
"8. c #404A2C",
"9. c #4A4846",
"0. c #3A4524",
"q. c #1E2414",
"w. c #94AB65",
"e. c #545250",
"r. c #0E0F0A",
"t. c #70844D",
"y. c #4C4E4C",
"u. c #B5D07B",
"i. c #745A2C",
"p. c #7B9150",
"a. c #B18E4A",
"s. c #11160A",
"d. c #B7924E",
"f. c #8FA461",
"g. c #687B42",
"h. c #333B22",
"j. c #605C5E",
"k. c #46522C",
"l. c #3F4A28",
"z. c #363634",
"x. c #444244",
"c. c #9FB76A",
"v. c #75864F",
"b. c #1F1C10",
"n. c #546434",
"m. c #859957",
"M. c #735729",
"N. c #242619",
"B. c #C49E53",
"V. c #7A8E51",
"C. c #241E10",
"Z. c #52504E",
"A. c #8DA35F",
"S. c #74894A",
"D. c #49572E",
"F. c #B8D27D",
"G. c #48484A",
"H. c #231C0E",
"J. c #ABC474",
"K. c #757474",
"L. c #464442",
"P. c #81817E",
"I. c #937136",
"U. c #262D18",
"Y. c #1C1B1D",
"T. c #24271E",
"R. c #788C4E",
"E. c #C7A057",
"W. c #4E5E32",
"Q. c #565856",
"!. c #484644",
"~. c #6F572B",
"^. c #5E5A5A",
"/. c #889C5B",
"(. c #4D5933",
"). c #9BB36A",
"_. c #BBD782",
"`. c #A1B86E",
"'. c #869C57",
"]. c #1A1B1A",
"[. c #809456",
"{. c #A6833F",
"}. c #282826",
"|. c #CDA65B",
" X c #5D5C5B",
".X c #9FB76C",
"XX c #93AB62",
"oX c #2A321A",
"OX c #454446",
"+X c #424042",
"@X c #3A341E",
"#X c #080A06",
"$X c #A3BD6E",
"%X c #AE8C47",
"&X c #111210",
"*X c #4C4A4C",
"=X c #646463",
"-X c #1C2014",
";X c #292B25",
":X c #6E6D6C",
">X c #B49049",
",X c #21221D",
"<X c #2F2F2E",
"1X c #4A502F",
"2X c #758A4D",
"3X c #4E4C4A",
"4X c #7E9352",
"5X c #625E5E",
"6X c #6C7E44",
"7X c #363F24",
"8X c #91A761",
"9X c #829559",
"0X c #61723D",
"qX c #79602F",
"wX c #151414",
"eX c #A6BF71",
"rX c #977940",
"tX c #B99551",
"yX c #7B7A79",
"uX c #6A6868",
"iX c #16180E",
"pX c #2E381E",
"aX c #485830",
"sX c #727070",
"dX c #6C5228",
"fX c #4C4A48",
"gX c #605C5C",
"hX c #838181",
"jX c #545654",
"kX c #A18348",
"lX c #8D6E3C",
"zX c #DDB564",
"xX c #ABC774",
"cX c #343E20",
"vX c #0A0808",
"bX c #445032",
"nX c #748948",
"mX c #3E4040",
"MX c #303032",
"NX c #5C6C40",
"BX c #605430",
"VX c #A98742",
"CX c gray19",
"ZX c #384026",
"AX c #525052",
"SX c #3A3E24",
"DX c #585456",
"FX c #4E5050",
"GX c #6E7E4C",
"HX c #D3AD60",
"JX c #6C7C4A",
"KX c #56482C",
"LX c #463820",
"PX c #44361E",
"IX c #C19B54",
"UX c #E9BD68",
/* pixels */
"( (   ( ( ( (     (     ( ( ( ( ( ( ( (       a 2 0 2 0 0 2 2 0 2 2 2 0 0 2 2 0 0 2 2 2 2 2 2 2 a K.",
"(   (           *. X# *.                  *. X( 2 2 2 2 2 x a *.x x x   a 2 2 a   2 x 2 0 0 2 L j.K.",
"    (     ( ( a & @ > a ( ( ( ( ( ( ( ( a # . > uX0 0 0 0 uXj.. # uXx q O 0 0 O 3Xa 2   m m m j.w L ",
"( ( (   *.i > > 9 o : > > > > > > > > > > = $ O X ! ! ! + + 9 q DX! i 9 gXx x & + x 2 X k 9 9 * r sX",
"        # $ f h t . % % % % % % % @ @ @ % % . @ 3 3 3 - v ' t % t g v *.L 1 e.0 0 2 0  X* > * 6 e.yX",
"        *.< @ w @ . $ $ $ $ $ $ . . . . . . . % % % - 3 $.K @ - r h v X x 9 9 =Xa a x 6 d 4 4 O q K.",
"> + *.  > h @ . . . $ . . $ $ . . 3 v @ . @ z t @ &.G <XU T.&.G $.w 8 < 6 # *.O q & *.d r - @ - Z 2 ",
"9 >   ( 9 N 3 *X% . $ . $ $ . . *Xr 8 @ . % S ' W U ~ h.E [.-X#.;X$.O.j + # *.1 . m   1 @ - - . T =X",
"*.   X! *.q @ 7 @ . . . . . . 3 f % % $ % % N n 5.^ ^ .Xm.2.D :.V.c B ,X# + + # # X > d @ @ w 3 w :X",
"    > O # e t h @ . . . . . . 7 h o . G.O.&XvX%.<.F.E H D E V.XX-.A.<.GX}.: e.*.  > 1 e - @ z f 7 :X",
"( ( *.   X7 3 @ @ @ @ @ @ 3 @ . @ x.T Q KXIXI.i.1XI D E H /.D 8XA._._.:.JXr.}.+ O + ! e w r r - z uX",
"( ( ( =X4 T f @ @ @ @ @ @ o 3 +X' &X@XtXE.UXE.VX~.~ (.-.).2.| A.J.`.-.9X0.l.Y.- h A , O @ O + > z uX",
"; ; ( ;  Xw 3 @ @ @ @ % t z z.~ 5.I m.T.BX|.tXIXa.I.~.iXSX)..X} v.-X~ pX;.o.Y.k q O O  X Xm *.  9 yX",
"; ( p p m . 3 3 t 3 3 @ Z Q bXeXE E /.I v.C.@XrXa.>X{.I.qXb.1Xt.J 6XY P Y l.Y.= O O : X *.m m m ! y ",
"( ( ( < . % @ 8 Z w q G 5.} ^ u.| 4X} E ] p.f.#X..%XE.E.a.{.i. .] R.u.9XB c ` - : O @ !.X *.+ t e hX",
"( ( ( = O % @ 7 g @ 8 B  .:.} :.:.c.p.'.eXc.[.w.V.C.b.LX|.B.M.oX@.b N.8.`.NX` Z.O =.q e & #  X1 O P.",
"*.9 ! =X*.8 N 3 @ % G C n.U (.-.I D D ^ E H J.u.-.NXn c PXzXkXc bX).w.<.F.GX].i r !.: m X 1  X  X y ",
"p 9 ! ; *.8 N 3 @ - G b V V (.U -X8.D ^ 2.D } /.U 0.Y o.C.HXrX#.4X^ u./.U F Y.= 9.!.: m X 4  X  ! y ",
"(   ( X > % @ 7 g % g c ,.P 4.V P 7.~ 8.I 6.U 5.M P 6XW...|.lX,.X.-X~ 5.] 1.` 4 O O q 5 & # & * 9 y ",
"( ( ( * O % % 8 T - $.b n.F J Y g.V g.3.U  .V 4.p.t.C s.b.a.qXc h.4.V M ] 1.` d O , fXt  X*.X 1 O P.",
"p X m ( # 3 s j 8 3 &.C 6XS.W.B B q.{ { Y P H /.c ,.;.n...d.~.U.nX6X'.9XB n Y.1 . . 5 O  X6 & # ! y ",
"*.4 > ; *.j ' s s w W n ZX| .Xf.w.V.C 8.xXA.q.h.>.[ ;.7...tXdX) @.F ~ h.[ 0.].d j 8 o : = e !   ! y ",
"( m *.# X @ s s 8 f O.C 3.%.8.p.H I <.v. .ZX>.>.H v.b F C.d.~.B cX>.7.k.R ;Xx.% % . % $ X X m  X> y ",
"( ( ( 9 4 % j s 8 f O.b V [ k.+.s.h.R.H w.A.S.@.F 7XP aXC.a.~.R g.[ b T.' z w w $ 5 v N !   X d O P.",
"; (   & ! % 8 8 8 7 W c oXP g.V P n.s.pXS.0XC ) 6X4XXXW.C.{.M.B Q ].&.z 5 o t - $ $ @ -  X# m + > y ",
"; ( p ; *.% j x.8 f O.iXD.iXh.{ M M { W.s.U.V 2XI v.q.+.H.qXr.` $.$.j - - 3 % $ $ o o : & # &   ! y ",
"( ; ( ( # @ 8 s s j W n #.] D.c n 5..X{ P 2X:./.B ,.{ X.n wXmXh Z z.z 3 7 z.h y.o z h 1 m O @ & X y ",
"( ; ( ( *.5 f w f t j T CX#.+.r.7.3.U 8.xX8X .h.>.k.b N.CXz.7 j N T s - r ' 7 $ $ j 7 1 m 6 1 m ! y ",
"( ( ; p 1 k + = @ z k ! k 3 MX#X-XU.n.D. .h.n.k.q.T.}.O.5 $ s h % $ v W r $ - z 7 y.$ t 5 # *.*.! y ",
"( ( ; p d O + = r g k = = u , o $.B C ,.7.o.#.T.+XN ' w % % s h - % v W f % 3 z 7 $ $ t 5 m #   X y ",
"( ; ( ( (   i * = * = = = * * e e < &.vXQ T.OXf @ . - - v 7 % % % - % % % % % o $ $ $ 1 & # #   X y ",
"( ; (   ; ( i * = 6 = = = 6 * w - > 9 $._ G.> 5 g f % - g s % % % % % % % % % o $ $ $ 1  X# #   X y ",
"( ( ( ( ! X i * : d * * , e , , O q < O : 4 o d < o - % @ - % % % % % % % % % o $ o o 1  X# m *.! y ",
"( ( ; p o e ! Q.. v , i 4 8 d i =.L.w =.9 - h e : $ o o o o o o o o o o o o o < < < < O m       X hX",
"( ; ( (  Xm * : , 4 k < , 4 , 4 1 d 1 e q 1 < : O 5 $ $ $ $ $ $ $ $ $ $ $ $ $ < < . $ , # #  X(  Xl ",
"( ; ( p ; ( - 7 * i @ z.5 i , L.@ , , z K 1 , : : 5 $ $ y.$ $ $ $ $ $ $ 5 5 o < < z h k *.9 @ m & l ",
"( ; ( ( ( ( : e * = 4 9., = * e A =.O . r : O O O 5 o o 7 r $ $ 3 7 o $ $ $ $ < < 3 % * # ^.> (  Xl ",
"; ( ( ; ; p ! = = = = 6 : k = 6 1 e O , , O O , O 5 $ o N 8 5 5 8 N o y.o $ - $ < FXq A m (   ^.! l ",
"; ( ( ; (   i * = = Q.: h . 6 * L.8 : O O O , O O q r % - . - @ . - % r o o S s < A w z  X( ! 9.1 l ",
"; ( ; ( ( p 6 * = * , 9 5 : * * 5 3X: 1 O O , O O % ' w 5 $ z z $ 5 f S r $ 7 - < < % o m   # > > l ",
"( ; ( ( ( 6 q * 6 4 8 d i * o q , , @ 8 1 O O O O q 7 % $ $ 3 r $ o . j ' w 5 < 3 f < * #     a ^.l ",
"; ( ( ( ; X 1 * = k - 4 = * d 1 O O q 9.1 O , O O 5 $ $ $ $ $ $ $ $ $ o s r $ < % - < , m     (  Xl ",
"; ( ( 1 4 ; i * = = Q.= * = = = O : O O O O , O O 5 $ $ $ $ $ $ $ $ $ o $ $ h 7 < < < , m   ( a  Xl ",
"; ( ( A 1 ( i = 6 6 = 6 6 6 6 = O , , O , , , , O < $ $ $ $ $ $ $ $ $ $ $ $ h w A A < 9 #   ( a  Xl ",
"( ( ( ( ( p 6 * = * * * * * * * O : : : : : : : : : 4 4 4 4 4 4 4 4 4 : 4 : AX9 A e jXm       (  X/ ",
"( ( ( ; (   &  X X X X X X X X X! ! ! ! ! ! ! ! ! ! ! ! ! ! ! ! ! ! ! ! ! ! X m e.Z. Xp   *.  a X / ",
"      ! !                       *.# # # # # # # # # # # # # # # # # # # # # > X   *.# X *.  # + > / ",
"(     q q (                   *.# # # # # # # # # # # # # # # # # # # # # m t e ( ( > Z.m ( X @ 1 / ",
"(     &  X    ( ( ( ( ( ( (   p # # *.*.*.*.*.*.*.*.*.*.*.*.*.*.*.*.# *.# # + &     # & *.  *. X+ / ",
"(     ( (     (           (   p # # *.# # # # # # # # # # # # # # # # *.# # *.        (       =X X/ "
};
