/* XPM */
static char *result[] = {
/* columns rows colors chars-per-pixel */
"50 50 54 1 ",
"  c black",
". c #3E3F3E",
"X c #403F3F",
"o c #3E403F",
"O c #3F3F40",
"+ c #444444",
"@ c #494747",
"# c #474947",
"$ c #494947",
"% c #464749",
"& c #494749",
"* c #474949",
"= c #4C4C4C",
"- c #504F4F",
"; c #4F504F",
": c #50504F",
"> c #4F4F50",
", c #514F51",
"< c #4F5150",
"1 c #535353",
"2 c #595757",
"3 c #575957",
"4 c #595957",
"5 c #565658",
"6 c #585658",
"7 c #575959",
"8 c #5E5C5D",
"9 c #615E5D",
"0 c #5E605F",
"q c #60605F",
"w c #5F5F60",
"e c #5E6060",
"r c #606060",
"t c #9F7531",
"y c #A17735",
"u c #A27936",
"i c #A97D37",
"p c #6A8842",
"a c #AF8139",
"s c #B18237",
"d c #B48438",
"f c #BB8C45",
"g c #C29247",
"h c #C39449",
"j c #C8974F",
"k c #D19D4E",
"l c #CC9D53",
"z c #D6A353",
"x c #DBA959",
"c c #E3AF5B",
"v c #E9B35E",
"b c #EEB660",
"n c #F8BE65",
"m c #A8CD78",
/* pixels */
"8889q988887889888w889489881::9&988,898888878988889",
"894888878883888888888888911899&999,57888888888>888",
"87988849929999998888318198:99==9&,8179888758==889,",
"98888889181187798787281818889===9=,149888718w=8=88",
"88084883118882984e83818:>,=>=====-,92797818<8=$889",
"80708821881812888898281:======9-==-92978751<<=8=89",
"8844811818111113874911===9=9=8$9-881188776218===98",
"88432811;;-;18317831<====&88===9$=81234976111888w8",
"8892119-=8:8<113w1288;=89$*=888==;;:94847452181,8,",
"878181,-1=-::1188281<88==8*8=8====;:1334747222119,",
"8818,,=,9=1;18218781<<==88=888;8==9881332987327868",
"8,-==>9=-881122888118<=;===8;=;;=88:::112888788788",
"988&&-=9=111828779728<<88=8;4<;;====8;818277878899",
"988@9$&8=,1112774w821<<<88881<;;8==$=8=11278888899",
"8++8@9$9811888778777211111188888=8=&=-181288888898",
"8XX+++$=-1111825799772818181228<99==9===126788889w",
".8.+9+88=9,191297978792629777519>=====-18225698899",
"8..9++9==-88,91127878777788795511<<;81=18188868886",
"88.o8+*=::,1,11167277758888895118<1==<8115226888,w",
"88o+9+*8-:81,91122222257784875511811911111122611,9",
"o8++@@*===111,1121118185888882211121112188121,89w9",
"88++%===11-88191811118287w48  112822828281111,8899",
"888%8=8-,1181:8818<111115   mm   8687722181>,>8888",
"88%==>,1911:18>1181=>81  mmmpmmmm   888211>>>>=8&9",
"88&9>,8,211:1=1;;1=1<   mmmpmmppmmmm 721,888=&99w8",
"9w9w89w5821111<11:1  ndd mmmppmmpmmmm  1>>===9998@",
"8&88w,98741118111  nnbkfi  mmmmpmmmm p ,>=8$%&&&99",
"8>98,,598811181  mm  nckgus  mmmm   pp 1===$9$9$&9",
"w&89,55687282  mmmpmm  dzfdii  m ppppp 8=8=%&&9&&&",
"9w&,ww,68282 mmmmpmmppm  dxzhsd ppmm   18=8=&&&-w8",
"99=>,,66822  mmmmmppmmpmm   cza p   mm ,==$&&=&8-9",
"&&9w,5,6282 p  mmmmmmpmmmm   bv  mmmmm 8988=&w&88,",
"8w&,8,15959 ppp   mmmmmm  pp xl pmmm   1=9%9&&9=9,",
"8&9=>,11888  ppppp  mm  pppp xz p   pp 1>=9%%99999",
"8&9&>,11616 p  ppppp  pppm   fy  ppppp ,=9&9%&8ww9",
"89&88911866 ppp   pppppm  pp ji pppm   >=%%%9%&&&,",
"88&=,,,6698  mmmmm  mm  pppp lu p   pp =%%++98%988",
"98&=w,11678 p  ppmmm  pppm   jy  ppp  =*%+++99%9,=",
"88&8=,,5688 ppp   ppmmpp  pp ht pp  <==8+++8+8@=&8",
"89898,,6788  ppppp  pp  ppmp dd   1889*@+w+X+9%88w",
"988@&=:1788 p  ppppp  ppmm   d  18<8>=%+888O+88=,w",
"89++$91829e  pp   mpppmm  pp  11188<8=*%88+O+88&&=",
"89++9=819888e   pp  mm  pp  w11118<<>=$9++O8%&==89",
"889+9911378e988   pp  pp  >1111w1<1<>8$#+988888=,9",
"998X%8>14888r8987   pp  w>8811111w1<1==8%%99&&,,,8",
"8X9+8=;188w8rww8888   19www,,5w,11819=899&%9889889",
"889+$891788wrrww888721,ww,998898181818:&-9&-9,8,w8",
"999%9=19779888e08w8881w,w,,8,8881958181--9=8895889",
"8898&,,6988889888w886,29w9998,991w55,9,,,,,,989889",
"89%89>9888w9w88w8888w9898,8888689989w9999,999w8888"
};
