/* XPM */
static char *result[] = {
/* columns rows colors chars-per-pixel */
"50 50 33 1 ",
"  c #3E3F3E",
". c #403F3F",
"X c #3E403F",
"o c #41413F",
"O c #3F3F40",
"+ c #3D4140",
"@ c #444444",
"# c #494747",
"$ c #474947",
"% c #494947",
"& c #464749",
"* c #494749",
"= c #474949",
"- c #4C4C4C",
"; c #504F4F",
": c #4F504F",
"> c #50504F",
", c #4F4F50",
"< c #514F51",
"1 c #4F5150",
"2 c #535353",
"3 c #585656",
"4 c #575957",
"5 c #595957",
"6 c #565658",
"7 c #585658",
"8 c #575959",
"9 c #5E5C5D",
"0 c #615E5D",
"q c #5E605F",
"w c #5F5F60",
"e c #5E6060",
"r c #606060",
/* pixels */
"9999q909998909w9909w9590992>;9-099<999909979w99909",
"909999950906099990999009022000-909<280w08999w0-090",
"05999959029099099999429200290--0-;9290909879,*09w<",
"990999902022078998984929<9990--*0-<2499806690*9-90",
"99q89992229094999995929>:>-;--;*-;<065098791w**999",
"q9q9994299292399999939>:------0;--;03w5873211-w*00",
"9995922929>22224954922-:-0-9-0*0-092299557329---90",
"995449221:;22934494211----00*--9*-9238508622290099",
"99922202-0;0:22293299:-99=-%999--->29595586320>20<",
"940292<-;--222299392199-*9=9-9----:>2445857733229<",
"9020<<-<9-<22936989211--99-999:9--0092446095346770",
"0;;-;-0-;9922365996291--:--9-::--90->>226909599900",
"990*---0-2229389598291:99-9-9:::----9-92935898ww09",
"909#0**9->22338599982211090912::9--%-9222398999990",
"9@.0@0*0022999658998322222299999-0-----02399799909",
"0..@@##--2222936899583929294429:90*-0;1-237899999w",
" 9XX9@99-9220220598999776085862w--:--:-29238799900",
"0  9@$9--;99<023858598589895w66<2,1-91<<939909w997",
"99+@9@=-;><22<22759555888989066292<<2-022336799960",
"90oo0@*0;>9<20223666777799995722292292222223<37229",
"O9@@$$=-;-2222<23222920689998632223232329922229999",
"99@@**-->2>99>029222292w8w899632297396930222<<9990",
"999&9-9<;229229929221222889859233999577329<2<,9090",
"9w**-<<2022<>922291,2919659886229798980222<,,,-9*9",
"99*9<<962222>22::2-21>9293943232338898322999-*90w9",
"9099990693222>:22>2--:;92923239929859922-----9009#",
"9*009<90632229222--22-292929222233657722,-0-****00",
"9,w96<69993229222229>0-;2::921222078792<--**9%0#*0",
"9*99<6669539336722229>22;2>,190222666999-9****0--*",
"99,<993798932759492>9;>>>-9,1q922229362,9-9--**-99",
"99*,<6279323389853022222--0,9029w222633<--*--**9-0",
"<*90<2<76933658503332220,09-0-2-12982299009**9-09<",
"99-<9<26060208898963922-00*-:12:9-939222<0*9**0-9<",
"9*9*,<269996678905732,;------9>22223322<<-0&*9w009",
"9*9<-<22327759998999<-;-*-0-:::292222922-0*w$*9009",
"99*0902297778898532299-9=--9-:2>9222222-***#9**-;<",
"99*,,<237w9w99985399,--*-==992922299921-*&&@99*999",
"99**w<227598w999729<9----9-9:9>219222-:*&@@@90*0*,",
"99*0-<<279999989620-9-**=-:912222199--*9@@@9@9**<0",
"90909<265599ww08722,0-w*99:1229992,909*=@9+@@9*9w9",
"090#--22899www9980299,,**,,<<22929191*=@999@@99**9",
"99@#%0>9509ww999879299,,,,w,6<6229919-=$99O@@99,,*",
"09.@0-9298w9eee9986w<9<0wwwww<222921,-*0@@O9@&*,90",
"090@90225www9999856692<<99<6<229211219*$@099099-<9",
"900.&9:25999ew99787769<90<99222629122--0&*00#*,<<0",
"9.0@9-:299w9erw0w9872229w90<229222929:990**0w9999w",
"900@=996599wrrew7w6w6<290<0w99972w3929>--0;-9<0<90",
"999#9-20580999eqwww9929<0<<92990292920>>;9<999<090",
"0w09*<<709990900ww992<7000w99200297769<2<2<<099099",
"09&90,09990w090w99w999990<w79979999909900<09900990"
};
