/* XPM */
static char *result[] = {
/* columns rows colors chars-per-pixel */
"50 50 136 2 ",
"   c #626060",
".  c gray26",
"X  c #444442",
"o  c #444444",
"O  c gray29",
"+  c #545252",
"@  c #444242",
"#  c #605E5E",
"$  c #4A4848",
"%  c #4C4C4C",
"&  c #5A5858",
"*  c #4C4A4A",
"=  c #484848",
"-  c #5C5A5A",
";  c #4C4C4A",
":  c #5E5C5C",
">  c gray32",
",  c #565656",
"<  c #565654",
"1  c gray33",
"2  c #464644",
"3  c #464444",
"4  c #626262",
"5  c #4E4E4E",
"6  c #585656",
"7  c #525050",
"8  c #484646",
"9  c #4A4A48",
"0  c #666464",
"q  c #424240",
"w  c #424040",
"e  c #4E4E4C",
"r  c #525250",
"t  c #464646",
"y  c #585856",
"u  c #484846",
"i  c #565454",
"p  c #504E4E",
"a  c #40403E",
"s  c #4E4C4C",
"d  c #686466",
"f  c #817E7E",
"g  c #606060",
"h  c #505050",
"j  c #5C5C5A",
"k  c #646262",
"l  c #464442",
"z  c #585858",
"x  c #666264",
"c  c #3E3C3C",
"v  c #50504E",
"b  c gray25",
"n  c #3E3E3C",
"m  c #858383",
"M  c #545452",
"N  c #403E3E",
"B  c #3C3A3A",
"V  c #3E3E3E",
"C  c #3A3A38",
"Z  c #3A3838",
"A  c #545254",
"S  c #3C3C3A",
"D  c #4C4E4C",
"F  c #4A4846",
"G  c #565856",
"H  c gray37",
"J  c #4A484A",
"K  c #484644",
"L  c #81817E",
"P  c #5E5A5A",
"I  c #6A6668",
"U  c #4C4A4C",
"Y  c #646062",
"T  c #5E5E5C",
"R  c #898787",
"E  c #545250",
"W  c #605C5E",
"Q  c #686666",
"!  c #424042",
"~  c #403E3C",
"^  c #3C3C3C",
"/  c #625E60",
"(  c #5A5A5A",
")  c #605E5C",
"_  c #52504E",
"`  c #444240",
"'  c gray36",
"]  c gray53",
"[  c #4C4A48",
"{  c #60605E",
"}  c #625E5E",
"|  c #5A5A58",
" . c #4E4C4A",
".. c #626260",
"X. c #3A3836",
"o. c #383836",
"O. c #5E5C5A",
"+. c #767676",
"@. c #525052",
"#. c #6A6868",
"$. c #686868",
"%. c #444244",
"&. c #42403E",
"*. c #343230",
"=. c #878585",
"-. c gray52",
";. c #646462",
":. c #5A585A",
">. c #545654",
",. c #727070",
"<. c #7A7A78",
"1. c #3C3A38",
"2. c #626062",
"3. c #3C3838",
"4. c gray22",
"5. c #605C5C",
"6. c #343432",
"7. c #5A5856",
"8. c #747272",
"9. c #343232",
"0. c #646464",
"q. c #6E6E6C",
"w. c #838181",
"e. c #7C7A7A",
"r. c #3A3A3A",
"t. c #585456",
"y. c #6E6C6C",
"u. c #484648",
"i. c #424442",
"p. c #383634",
"a. c #363634",
"s. c #4E5050",
"d. c #767474",
"f. c #838383",
"g. c #585658",
"h. c #565452",
/* pixels */
"                                              k 0 d 0 d d 0 0 d 0 0 0 d d 0 0 d d 0 0 0 0 0 0 0 Y +.",
"                # - # #                   # -   0 0 0 0 0 x k } x x x   Y 0 0 Y / 0 x 0 d d 0 Q W 8.",
"              k : $ 6 k                 k # * 6 I d d d d I W * # I x s + d d +  .k 0   : : : W 3 Q ",
"        # z 6 6 i ; > 6 6 6 6 6 6 6 6 6 6 , % + :.& & & & & i s t.& g.i 5.x x : & x 0 ( M i i < u ,.",
"        # % t w 8 * O O O O O O O $ $ $ O O * $ = = = $ w B 8 * 8 a X # Q 7 E d d 0 d j < 6 < y E <.",
"        # 5 $ 3 $ * % % % % % % * * * * * * * O O = 8 = @ n t 8 t q o - x i i k k k x y v r r + s d.",
"6 7.#   6 w $ * * * % * * % % * * = X $ * $ a X O @ c n . . . . . . w s y # # + s : # v u 9 $ 9 B 0.",
"i 6     i ~ = U O * % * % % * * U u @ $ * $ ~ @ * o c c w . @ @ @ . w * 6 # # 7 * :   7 $ 9 9 * C ;.",
"#   - & g s $ 2 $ * * * * * * = 8 O O * O * O O 2 w ! . . . @ @ @ . w i # 6 y # # - 6 v $ $ 3 = 3 y.",
"/   6 + # p 8 q $ * * * * * * 2 q O U * * O * O q V ! ! . . . . . . w 6   + + #   6 7 p 9 $ w t 2 q.",
"    {   j 2 = $ $ $ $ $ $ $ $ $ $ = 8 $ $ $ $ $ = @ @ @ @ @ @ @ @ @ . p & & & i + & & p 3 u u 9 a #.",
"      4 r C t $ $ $ $ $ $ $ $ $ $ o N t $ $ $ = u.o X X X X X X X X @ X * > + 2 &.h 1 + $ + & 6 a $.",
"4 4   4 j 3 = $ $ $ $ $ $ $ $ $ $ = t = $ O $ = 8 o X X X X X X 3 X @ ; > + + h 5 + + ' - : #   i e.",
"4   g g : * = = 8 $ = $ 8 = = $ = = $ $ $ 9 $ = 8 o X 3 3 3 3 3 3 3 @ p 1 > 7 > A + > ( # # : : & f ",
"      5 * O $ @ 1.2 J t B w $ $ V c = $ $ 9 $ = 8 o X 3 o o o o o 3 X 5 + > X 8 + + $ K - # & 8 p w.",
"      , + O $ 2 a 8 $ = b 3 $ $ . q $ $ $ $ $ = 8 o X l X l l l l l X 5 A > 9 % 1 1 s p : # - 7 + L ",
"# i & 4 # @ n = O 8 w t O = N w $ $ 3 . = = = = 8 o X l l X X X l X X e > > > 1 F K > : - 7 -   - f ",
"g i & 4 # @ n = J 8 w t $ = N b = = o . 8 = = 8 t 2 o o o o o o o o o % h p h + $ K > : - r -   & f ",
"      - 6 O $ 2 a 8 $ = @ t $ $ . w 8 = t @ 8 8 2 V b o o w a X o . ^ O h p O 5 + + s e : # : < i f ",
"      < + O O @ B t J = w 3 $ $ V c = $ 3 b t u 2 B n o o a N X o w Z $ > h u ; + 1 [ 8 - } - 7 + L ",
"g - :   H = . o X 3 o 3 o o 3 3 o o X @ 3 3 o . o . . b b . . . . . q $ $ O % 5 % * e + - y : H & f ",
"# r 6 4 # o S . @ @ @ @ @ @ @ . X X N c @ X q c w i.. ^ c . . . . . . t q 2 O ; 3 %.; > , p |   & f ",
"  : # # - $ . . @ o o o o o o @ q w @ q @ q @ . X a b q q . . X X X . u = 9 = O O * O % - - : - 6 f ",
"      i r O o . @ o @ @ @ @ @ @ B C @ X w c q o @ Z S . . . X X X X . u O 9 @ 2 % e X ~ &   - v + L ",
"4     : & O @ @ o @ @ @ @ o @ @ a a @ X @ w @ X o V a . . . . . . . . u O O u 9 % % $ 9 - # : & 6 f ",
"4   g 4 # O o o o o o o o o o @ X X X X X X X X . . . . q q . . q q . u O = O % % ; ; > : # :   & f ",
"  4   ..H $ @ . @ @ @ @ @ @ @ . @ X X X X X X n *.^ . b 6.4.. . C 9.b = 2 a.q D ; b q 7 : + $ : - f ",
"  4     # e t 3 t t t 3 2 2 2 2 2 2 2 2 2 2 8 @ B w o X r.n o o n C . 9 u S 2 % % o 2 7 : y 7 : & f ",
"    4 g 7 M & , $ a M , , , , < + + + > + s 2 p 7 = Z q ; O . q O % X Z u % 9 w 2 D % 8 e # # # - f ",
"    4 g v + & , u N M y G , , , A + + M i s 3 p 7 = o.q ; O . q 9 O X Z t O = a 2 % % 8 e : #   - f ",
"  4         z < , < , , y , < ; 5 + + = @ > + 5 3 $ O O X 2 O O O 9 O O O O O ; % % % 7 : # #   - f ",
"  4     4   z < , y , , , y < 3 9 1 1 w 3.7 i ; N 8 O 9 N . O O O O O O O O O ; % % % 7 - # #   - f ",
"        & - z < > v < < 1 p 1 1 + e 5 7 7 h % h 5 ; 9 O $ 9 O O O O O O O O O ; % ; ; 7 - # : # & f ",
"    4 g ; p | G * X 1 z r @ v z A l 3 1 i [ q p > % ; ; ; ; ; ; ; ; ; ; ; ; ; 5 5 5 5 + :       - w.",
"  4     j : < > 1 r M 5 1 r 1 r 7 v 7 p s 7 5 > + e % % % % % % % % % % % % % 5 5 * % 1 # # -   - f.",
"  4   g 2.  9 2 < z $ p.e z 1 l $ 1 1 a X.7 1 > > e % % D % % % % % % % e e ; 5 5 a q M { h.$ : : f.",
"  4         > p < , r F 1 , < p h A + * u > + + + e ; ; 2 u % % = 2 ; % % % % 5 5 = O < # P 6   - f.",
"4     4 4 g & , , , , y > M , y 7 p + 1 1 + + 1 + e % ; n @ e e @ n ; D ; % 9 % 5 s.s h T     P & f.",
"4     4     z < , , G > q * y < l @ > + + + 1 + + s u O 9 * 9 $ * 9 O u ; ; c . 5 h 3 a -   & F 7 m ",
"4   4     g y < , < 1 i e > < < e  .> 7 + + 1 + + O S 3 e % a a % e t c u % 2 9 5 5 O ; :   ) 6 6 f.",
"  4       y s < y r ` v z < ; s 1 1 $ ` 7 + + + + s 2 O % % = u % ; * o S 3 e 5 = t 5 < #     k P f.",
"4       4 - 7 < , M 9 r , < v 7 + + s F 7 + 1 + + e % % % % % % % % % ; . u % 5 O 9 5 1 T       - f.",
"4     7 r 4 z < , , G , < , , , + > + + + + 1 + + e % % % % % % % % % ; % % w 2 5 5 5 1 T     k - f.",
"4     h 7   z , y y , y y y y , + 1 1 + 1 1 1 1 + 5 % % % % % % % % % % % % w 3 h h 5 i H     k - f.",
"          g y < , < < < < < < < + > > > > > > > > > r r r r r r r r r > r > @.i h p >.:         - =.",
"      4 ..  : j j j j j j j j j & & & & & & & & & & & & & & & & & & & & & & - : E _ ' g   #   k - =.",
"      & &                       # # # # # # # # # # # # # # # # # # # # # # 6 -   # ) - #   # & 6 =.",
"      s s                     # # # # # # # # # # # # # # # # # # # # # # : 8 p     6 _ :   - $ 7 ] ",
"      O.j                     g # # # # # # # # # # # # # # # # # # # # # # & :     # : #   # - & =.",
"                              g # # # # # # # # # # # # # # # # # # # # # # #                 k - =."
};
