/* XPM */
static char *result[] = {
/* columns rows colors chars-per-pixel */
"50 50 256 2 ",
"   c #626060",
".  c #5E5C5C",
"X  c #4C4A4A",
"o  c #5A5858",
"O  c #444242",
"+  c gray29",
"@  c #5C5A5A",
"#  c #605E5E",
"$  c #4A4848",
"%  c #4C4C4C",
"&  c #545252",
"*  c #585656",
"=  c #626262",
"-  c #565656",
";  c gray26",
":  c #565654",
">  c #4E4E4E",
",  c #666464",
"<  c #444444",
"1  c #484848",
"2  c #656263",
"3  c #484646",
"4  c gray32",
"5  c #273C85",
"6  c #525050",
"7  c #41403F",
"8  c #585856",
"9  c #4C4C4A",
"0  c #283C87",
"q  c #484846",
"w  c #464644",
"e  c #464444",
"r  c #565454",
"t  c #444442",
"y  c #4A4A48",
"u  c #4E4C4B",
"i  c #60605F",
"p  c #464646",
"a  c #686466",
"s  c #817E7E",
"d  c #5F5C60",
"f  c #3C3B3A",
"g  c #403F3D",
"h  c gray33",
"j  c #5E5D5D",
"k  c #263A84",
"l  c #525250",
"z  c #504E4E",
"x  c #2A3E8A",
"c  c #424240",
"v  c #555451",
"b  c #505050",
"n  c #50504E",
"m  c #6E6652",
"M  c #4E4E4C",
"N  c #585858",
"B  c #2B3E85",
"V  c #5C5C5A",
"C  c #31375A",
"Z  c #253063",
"A  c #3D3E42",
"S  c #223379",
"D  c #24377B",
"F  c #858383",
"G  c #2A3C87",
"H  c #454554",
"J  c #464542",
"K  c #23377F",
"L  c #4C4A47",
"P  c #2E3E86",
"I  c #E2A513",
"U  c #B59924",
"Y  c #2E408A",
"T  c #2A3B81",
"R  c #E3BE25",
"E  c #48484A",
"W  c #494950",
"Q  c #C4A51E",
"!  c #2A3362",
"~  c #2C3E87",
"^  c #22378B",
"/  c #3D405C",
"(  c #636161",
")  c #4E4E56",
"_  c #888686",
"`  c #27387C",
"'  c #2F365F",
"]  c #3B3D42",
"[  c #696047",
"{  c #5D5C5B",
"}  c #716353",
"|  c #C1A321",
" . c #696667",
".. c #E8A611",
"X. c #27397F",
"o. c #776C3C",
"O. c #373635",
"+. c #26210C",
"@. c #E6A612",
"#. c #C8A61E",
"$. c #222C62",
"%. c #7D6C33",
"&. c #25306A",
"*. c #7D713F",
"=. c #2A366D",
"-. c #BB8D1A",
";. c #525258",
":. c #5B5644",
">. c #3B3E55",
",. c #C2A426",
"<. c #2A3975",
"1. c #474957",
"2. c #55534E",
"3. c #5B5B60",
"4. c #696153",
"5. c #B68E1D",
"6. c #283676",
"7. c #D9B524",
"8. c #3F4051",
"9. c #29315D",
"0. c #988222",
"q. c #5F5B59",
"w. c #D79D14",
"e. c #5B5957",
"r. c #828180",
"t. c #ECC62A",
"y. c #D5B11E",
"u. c #737272",
"i. c #3B3D4B",
"p. c #B39510",
"a. c #8A7426",
"s. c #CB9A10",
"d. c #2B3A7C",
"f. c #393938",
"g. c #2A3257",
"h. c #EAA812",
"j. c #74663A",
"k. c #7F5A4E",
"l. c #5E554B",
"z. c #5B5A59",
"x. c #957C28",
"c. c #C9961C",
"v. c #515256",
"b. c #BA9C1B",
"n. c #7E6A13",
"m. c #5A5651",
"M. c #223272",
"N. c #E01415",
"B. c #B39518",
"V. c #565856",
"C. c #DEA31C",
"Z. c #344286",
"A. c #594E4C",
"S. c #35395D",
"D. c #B69B2B",
"F. c #686464",
"G. c #CFAD26",
"H. c #897746",
"J. c #C29117",
"K. c #EAC323",
"L. c #393A42",
"P. c #DFBB20",
"I. c #373C5F",
"U. c #42444B",
"Y. c #44437F",
"T. c #605C5E",
"R. c #98811D",
"E. c #A98D1B",
"W. c #554F3C",
"Q. c #1A160E",
"!. c #E5BE20",
"~. c #827134",
"^. c #CDAC1B",
"/. c #AF8620",
"(. c #A17F29",
"). c #833C57",
"_. c #886357",
"`. c #1C1A10",
"'. c #8E7730",
"]. c #4C4A4C",
"[. c #A89137",
"{. c #625E5D",
"}. c #4F5478",
"|. c #635A44",
" X c #201C0C",
".X c #BC8E1B",
"XX c #DEBB27",
"oX c #E5C128",
"OX c #773653",
"+X c #C6A827",
"@X c #6C6A6A",
"#X c #D61211",
"$X c #932A3C",
"%X c #856F18",
"&X c #DC1F1D",
"*X c #1E2959",
"=X c #7B7A79",
"-X c #B98D1E",
";X c #796723",
":X c #CBA01A",
">X c #CD2824",
",X c #434245",
"<X c #C5A72D",
"1X c #92791E",
"2X c #EDB216",
"3X c #746744",
"4X c #BA3D36",
"5X c #F3C11E",
"6X c #957E48",
"7X c #3D4A77",
"8X c #BD9A3F",
"9X c #703A66",
"0X c #E1362F",
"qX c #3F4146",
"wX c #080804",
"eX c #A18136",
"rX c #522E50",
"tX c #705E58",
"yX c #876C2E",
"uX c #A5463C",
"iX c #624074",
"pX c #9F8518",
"aX c #957422",
"sX c #201C08",
"dX c #544244",
"fX c #CFA920",
"gX c #A95044",
"hX c #7C2E46",
"jX c #AD9322",
"kX c #D51212",
"lX c #E7877E",
"zX c #BF9516",
"xX c #4E5050",
"cX c #443A14",
"vX c #503A6C",
"bX c #4E442C",
"nX c #876656",
"mX c #D7B52A",
"MX c #F5A397",
"NX c #9B7014",
"BX c #2E2814",
"VX c #6C4C44",
"CX c #8F6858",
"ZX c #3E3612",
"AX c #D3B12A",
"SX c #623866",
"DX c #CBA930",
"FX c #816A5C",
"GX c #8D7856",
"HX c #A9443C",
"JX c #9B5C4E",
"KX c #725654",
"LX c #465276",
"PX c #E38181",
"IX c #48507A",
"UX c #EBB7BB",
/* pixels */
"( (   ( ( ( (     (     ( ( ( ( ( ( ( (       2 , F.a a a , , a , , , a a , , a a , , , , , , , ( =X",
"(   (           i { # i                   i . ( , , , , , , 2   , , ,   ( , , (   , , , a a ,  .T.u.",
"    (     ( ( 2 . $ * 2 ( ( ( ( ( ( ( ( 2 # y -  .F.a a a  .T.X #  ., M v a a v u 2 ,   j j j T.e  .",
"( ( (   i N * * r u 4 * * * * * * * * * * - A.tX_.tXo e.N o r u * z.N r T., , . o , , z.h r r : q u.",
"        # % p c 3 X + + + + + + + $ $ $ + 1 l.CXCXnX} m.O f 3 X 3 7 t #  .6 & a a , a { : * : 8 & =X",
"        i > $ e $ X % % % % % % X X X X ].A.tXFX4X>X4XHX} O e 3 p c < { , r r 2 2 2 , 8 n l l & M u.",
"* o i   * c $ X X X % X X % % X X 1 t $ + l.k.HX0X0XN.&XgXA.7 O ; ; c u 8 # i & M . i n q y $ y f , ",
"r *   ( r g 1 ].+ X % X % % X X ].q O 1 m.k.k.kXMXlXN.N.&XVXA O O ; c X * # i 6 u j   6 $ y y X f , ",
"i   { z.# M $ w $ X X X X X X 1 3 + X E 2._.JXkXUXPX#X&X>XdX,X; ; ; c r i * 8 # # @ * n $ $ e 1 e @X",
"    * & # z 3 c $ X X X X X X w c + ].+ 9 KXOX$X).).$XhXrX' ' 8.O ; c *   & & i   * 6 z y $ 7 p q @X",
"( ( i   { w 1 $ $ $ $ $ $ $ $ $ $ $ p L W ' <.SXSX).).vXD <.d.=.8.J ; z o o o r v o o z e 1 q y 7 @X",
"( ( ( = l f p $ $ $ $ $ $ $ $ $ $ < 7 8.' ` ~ Y Y.9XiXY.Y Y Y =.>.J ; t X 4 & w c b h & $ & o * 7  .",
"= = ( = { e 1 $ $ $ $ $ $ $ $ $ $ 1 q >.&.K S S S d.S S S d.d.&.>.J O u 4 & & b > & & { { j i   r =X",
"= (     j X 1 1 3 $ 1 $ 3 1 1 $ 1 1 X / S.H H H H H 1.1.H g.8./ >.J O z h 4 6 4 h & 4 z.i j j j z.s ",
"( ( ( > X + $ O f w + p f c $ $ g g L U.*.+XjX| ,.,.D.U U Q.0.*.qXJ t > & 4 t 3 & & $ 3 @ i o 3 z r.",
"( ( ( - & + $ w 7 3 $ 1 7 e $ $ O c 9 i.H.Q +.b.R oX1XZXG.Q.0.*.] J t > h 4 y % h h M z . # { 6 & r.",
"i r o = i O g 1 + 3 c p + 1 g c L X e L.H.| wXU oXt.a. XAX`.x.*.] 3 t M 4 4 4 h $ 3 4 j @ 6 {   @ s ",
"  r o = i O g 1 + 3 c p $ 1 g 7 U.i.%.aXjXI NXy.K.oX,.(.y.`.R.*.A w < % b z b & $ 3 4 j @ l {   z.s ",
"(   ( @ * + $ w 7 3 $ 1 O 3 E u %.yXJ.w.w...2X2Xy.7.oXt.G.`.R.*.A t f + b z + > & & M M . # . : r s ",
"( ( ( : & + + O f p + 3 c e 3 :.J...h.@.@...@.h.J.:XXXR 7.Q.R.*.A c f.$ 4 b q u & h X 3 {   @ 6 & r.",
"  @ j ( # 1 ; < t e < e < e ,XW.(.w.@.@.I I I I c.fXR XXU BXx.o.] < c $ $ + % > % X M & @ 8 . # z.s ",
"i l * = i < f ; O O O O O O ; J L /.I h.C.Q Q #.| AXt.U  X0.[ ; ; ; ; p c w + 9 e < 9 4 - z z.  z.s ",
"( j i # @ $ ; ; O < < < < < < O 7 W.|.3XbXsX+.+. X+.+.cXjX,.:.] J t ; q 1 y 1 + + X + % @ @ j { * s ",
"( ( ( r l + < ; O < O O O O O e f f.A L.W.%Xn.n.n.n.n.E.K.,.:.A J t ; q + y O w % M t g z.  @ n & r.",
"= (   . o + O O < O O O O < O O 7 7 3 A o.y.Q 7.7.7.XXt.7.,.:.qXt ; ; q + + q y % % $ y { # j o * s ",
"= (   = i + < < < < < < < < < O t t J A o.#.^.P.!.XXR R R +X:.A O c ; q + 1 + % % 9 9 4 . # .   z.s ",
"( = ( ( # $ O ; O O O O O O O ; O O p i.[ U +XP.!.R mX<X<X[.l.qXf.O.7 1 w O.c M 9 7 c 6 j & $ . @ s ",
"( = ( ( i M p e p p p e w p e w 1 q C Z 9.g.C +XK.K.[.Z C C ! 8.c f ; y q f w % % < w 6 j 8 6 j z.s ",
"( ( =   6 h o - $ 7 h - - - * ;.' ' 6.K X.K X.7XLXLX7XX.d.d.T =.' / y f.q % y 7 w M % 3 M # i i z.s ",
"( ( =   n & o - q g h 8 - e.) ' 6.D T x 0 0 0 ^ *XM.^ x ^ ^ ~ ` d.<.C f w + 1 7 w % % 3 M j #   @ s ",
"( = ( ( (   N : - : - - 8 ;.I.S 5 0 0 5 5 B 5 x Z =.x IX6XGXY.x P T =./ > y + 9 % % % 6 . # #   @ s ",
"( = ( ( = ( N : - 8 - - 8 1.&.0 B 5 0 5 5 0 0 5 x Y 0 IX8X5X}.^ P Y B ! W X + 9 % % % 6 { # #   @ s ",
"( ( ( ( o @ N : 4 n : - : H &.5 X.k 5 5 5 5 5 0 ` X.P 0 ~ 8X}.x T B T ! W 9 + 9 % 9 9 6 { # j i z.s ",
"( ( = i u z z.V.X t h N l i.&.T Z ` 0 5 0 5 5 ~ *XZ Y B P Z.P ~ <.=.T ! W 9 9 > > > > & j       @ r.",
"( = ( ( { j : 4 h l h > : H $.Z 9.` 0 5 5 5 5 0 d.T P P ~ P P ~ <.9.Z ! ) u % > > X % h # # { ( { F ",
"( = (   = ( y w : N $ O.xX[ x.[.' ` 0 k 5 5 0 5 x x B ~ G B P ~ S ;.D.~.l.% % > > 7 c h i r $ j . F ",
"( = ( ( ( ( 4 z : - l L ;.o.p.U C ` ~ 5 5 5 5 0 Z =.Y P B P P P S 6 #.E.|.W M > > 1 + : # . * ( { F ",
"= ( ( = =   o - - - - 8 v.[ x.1XC ` G 5 0 G G x Z =.Y P B B P ~ S E pX~.2.].y % > xXM b j (   . z.F ",
"= ( ( = (   N : - - V.4 O H [ a.9.` 0 0 k K K K k T ` X.X.B P ~ S W '.9 % u g ; > b e 7 { ( z.$ 6 F ",
"= ( = ( (   8 : - : h r M l e.;.' D k k <.S.S.S.S.S.S.I.I.d.T k <./ L f q % w y > > + 9 j   # * * F ",
"( = ( ( ( 8 M : 8 l O n N V.9 M - ' Z $.m.7.U U U D.U ,.DX/ Z Z / n + < f e M > 1 p > : #     2 . F ",
"= ( ( ( = @ 6 : - h y l - : n 6 r 1.%.%X0.^.Q Q Q | | ,.,.a.a.|.W u % 9 ; q % > + $ > h j     ( { F ",
"= ( ( 6 l = N : - - V.- : - - - h 4 x.s.s.p.p.p.p.B.B.B.p.s.zXj.W M % 9 % % c w > > > h j   ( 2 { F ",
"= ( ( b 6 ( N - 8 8 - 8 8 8 V.: v ) x.I c.j.~.%.%.%.%.o.%.C.c.3XW M % % % % c e b b > r #   ( 2 { F ",
"( ( ( ( (   8 : - : : : : : : h v.[ /.I c.[ ) ) v.) 1.h H.C.c.'.m.) v 4 l 4 4 r b z : j       ( { _ ",
"( ( ( ( (   . { { { { { { { j q.m /.w.I @.w.m q.z.V e.6X@.C.C.s.eX{.z.z.z.z.@ j & 6 {     i   2 @ _ ",
"      e.z.                    m -X-.-.-.-X-X-.m d 3.H..X-X-X-X-X.XeXd # # # * @   i # @ i   # o * _ ",
"(     u M (                     m m } m m m m {.# # {.} m } m } m 4.T.# # j 3 z ( ( * 6 j ( @ $ 6 _ ",
"(     . {     ( ( ( ( ( ( ( (   d d d d d d d # # # # d d 3.d d d d i i # T.o .     # . i   i { o _ ",
"(     ( (     (           (   i # # # # # # # # i # # # #   # i i # # i # # i         (       2 { _ "
};
