/* XPM */
static char *result[] = {
/* columns rows colors chars-per-pixel */
"50 50 256 2 ",
"   c #626060",
".  c gray29",
"X  c #4C4A4A",
"o  c #5A5858",
"O  c #5C5A5A",
"+  c #444242",
"@  c #5E5C5C",
"#  c #605E5E",
"$  c #4A4848",
"%  c #4C4C4C",
"&  c #626262",
"*  c #585656",
"=  c #565656",
"-  c #545252",
";  c #565654",
":  c #4E4E4E",
">  c #666464",
",  c gray26",
"<  c #444444",
"1  c #484848",
"2  c #283C87",
"3  c gray32",
"4  c #424140",
"5  c #283C85",
"6  c #464644",
"7  c #565454",
"8  c #686466",
"9  c #605F5F",
"0  c #4C4C4A",
"q  c #525050",
"w  c #4A4A48",
"e  c #464444",
"r  c #444442",
"t  c #585856",
"y  c #2C3E86",
"u  c #484646",
"i  c #40403E",
"p  c #5E5D5F",
"a  c #464646",
"s  c #484846",
"d  c #817E7E",
"f  c #4E4C4B",
"g  c #5C5B5A",
"h  c #504E4E",
"j  c #525250",
"k  c #535353",
"l  c #646262",
"z  c gray33",
"x  c #2A3E8A",
"c  c #3A3938",
"v  c #50504E",
"b  c #2B3C81",
"n  c #6E6652",
"m  c #5F5D5D",
"M  c #505050",
"N  c #3F3D3D",
"B  c #2D408A",
"V  c #4E4E4C",
"C  c #666264",
"Z  c #585858",
"A  c #263B85",
"S  c #434456",
"D  c #858383",
"F  c #4C4E56",
"G  c #C4A51F",
"H  c #253982",
"J  c #24377D",
"K  c #E8A611",
"L  c #3C3C3A",
"P  c #253579",
"I  c #B59924",
"U  c #283A7C",
"Y  c #5C5C5E",
"T  c #252F61",
"R  c #464542",
"E  c #253064",
"W  c #303659",
"Q  c #595A59",
"!  c #30375E",
"~  c #22378B",
"^  c #4C4A48",
"/  c #27387C",
"(  c #E4A411",
")  c #E2BE26",
"_  c #29356D",
"`  c #48494E",
"'  c #3D405C",
"]  c #47464A",
"[  c #2A335B",
"{  c #3C3C42",
"}  c #7B703F",
"|  c #5B5747",
" . c #BB8D1A",
".. c #E6C021",
"X. c #686869",
"o. c #D6B323",
"O. c #3B3D46",
"+. c #2C3360",
"@. c #3E3F4B",
"#. c #26210C",
"$. c #B88D1E",
"%. c #213277",
"&. c #223379",
"*. c #C2A426",
"=. c #675E45",
"-. c #555756",
";. c #73683D",
":. c #645F58",
">. c #494953",
",. c #847032",
"<. c #B59617",
"1. c #CA9718",
"2. c #575551",
"3. c #373B5D",
"4. c #444240",
"5. c #888787",
"6. c #988222",
"7. c #ECC62A",
"8. c #485078",
"9. c #787676",
"0. c #515157",
"q. c #687377",
"w. c #99801F",
"e. c #D69D15",
"r. c #373B57",
"t. c #82817F",
"y. c #5CB8D3",
"u. c #4A4846",
"i. c #1C1910",
"p. c #2F4086",
"a. c #575A5E",
"s. c #796936",
"d. c #63C3E0",
"f. c #57503D",
"g. c #BFA220",
"h. c #9C7D2F",
"j. c #707D83",
"k. c #937B22",
"l. c #AE8621",
"z. c #4B4A4D",
"x. c #7D6912",
"c. c #B69B2B",
"v. c #2A3974",
"b. c #7C6E36",
"n. c #E0BB22",
"m. c #CEAD1C",
"M. c #636062",
"N. c #C5A72A",
"B. c #3E3E42",
"V. c #424449",
"C. c #AF9015",
"Z. c #897846",
"A. c #2A3E87",
"S. c #DBB822",
"D. c #C19218",
"F. c #CB9B11",
"G. c #E4A614",
"H. c #305D90",
"J. c #1D2B69",
"K. c #EBC323",
"L. c #B39510",
"P. c #6F6E6D",
"I. c #404044",
"U. c #3F4052",
"Y. c #615C48",
"T. c #283473",
"R. c #866F1B",
"E. c #4A484A",
"W. c #6D9DAB",
"Q. c #232F69",
"!. c #4D4E4B",
"~. c #6E6452",
"^. c #CFAD28",
"/. c #6B624B",
"(. c #C19016",
"). c #8F772E",
"_. c #2E4C8F",
"`. c #DEA715",
"'. c #201C0C",
"]. c #3E7398",
"[. c #8B7627",
"{. c #DFA31A",
"}. c #CEA720",
"|. c #ECA912",
" X c #C7A71E",
".X c #1E2B5F",
"XX c #E5C128",
"oX c #75868D",
"OX c #3F6B91",
"+X c #3D4A77",
"@X c #1A160E",
"#X c #5C5A58",
"$X c #504B45",
"%X c #2D3149",
"&X c #868585",
"*X c #30619C",
"=X c #7B6730",
"-X c #98721B",
";X c #A6903C",
":X c #DCA017",
">X c #62BED8",
",X c #837344",
"<X c #353433",
"1X c #4A4436",
"2X c #C7A51C",
"3X c #706348",
"4X c #D7AF1D",
"5X c #BD9A3F",
"6X c #6D919E",
"7X c #B09029",
"8X c #BA9A17",
"9X c #595854",
"0X c #336BA4",
"qX c #5D5A56",
"wX c #AF9421",
"eX c #6BAFC3",
"rX c #EDB216",
"tX c #575F71",
"yX c #56544C",
"uX c #303868",
"iX c #66787C",
"pX c #ADD9E7",
"aX c #7E6A16",
"sX c #97814E",
"dX c #2A3464",
"fX c #CFAD24",
"gX c #201C08",
"hX c #A38922",
"jX c #3E4881",
"kX c #937A42",
"lX c #443A14",
"zX c #5E6A74",
"xX c #D7B52A",
"cX c #222A54",
"vX c #303864",
"bX c #C99520",
"nX c #9F8518",
"mX c #C7A720",
"MX c #323A62",
"NX c #C7A926",
"BX c #363C62",
"VX c #605E62",
"CX c #2E2814",
"ZX c #080804",
"AX c #CBA930",
"SX c #4081A5",
"DX c #DDA320",
"FX c #8D7856",
"GX c #324E76",
"HX c #A5D3E3",
"JX c #3E3612",
"KX c #FBC11E",
"LX c #C3E7F3",
"PX c #7AC5DB",
"IX c #74CBE3",
"UX c #C9E3ED",
/* pixels */
"M.M.  M.M.M.M.    M.    M.M.M.M.M.M.M.M.      l > 8 > 8 8 > > 8 > > > 8 8 > > 8 8 > > > > > > > l 9.",
"M.  M.          9 g # 9                   9 @ M.> > > > > C l   C C C   l > > l   > C > 8 8 8 8 @ 9.",
"    M.    M.M.l @ $ * l M.M.M.M.M.M.M.M.l # $ 7 X.8 8 8 8 X.# X # X.C V - 8 8 - f l >   m m m # e 8 ",
"M.M.M.  9 Z * * 7 f 3 * * * * * * * * * * 7 7 q.j.X.o O Z o 7 f * o Z 7 # C C m o C > O z 7 7 ; w P.",
"        # % a 4 u X . . . . . . . $ $ $ . e a.oXoXj.q.Z , L u X u i r # 8 q - 8 8 > 8 @ ; * ; t - 9.",
"        9 : $ e $ X % % % % % % X X X X $ -.q.j.W.eXeXW.X.< e 1 a , < g C 7 7 l l l C t v j j - V 9.",
"* o 9   * 4 $ X X X % X X % % X X 1 r . $ a.iX6XPXIXd.>XW.a.N , , , 4 f t # 9 - V @ 9 v s w $ w L > ",
"7 *   M.7 N 1 % . X % X % % X X % s r u Q iXiXy.LXpX>Xd.d.tXN < + , 4 X * # 9 q f m   q $ w w X L > ",
"9   g o # V $ 6 $ X X X X X X 1 u . X $ k j.6Xy.UXHXy.>Xy.3 , < , , 4 7 9 * t # # O * v $ $ e 1 e P.",
"    * - # h u 4.$ X X X X X X 6 4.. % . f zXH.].OX].SXOXGX! ! @.4., 4 *   - - 9   * q h w $ 4 a 6 P.",
"  M.9   @ 6 1 $ $ $ $ $ $ $ $ $ $ $ a ^ >.MXv.H.H.*X0X_._ U U uXU.r , h o o o 7 - o o h e 1 s w i X.",
"      & j c a $ $ $ $ $ $ $ $ $ $ < i U.vX/ B x _.0X*X_.B p.B T.r.R , r X 3 k 6 4 q z k $ - o * 4 X.",
"& &   & @ e 1 $ $ $ $ $ $ $ $ $ $ 1 s r.J.J %.&.&.J P &.P U U Q.r.R R f 3 k k M : k k @ g m 9 M.7 d ",
"&       m X 1 1 u $ 1 $ u 1 1 $ 1 1 ^ S 3.S S S S S >.>.S %XU.' U.R + h z k q k z k 3 O 9 m m @ o d ",
"      : X . $ + L 6 E.a L 4 $ $ N N w V.} mXwX*.*.*.c.I I @X6.} I.e r : k 3 r u k k $ u g 9 o u h t.",
"      = k . $ 6 i u $ 1 4 e $ $ + 4.^ @.Z.G CX8X) XXk.JX^.i.6.} { R r : z 3 w % z z V h @ # g q - t.",
"9 7 o & 9 + N 1 . u 4 a . 1 i 4 ^ ^ e %XZ.G ZXI XX7.[.i.^.i.6.} O.R r V 3 3 k z u.u k m O q g   O d ",
"  7 o & 9 + N 1 E.u 4 a $ 1 i i V.@.=Xk.$.`.-X4XK.XX*.hXo.i.w.} O.6 < % M h M k $ u k m O j g   o d ",
"      O * . $ 6 i u $ 1 + u 1 $X=X,.(.e.e.K rXrX4Xo.) 7.fXi.w.} B.r N . M h . : k k V V @ # @ ; 7 d ",
"      ; - . . + L a E.u 4 e ] | (.K |.K K K ( K (.}.) ) o.i.w.} O.4.c $ 3 M s f k z ^ u g   O q - t.",
"  g m   # 1 , < r e < e < e < f.l.e.( ( G.( G.G.1.}.) S.I CXk.;.I.r , $ $ . % : % X V k g t @ # o d ",
"9 j * & 9 < L , + + + + + + , + u.l.{.|.`.G G  Xg.^.7.I '.6./.< , , , a 4.6 . 0 e < 0 3 = h #X  o d ",
"  m 9 # g $ , , + < < < < < < + 4 f.=.3X1XgX#.#.#.#.#.lXwX*.| { R r , s 1 w 1 . . X . !.O g m g * d ",
"      7 j . < , + < + + + + + + L c N { f.x.aXx.x.aXaXwXK.*.| B.R r , s . w + 6 !.V r N o   O v - t.",
"&     @ o . + + < + + + + < + + i 4 e I.} 4X Xo.S.o.) XXS.*.| B.r , , s . . s w !.!.$ w g # m o * d ",
"&     & 9 . < < < < < < < < < + r r R B.;. Xm.n...) ) ) ..NX| B.+ , , s . 1 . !.!.0 0 3 @ # @   o d ",
"  &   & # $ + , + + + + + + + , + 4.a @.=.I NXn.n.) xXN.N.7XyXI.c <X4 1 6 <X4.V 0 4 4.q m - $ @ O d ",
"  &     9 V a e a a a e 6 a e 6 1 s W E [ W W N...K.;XT ! ! dXU.4.L , w s L 6 !.!.< 6 q m t q m o d ",
"    &   q z o = $ i z = = = * 0.! ! T.H J H J +X8.8.+XH U b U uX+.' w c s % w 4 6 V !.u V # 9 9 o d ",
"    &   v k o = s i z t = 9XF ! P P A 2 A.2 2 ~ .XQ.2 2 ~ ~ x U U v.W L 6 . 1 i 6 !.!.u V m #   O d ",
"  &         Z ; = ; = = t 0.BXT.5 A.5 5 5 5 5 A.E T.x 8.sXFXjX2 p.b _ ' : w . 0 !.!.!.q @ # #   O d ",
"  &     &   Z ; = t = = #XS Q.A.5 5 5 5 5 5 5 5 x p.2 8.5XKXtX~ p.p.y dX>.^ . 0 !.!.!.q g # #   O d ",
"        o O Z ; k v ; = ; S Q.5 U A 5 5 5 5 5 5 / U B 2 2 5X8.~ p.b b dX>.w . 0 !.0 0 q g # m 9 o d ",
"    & 9 f h Q t X r z Q j @.Q.b T U 2 5 5 5 5 x cXE B y p.p.p.p.v._ b dX>.0 0 : : : : k m       O D ",
"  &     @ m ; k z j z : 9XS T E T U 2 5 5 5 5 5 b b p.y y p.p.x v.+.E dX>.!.!.: : X % z # # g M.g D ",
"  &     &   w 6 ; Z $ c : /.k.;X! J 2 A A A 5 A x B y y A.y y A.&.F c.,.yX% !.: : i 4.z 9 7 $ m @ D ",
"  &         k h ; = j u.0.} 8XwXW / A.5 5 5 5 2 E _ p.y y y p.p.&.- 2XC.Y.` V : : 1 . ; # @ * M.g D ",
"&     & &   o = = = = t k Y.k.k.W / A.5 5 A.A.x E _ B p.y y p.p.P ] nX,.yXz.w % : M V M m M.  @ o D ",
"& M.  &     Z ; = = t k 4.` /.[.[ J 2 5 A J J J H H / / J y y A.&.` ).% z.!.N , : M e i g M.o u.q D ",
"&   &       t ; = ; z 7 V j t 0.! P H A v.3.! ! 3.3.3.3.BXb b 5 v.' ^ N s !.6 w : : . 0 m   # * * D ",
"  &       t V ; t j 4.v Z ; X V = ! T J.2.S.I I I c.I c.AX' T T ' v . < L e V : 1 a : ; #     l @ D ",
"&       & g q ; = z w j = ; v q - F s.R.6.m.G G G g.*.G mX[.[.Y.>.f !.0 , s !.: . $ : z m     M.g D ",
"&     q j & Z ; = = t = ; = = = z k w.F.F.L.L.L.L.C.<.C.<.1.D.;.` V !.0 !.% 4 6 : : : z m   M.l g D ",
"&     M q   Z = t t = t t t t ; 2.F h.:XbX;.,.b.b.b.b.s.b.DX1.3X` V !.!.!.!.4 e M M : 7 #   M.l g D ",
"            t ; = ; ; ; ; ; ; z 0.=.l.( bX/.F F 0.0.F z ,XDX1.).qXM j 3 j 3 3 7 M h ; m       M.g &X",
"      & &   @ @ @ @ @ @ @ @ @ @ ~.l.e.( ( e.3XqX#X#XqXkXK {.DXe.h.:.o #Xo o O m - q @     9   l O 5.",
"      o o                   VXn $. . . . .$.$.n VXY Z. .$.$.$.$. .h.VX9 # # * O   9 # O 9   # o * &X",
"M.    f V M.                    ~.n n n n n ~.:.# VX:.n ~.~.~.n n ~.m # # m u h     * q m M.O $ q 5.",
"M.    @ g     M.M.M.M.M.M.M.  9 p p p p p p p VX# # 9 VXVXp VXVXVXVX9 9 # m o @     # @ 9   9 g o &X",
"M.    M.M.    M.          M.  9 # 9 9 9 9 9 9 9 9 9 9 9 9 9 9 9 9 # 9 9 # # 9         M.      l g 5."
};
