/* XPM */
static char *result[] = {
/* columns rows colors chars-per-pixel */
"50 50 83 1 ",
"  c black",
". c #3E3F3E",
"X c #403F3F",
"o c #79521E",
"O c #41413F",
"+ c #3F3F40",
"@ c #000B63",
"# c #3D4140",
"$ c #00477F",
"% c #444444",
"& c #494747",
"* c #474947",
"= c #494947",
"- c #464749",
"; c #494749",
": c #474949",
"> c #4C4C4C",
", c #504F4F",
"< c #4F504F",
"1 c #50504F",
"2 c #4F4F50",
"3 c #514F51",
"4 c #4F5150",
"5 c #545453",
"6 c #595757",
"7 c #575957",
"8 c #595957",
"9 c #565658",
"0 c #585658",
"q c #575959",
"w c #5E5C5D",
"e c #615E5D",
"r c #5E605F",
"t c #60605F",
"y c #5F5F60",
"u c #5E6060",
"i c #606060",
"p c #BA5100",
"a c #EA6B14",
"s c #F4741A",
"d c #DA007F",
"f c #008F39",
"g c #00913D",
"h c #008F4D",
"j c #009041",
"k c #008E51",
"l c #009E55",
"z c #009F5A",
"x c #00A362",
"c c #00AB6E",
"v c #00AD73",
"b c #00B076",
"n c #00B27C",
"m c #FF861F",
"M c #FCC600",
"N c magenta",
"B c #43C299",
"V c #CEAE81",
"C c #CFB085",
"Z c #D4B48C",
"A c #D6B88F",
"S c #C7BA9F",
"D c #D7B991",
"F c #DABB95",
"G c #83D3B7",
"H c #8CD0B4",
"J c #9FD7BF",
"K c #DEC29C",
"L c #E0C39D",
"P c #B9E0CE",
"I c #B5E3D1",
"U c #D4E3D9",
"Y c #E1E1D6",
"T c #E4EADE",
"R c #DFEAE0",
"E c #EEEDE5",
"W c #F2ECE9",
"Q c #E4F3ED",
"! c #E9F3ED",
"~ c #F4F3EF",
"^ c #EEF4F0",
"/ c #F4F4F3",
"( c gray99",
/* pixels */
"wwwwtwewwwqewwwwwewww8wwew511w>eww3ewwwwww9wwewwww",
"we8wtwwqwwwqwewwwwwwwwwwe55eee>wee390ywwwwwwww2wwe",
"wqewee8ew5ewwewewwww75w5ww1we>>w>>e5qewwwq9w>>www3",
"ewwwwqwe6w55eqqewrqq6w5e5weww>>>e>358wwwwq5wy>w>we",
"wwwr8ww655www7wwqreqw5w111>,>>,;>>3e6qe8w5w4w>-www",
"wwrwwe55ww5w56wwwwww6w1<>>>>>>e,>>3e5wwwq964>>w>ee",
"ww88w55e5w155557w88w55><>e>w>w&e>ww57wwqq665w>>>ww",
"wwq76w55<<,55w56qw754>>>>>ww>>>e>>w5578eqq555wwwwe",
"www555e,>e,e5457y55ww<>ww:>>wwr>>><5e7e808965e53w3",
"w7w5w5,,3>>5<55ww6y54ww>&w:w:w>>>><15758q8q66556y3",
"ww5w33>,w>255w66wqw542>>ww>www<w>>wew5770ww007900w",
"w>5>>2e>,ww5566qww55w4>>>>>w><<>>ew>11556wewqeeqww",
"eww;>>>w>555w6qwqeq6w4<ww<w<w<<<>>>>w<w5w6qqwwwwee",
"eww&e&>w>55556qq8yw65544wwww45<<w>>>>w>556qwwwqyee",
"w%%e%e&ew55www9qwqqq6555555wwwww>w>>>,5w56wwywwwew",
"w++%%&=>>5555w66qeeqq6       5w<ee&>e>>116qq0wwwey",
".w.%e%ww>w35e55eqewqq ggggggg 6w><>>>4>5w56qwe0wee",
"w..e%%w>>,ww3e556q0w ggggggggg 55,4>w513w6wwe0eww0",
"ww##w%:>11,555366qqq gg ggg gg 5w353>4w559699eww5e",
"wwOOw*:w11w35w556666 gg ggg gg 65w55e555556550555e",
"#w%%%&>>>>5553556565 gg     gg 655556556we5953ewww",
"ww%%-&>455,ww5e5w55 gg  pmp  gg 5e00w6e5w55553wwww",
"www-w>w3,55w51ww5w5 g pmmssss g 5e0w0q605e5232weww",
"ww->>235e5535w545w2 g paaaaaa g e9wwwqe5532222>w>w",
"ew;w33y355515<5<515 gg mmmss gf 66qww0655wwy>>eewy",
"wwweeww9w6551545<5> fff     fff 5wqqqw552>>&;weee%",
"e;yww3ww66555w55545 hlffffffjzk 66qqq0552>y>;;;;ew",
"w2ww950www655w555  /RJvxbncnBHU(  096e53>>&>w&e;;w",
"w;ww3999wq6w5666     Y!!QIGP^TS    69www>w&>;&w;>>",
"we>3ww99wqw656  @$$    WEE~~     @@  953w>y;;&>>ew",
"ww323309w6757 @@$$$@ $$      $$ $$@$$ 532>&>>;;w>e",
">>ee35309w666 @$$$$$@   @@@@   @$$$$$ wwwww;;e>ew3",
"ww>>w359e9e0 $$ $$$$$@$$$@ $@@@$$$@ @$ 5>e&e;>w>w3",
"w;w>2355wee0 $@ @$$$$$$$$@ $$$$MM$@ @$ 5>>w--wweew",
"w;w>3355959 $NN @$$$$$$$$$ $$$$MM$@ $$$ ,e;w&&wwew",
"ww;wee35e99dNddo$$$$$$$$$  $$$$M$$$@ @@ >;;-y&&>>2",
"ww;3>3050wdNdNNoo$$$$$$$$ @$$$$$$$$@ @@ &-%-ww&www",
"ww;>w3396NNN$$NNo$$$$$$$$ @$$$$$$$$$ $   -%%wy;w>2",
"ww>w>339NdN$$dNoo$$$$$$$$ @$$$$$$$$$ $   %%w%w&>>w",
"wwwww330NNNNdNoo$$$$$$$$$ $$$$$$$$$$@@   w++%w-yww",
"wwe&>>16qdNoooo@@@$$$$$$$@ $$$$$$@@@     ww%%ww;2w",
"ee%%=w5wqeoooKZ    @@@@$$@ $$$@@@   KK % w+%%ww>>2",
"ww%%w>w5ewwwu KKDZV        @@@   CFKL >w %%w%-->ew",
"wew%ew<56wwuy KKLLLKFAZZZDF   DAKLLLL &*%ewwwww23w",
"wewO%w457wwwyw   KLLLLLLLLLLLLLLLL   >>e;&ww&>223w",
"wXe%w>46wwywiiyeu                 w6w<wwy&&ewwwwew",
"wwe%:ww6qweyiiywwwwq955wy3eweewe5w6w5w1>>e>>e3w3ew",
"wew&w>5eq8wwwwuuwwwww5w5w35w9www6w5w5w5,3w2eew5eww",
"ewew;359wewwwwwwwyww095wwwwww0ww5w996w55,3,5wwweww",
"ew-ww3wwwewewewiwwwwwwwww5wwee3wwwwwwwwww5wwwwwewe"
};
