/* XPM */
static char *result[] = {
/* columns rows colors chars-per-pixel */
"50 50 256 2 ",
"   c #626060",
".  c #5E5C5C",
"X  c #4C4A4A",
"o  c #5A5858",
"O  c #5C5A5A",
"+  c gray29",
"@  c #444242",
"#  c #605E5E",
"$  c #4A4848",
"%  c #4C4C4C",
"&  c #545252",
"*  c #585656",
"=  c #444443",
"-  c #626262",
";  c #565656",
":  c gray26",
">  c #565654",
",  c #484848",
"<  c #4E4E4E",
"1  c #666464",
"2  c #4B4C4A",
"3  c #464644",
"4  c #4E4D4C",
"5  c #474646",
"6  c #283C85",
"7  c gray32",
"8  c #565454",
"9  c #444442",
"0  c #525050",
"q  c #4A4A48",
"w  c #464444",
"e  c #525250",
"r  c #585856",
"t  c #40403E",
"y  c #60605F",
"u  c #3D3B3B",
"i  c #5F5D5D",
"p  c #283C87",
"a  c #464646",
"s  c #686466",
"d  c #484846",
"f  c gray33",
"g  c #817E7E",
"h  c #585858",
"j  c #424040",
"k  c #646262",
"l  c #2D3E85",
"z  c #504E4E",
"x  c #293C88",
"c  c #2C3E87",
"v  c #5E5C60",
"b  c #858383",
"n  c #23367C",
"m  c #424240",
"M  c #5E5B5A",
"N  c #555452",
"B  c #505050",
"V  c #666264",
"C  c #233378",
"Z  c #2A3B81",
"A  c #6E6652",
"S  c #5C5C5A",
"D  c #263B85",
"F  c #E7A612",
"G  c #28387B",
"H  c #C2A424",
"J  c #2B3E89",
"K  c #3F3E3E",
"L  c #5B5A58",
"P  c #3C3D43",
"I  c #50504E",
"U  c #243881",
"Y  c #4C4A47",
"T  c #383736",
"R  c #2D4089",
"E  c #313759",
"W  c #4D4E55",
"Q  c #273060",
"!  c #222E62",
"~  c #484852",
"^  c #243989",
"/  c #C4A51D",
"(  c #696048",
")  c #7F713C",
"_  c #575854",
"`  c #283265",
"'  c #B39512",
"]  c #283571",
"[  c #4A4C53",
"{  c #283A7E",
"}  c #1E1B0D",
"|  c #6E6253",
" . c #B39724",
".. c #E1BD25",
"X. c #2A3259",
"o. c #5A534C",
"O. c #3C405D",
"+. c #BB8D1A",
"@. c #4D4B4B",
"#. c #97811F",
"$. c #444452",
"%. c #E2A412",
"&. c #2E365F",
"*. c #3F4051",
"=. c #C9A92B",
"-. c #888787",
";. c #CEAC1C",
":. c #3A3D49",
">. c #333962",
",. c #B69B24",
"<. c #DBB624",
"1. c #56504B",
"2. c #DBA114",
"3. c #EDAA11",
"4. c #C7A61D",
"5. c #25200B",
"6. c #CB971A",
"7. c #ECC62A",
"8. c #E9C223",
"9. c #485078",
"0. c #5E5947",
"q. c #7C6E36",
"w. c #BC8F1C",
"e. c #AF9218",
"r. c #95751C",
"t. c #7E6A13",
"y. c #AC8721",
"u. c #2C3771",
"i. c #9B841F",
"p. c #444240",
"a. c #505156",
"s. c #E5BB1E",
"d. c #353A5C",
"f. c #D19E1A",
"g. c #8A752A",
"h. c #5C5C60",
"j. c #16130C",
"k. c #212E69",
"l. c #444457",
"z. c #74693A",
"x. c #686464",
"c. c #3D4057",
"v. c #D3B123",
"b. c #997D29",
"n. c #626160",
"m. c #866255",
"M. c #D8B31E",
"N. c #706F6E",
"B. c #4A484A",
"V. c #E4A413",
"C. c #223270",
"Z. c #304588",
"A. c #81817E",
"S. c #5B5544",
"D. c #C59216",
"F. c #574D44",
"G. c #2E345E",
"H. c #383C56",
"J. c #BDA123",
"K. c #686666",
"L. c #5FBAD5",
"P. c #646062",
"I. c #716642",
"U. c #BA9C20",
"Y. c #524E51",
"T. c #B78C1E",
"R. c #BF9512",
"E. c #615E60",
"W. c #887546",
"Q. c #DFA31C",
"!. c #947A2A",
"~. c #322B11",
"^. c #AD9435",
"/. c #646666",
"(. c #6C5B57",
"). c #917D48",
"_. c #424449",
"`. c #60C9E5",
"'. c #444244",
"]. c #383943",
"[. c #E4BE24",
"{. c #6A6868",
"}. c #1E358E",
"|. c #2B3A75",
" X c #E5C128",
".X c #7C6621",
"XX c #48484A",
"oX c #8B6658",
"OX c #6A6668",
"+X c #D41515",
"@X c #E1BE28",
"#X c #AD433A",
"$X c #78664A",
"%X c #825749",
"&X c #2F4C93",
"*X c #A5822D",
"=X c #856F18",
"-X c #BD9A3F",
";X c #796632",
":X c #3E4047",
">X c #7B7A79",
",X c #625E5E",
"<X c #D5B32A",
"1X c #675C43",
"2X c #6F97A4",
"3X c #454F83",
"4X c #3D4A77",
"5X c #877159",
"6X c #846E30",
"7X c #633965",
"8X c #D4372E",
"9X c #453F32",
"0X c #F3C11E",
"qX c #5F5A78",
"wX c #3A688F",
"eX c #F3A397",
"rX c #346EA1",
"tX c #CB9B0A",
"yX c #1A285E",
"uX c #605E62",
"iX c #937636",
"pX c #222A54",
"aX c #74364C",
"sX c #C7A926",
"dX c #C79B0E",
"fX c #5A5846",
"gX c #786C3E",
"hX c #B58D24",
"jX c #7A5C52",
"kX c #7A6E44",
"lX c #853E54",
"zX c #545036",
"xX c #C5A728",
"cX c #877022",
"vX c #2E6AA9",
"bX c #6E6656",
"nX c #767676",
"mX c #545A5E",
"MX c #A7913C",
"NX c #305C9D",
"BX c #F1221C",
"VX c #443A14",
"CX c #767474",
"ZX c #666058",
"AX c #892C40",
"SX c #9FDDED",
"DX c #9B5C4E",
"FX c #58666A",
"GX c #7C6C34",
"HX c #A5666A",
"JX c #324E76",
"KX c #AF6C6E",
"LX c #E58F85",
"PX c #9F7E72",
"IX c #3E83A7",
"UX c #F1AFB1",
/* pixels */
"n.n.  n.n.n.n.    n.    n.n.n.n.n.n.n.n.      k 1 x.s s s 1 1 s 1 1 1 s s 1 1 s s 1 1 1 1 1 1 1 P.nX",
"n.  n.          E.M # E.                  E..   1 1 1 1 1 V k ,XV V V   P.1 1 P.  1 V 1 s s 1 K.# CX",
"    n.    n.n.k . $ * k n.n.n.n.n.n.n.n.k # + ; x.x.OXs s OX# @.# OXV 4 N s s N 4 k 1   i i i # w K.",
"n.n.n.  E.h * * 8 @.7 * * * * * * * * * * 8 & jXoX(.h O h o 8 4 * L h 8 # V V i o V 1 O N 8 8 > q N.",
"        # % 5 j d @.+ + + + + + + $ $ $ + , o.oXoXoXjXo.'.u d @.d t = E.K.0 & s s 1 s S > * > r & >X",
"        E.< $ w $ @.% % % % % % @.@.@.@.X 8 jXoX#X8XPX2X{.= w , 5 m w M V 8 8 k k k V r I e e & 4 CX",
"* o E.  * j $ @.X @.% @.@.% % @.@., = $ + o.%X#X8XBXKX`.2XmXK = : : j 4 r # E.& 4 . E.I d q $ q u 1 ",
"8 *   n.8 K , % + @.% @.% % @.@.% d @ B.o.jX%X+XeXLXHX`.`.FXK '.= : j @.* # E.0 @.i   0 $ q q X u 1 ",
"E.  M L # 4 $ 5 $ @.@.@.@.@.@., d + X XX1.oXDX+XUXSXL.L.L.W @ '.: : j 8 E.* r # # O * I $ $ w , w N.",
"    * N # z d m $ @.X @.@.X @.5 m + @.+ @.(.aXAXlXqXIXwXJXG.G.*.p.: j *   & & E.  * 0 z q $ j 5 5 N.",
"n.n.y   S 5 , $ $ $ $ $ $ $ $ $ $ $ 5 Y ~ >.|.7X7X3XrXZ.u.G |.>.c.9 : z o o o 8 N o o z w , d q t {.",
"n.n.n.- e u a $ $ $ $ $ $ $ $ $ $ w t *.>.G R l &XvXNX&XR R R ] H.3 : = X 7 & 3 j 0 f & $ & o * t {.",
"- - n.- . w , $ $ $ $ $ $ $ $ $ $ , d H.k.n C C n G G C C { G k.H.3 @ @.7 & & B < & & . M i E.n.8 >X",
"- n.n.  i @., , d $ , $ d , , $ , , X c.d.l.l.l.l.l.~ [ ~ pX*.O.c.w = z f 7 0 7 f & 7 O E.i i . L g ",
"n.n.n.< @.+ $ = u 5 B.5 u j $ $ K u q _.kX4. .J./ H ,. . .} #.) :Xw = < & 7 9 d & & $ 5 O E.o d z A.",
"n.n.n.; & + $ 5 t d $ , j w $ $ @ m Y _.W./ 5.U.@X X!.VX=.} #.kXP w = < f 7 q % f f 4 z . # M 0 N A.",
"y 8 o - y @ K , + d j 5 + , t j Y X 5 ].W.H j.U. X7.cX} <X} b.) P w = < 7 7 7 f $ 5 7 i O 0 M   O g ",
"  8 o - y @ K , B.d j 5 $ , t t _.:X;Xr.hX2.r.v.8. XxXi.v.} #.) P 3 w % B z B & $ 5 7 i O e M   L g ",
"n.  n.O * + $ 5 t d $ , = 5 XXF.;X6XD.2.f.3.3.3.M.M. X7.v.} #.kXP 9 u + B z + < & & 4 < . # . > 8 g ",
"n.n.n.> & + + = u 5 B.d j w XXS.D.F F V.F F F F D.4.....<Xj.#.) :X9 T $ 7 B d @.& f X d M ,XO 0 N A.",
"  O i n.# , : w = w w w w w '.F.y.f.F F V.%.%.V.D.;.@X<.U.~.!.gXP 9 m $ $ 2 % < % @.< & O r . # L g ",
"y e * - y w u : = = = = = = : p.Y y.%.3.Q./ 4.4.H <X7. .} #.( : : : : 5 m 3 2 % w '.% 7 ; z L   L g ",
"n.i y # O $ : : = w w w w w w = j F.1X( zX} 5.5.5.5.5.VX .J.fXP = = : d , q , 2 2 @.2 4 O O i M * g ",
"n.n.n.8 e + w : = w = = = = = = u T K ].zXt.t.t.t.t.t.e. XxXfXP = = : d 2 q @ 3 4 < = K L   O I & A.",
"- n.n.. o + = = w = = = = w = = t j 3 P gXM.4.M.<.<X@X7.<.H fXK 9 : : d 2 2 d q 4 4 $ q M # i o * g ",
"- n.  - y + w w w w w w w w w = = 9 w : z.4.;...[...@X[.[.sXfXK @ m : d 2 , 2 4 4 % % 7 . # .   L g ",
"n.- n.- # $ = : = = = = = = = : @ p.a :.( ,.sX<.s...<X=.xX^.1.:XT T j , 3 T m < % j m 0 i N $ . O g ",
"n.- n.n.y < 5 w 5 5 5 w 3 5 w 3 , d E Q Q X.E sX8.8.MX! E G.&.*.m u : q d u 3 4 4 w 3 0 i r 0 i L g ",
"n.n.-   0 N o ; $ t f ; ; ; * a.&.G.] U { U U 4X9.9.4XU { { Z u.G.O.q T d % q j 3 < 4 d < # E.E.L g ",
"n.n.-   I & o ; d t f r ; r a.&.G n 6 x p 6 6 ^ yXk.x x }.}.l G G |.E u 5 2 , t 3 4 4 d < i #   O g ",
"n.- n.n.n.  h > ; > ; ; r a.>.C Z x 6 6 6 6 6 J ` ] J 9.).5X3Xx R Z u.O.% 2 2 % 4 4 4 0 . # #   O g ",
"n.- n.n.- n.h > ; r ; ; L l.k.x 6 6 6 6 6 6 6 6 J R x 9.-X0XqX^ l l l ` ~ X 2 % 4 4 4 0 M # #   O g ",
"n.n.n.n.o O h > 7 I > ; _ $.k.c { D 6 6 6 6 6 6 G { l x c -X9.^ l l Z &.[ q + % 4 % % 0 M # i E.L g ",
"n.n.- y @.z L r @.= f h & :.` { Q G p 6 6 6 6 J pX` R l l Z.l R |.` Z ` [ 2 % < < < < & i       O b ",
"n.- n.n.S i > 7 f e f < _ l.k.! Q G p 6 6 6 6 6 { Z l l l l l R |.G.` ` [ @.4 < < @.% f # # M n.M b ",
"n.- n.n.- n.q 5 > h $ T < ( b.MXG.n x D D D 6 D J J l c c l l c C a.^.g.o.% 4 < < t m f y 8 $ i . b ",
"n.- n.n.n.n.7 z > ; e Y a.gX'  .E { c 6 6 6 6 p ` ] R l l l l R C Y.4.e.0.+ 4 < < , + > # M * n.M b ",
"- n.n.- -   o ; ; ; ; r a.( !.r.E { x 6 6 x 6 J ! ] R l c l l c C $ i.) o.% q % < B 4 B i n.  M L b ",
"- n.n.- n.  h > ; ; r 7 p.~ ( g.X.n x 6 D n U n U Z { { { l l c C ~ !.Y + 4 u : < B w t M n.L $ 0 b ",
"- n.- n.n.  r > ; > f 8 < e r f &.G D U |.d.d.d.d.d.d.d.>.Z Z 6 |.O.Y u d 4 5 q < < 2 % i   # * * b ",
"n.- n.n.n.r 4 > r e p.I h _ 2 < ; &.Q yXr <.,.,.,.,. .J.=.O.` Q O.I + w u w < < , 5 < > #     k M b ",
"- n.n.n.- O 0 > ; f q e ; > I 0 f W ;XcX#.;./ / / J.H H xXg.g.0.~ 4 4 % : d 4 < + $ < f i     n.M b ",
"- n.n.0 e - h > ; ; r ; > ; ; ; N a.b.tXdX' ' ' ' e.' e.' dXR.z.+ 4 4 % 4 % j 3 < < < f i   n.k M b ",
"- n.n.B 0 n.h ; r r ; r r r r > N W b.2.6.z.6XGXq.GXq.GX) Q.6.I.~ 4 4 4 4 4 j 5 B B < 8 #   n.k M b ",
"n.n.n.n.n.n.r > ; _ _ _ _ _ _ f a.( y.V.6.( W a.a.a.W f W.Q.6.iXo.a.e 7 e 7 7 8 B z > i       n.M -.",
"n.n.n.- -   . S S S S S S S . M | y.2.%.V.f.$XM L L L ).V.Q.Q.6.*XZXL L L L O i & 0 .     E.  k O -.",
"      o L                   uXbXT.+.+.+.+.+.T.A v h.W.w.T.T.T.T.w.*Xh.E.# # * O   E.# O E.  # o * -.",
"n.    4 4 n.                  n.A A | A A A A ,X# i ZXA | bXA A bXZXv # # i d z n.n.* 0 i n.O $ 0 -.",
"n.    . M     n.n.n.n.n.n.n.n.E.h.v v v v v v # # # # h.E.v v v h.uX# E.# i o .     # . E.  E.M o -.",
"n.    n.n.    n.          n.  y # # # # # # # # y # # # # # # # # # # E.# # E.        n.      k M -."
};
