/* XPM */
static char *result[] = {
/* columns rows colors chars-per-pixel */
"50 50 256 2 ",
"   c #626060",
".  c gray32",
"X  c #0A0C0E",
"o  c #5E5C5C",
"O  c #0A0C0C",
"+  c #5C5A5A",
"@  c #5A5858",
"#  c #605E5E",
"$  c #323232",
"%  c #343434",
"&  c #666464",
"*  c gray10",
"=  c #626262",
"-  c gray33",
";  c #505050",
":  c gray19",
">  c #3A3A3A",
",  c #565656",
"<  c #0A0E0E",
"1  c #2A2C2C",
"2  c #282C2A",
"3  c #464646",
"4  c #484848",
"5  c #585656",
"6  c #444444",
"7  c #1C1E1E",
"8  c #545252",
"9  c gray8",
"0  c #1E1E1F",
"q  c #2C2E2E",
"w  c gray26",
"e  c #282A2A",
"r  c #4A4848",
"t  c #606060",
"y  c #565454",
"u  c #4E4E4E",
"i  c #2A2E2C",
"p  c #817E7E",
"a  c #525050",
"s  c #686466",
"d  c gray18",
"f  c #646262",
"g  c #325E2C",
"h  c #06090A",
"j  c #4C4A4A",
"k  c #525250",
"l  c gray29",
"z  c #2B2C2C",
"x  c #464444",
"c  c gray22",
"v  c gray11",
"b  c #4C4C4C",
"n  c #393839",
"m  c gray36",
"M  c #181818",
"N  c gray25",
"B  c #5C5C5A",
"V  c #262728",
"C  c #565654",
"Z  c #1A1C1C",
"A  c #303232",
"S  c #3C3C3D",
"D  c #484846",
"F  c gray21",
"G  c #4A4A48",
"H  c #323234",
"J  c #121313",
"K  c #504E4E",
"L  c #3A3A3C",
"P  c #525052",
"I  c #858383",
"U  c #4C4C4A",
"Y  c #2E302F",
"T  c #666263",
"R  c #4C4E4D",
"E  c #383A3A",
"W  c #585856",
"Q  c #444646",
"!  c #4E4C4C",
"~  c #323434",
"^  c #151516",
"/  c #5A5A5A",
"(  c #3E3E3F",
")  c #282829",
"_  c #424444",
"`  c #2E5A2A",
"'  c #2A2A2A",
"]  c #1E2020",
"[  c #545452",
"{  c #4E4F50",
"}  c #363738",
"|  c #585858",
" . c #080C0C",
".. c #5D5A5B",
"X. c #605F5E",
"o. c #242626",
"O. c #444644",
"+. c #305C2A",
"@. c #2F2E30",
"#. c #323436",
"$. c #5F5E5C",
"%. c #232426",
"&. c #305D2B",
"*. c #3B3B39",
"=. c #404141",
"-. c #18191A",
";. c #6A6768",
":. c #2F5A2A",
">. c #191B1A",
",. c #42403F",
"<. c #5F5C5E",
"1. c #1C1E20",
"2. c #303032",
"3. c #424244",
"4. c #3F6937",
"5. c #33602C",
"6. c #525454",
"7. c #505252",
"8. c #242727",
"9. c #060709",
"0. c #3E4040",
"q. c #0E1010",
"w. c #262A29",
"e. c #444342",
"r. c #222323",
"t. c #50504E",
"y. c #282C2C",
"u. c #363534",
"i. c #40403E",
"p. c #605C5B",
"a. c #343233",
"s. c #395A34",
"d. c #202222",
"f. c #505052",
"g. c #484646",
"h. c #6D6D6C",
"j. c #393A38",
"k. c #444242",
"l. c #46723C",
"z. c #355A2F",
"x. c #35632D",
"c. c #464644",
"v. c #454446",
"b. c #686666",
"n. c #484A48",
"m. c #504E50",
"M. c #161216",
"N. c #0A0E0C",
"B. c #626160",
"V. c gray37",
"C. c #3A5834",
"Z. c #878684",
"A. c #3B6634",
"S. c #202424",
"D. c #484A4A",
"F. c #908270",
"G. c #3F3C3A",
"H. c #2C2E2C",
"J. c #B5B1AC",
"K. c #383636",
"L. c #403E3E",
"P. c #1F2020",
"I. c #767675",
"U. c #646062",
"Y. c #9C9C9D",
"T. c #2C3C28",
"R. c #BFB8B0",
"E. c #3C3E3E",
"W. c #838282",
"Q. c #9E9284",
"!. c #898787",
"~. c #426D3A",
"^. c #7B7B79",
"/. c #1F321E",
"(. c gray53",
"). c #406D37",
"_. c #737172",
"`. c #545456",
"'. c #4B7740",
"]. c #2C2C2D",
"[. c #4E594D",
"{. c #81817E",
"}. c #486442",
"|. c #8F8C87",
" X c #2E582A",
".X c #26282A",
"XX c #406A38",
"oX c #0D0E0E",
"OX c #36602E",
"+X c #656463",
"@X c #464648",
"#X c #3A383A",
"$X c #446F3B",
"%X c #385634",
"&X c black",
"*X c #396631",
"=X c #5A5A58",
"-X c #999797",
";X c #496743",
":X c #CBCAC8",
">X c #55524E",
",X c #0E1710",
"<X c #243921",
"1X c #625E60",
"2X c #C1BDB7",
"3X c #253426",
"4X c #18201B",
"5X c #2C5028",
"6X c #545255",
"7X c #625E5E",
"8X c #5D5D5C",
"9X c #5C564D",
"0X c #3D5C37",
"qX c #3E6736",
"wX c #B9B2AB",
"eX c #4C4A48",
"rX c #C1C0BE",
"tX c #2C2F2F",
"yX c #2B4528",
"uX c #A4A3A2",
"iX c #343438",
"pX c #D3D2D2",
"aX c #97897A",
"sX c #BBB7B3",
"dX c #646260",
"fX c #6A6A6A",
"gX c #464848",
"hX c #020008",
"jX c #141A16",
"kX c #605850",
"lX c #3C6038",
"zX c #BFBBB9",
"xX c #4C524C",
"cX c #224020",
"vX c #CBC5BF",
"bX c #B9B5B1",
"nX c #B5ADA5",
"mX c #2E322C",
"MX c #504E4C",
"NX c #3E583A",
"BX c #121E14",
"VX c #4C6A46",
"CX c #938D83",
"ZX c #223C1E",
"AX c #6C665E",
"SX c #857868",
"DX c #6C6258",
"FX c #464846",
"GX c #A9A7A7",
"HX c #4E4A42",
"JX c #303230",
"KX c #AB9D8B",
"LX c #5E5E60",
"PX c #958776",
"IX c #9B8F81",
"UX c #485046",
/* pixels */
"B.B.  B.B.B.B.    B.    B.B.B.B.B.B.B.B.      T & s & s s & & s & & & s s & & s s & & & & & & & U.I.",
"B.  B.          X...# X.                  X...  & & & & & & T 7X& & &   U.& & U.1X& & & s s & b.# _.",
"    B.    B.B.f o r 5 f   B.B.B.B.B.B.  B.# eX5 b.s s s s ;.# eX# ;.T ! 8 & & 8 j T &   $.$.$.# x b.",
"B.B.B.  X.| 5 5 y MXy + @ @ @ @ @ @ @ @ @ @ K y o ....m + + @ K @ ..+ @ B.s b.  ..& & / [ y y C D _.",
"        # b 3 ,.4 =.> > > > > > > > > > > *.S > #X#X#X> u.: n S n a.F b - e.6 P ..& & B C 5 C W 8 ^.",
"        X.u r 3 4 e 0.=.=.0.w w =.w $ ) ' e ' ' e V M J o.=.E.( 0.( ( 0.=.( 0.L : ;.& W t.k k 8 ! I.",
"5 @ X.  5 ,.j w : ( , , | b 4 n.4 4 S F F $ : % F a.0 ^ $ / , , | , , , | , , [ n z @ k D G r G *.+X",
"y 5   B.y L.j S n 6.R D.U E Y : : @.: $ $ G.3 ( : Y Z ^ e 3 3._ Q 3._ 6 Q 3.3 { - Z y [ D G G j *.+X",
"X.  ..@ X.R j n > 6.4 q 1 Y u.% % a.~ H n SX2XW.e 2 >.* 9  .X O X O O X < h 0 . . P.! . D r x 4 x h.",
"1X  5 8 # { G u.> C 3 d.e : u.% u.a.% % j.F.KXAX8.2 * * 9  .O O O O O O < h 0 . - ] 4 a r r ,.3 c.h.",
"B.B.t   B x j > L ; V.(.E e $ u.u.a.% % F >XkXe.tXY * * 9 O < X < X X < < h 1.. - ] u a 6 4 D G ,.;.",
"B.B.B.= k j.4 > E b & wX=.o.tX% a.2.$ a.$ q ].2.~ : >.* 9 O O O < X O O < h 7 ; ; 0 l C r 8 @ 5 ,.;.",
"= = B.= m x j > > ; p.PX*.w.JXF % a.a.% ~ % % u.~ : * * 9 O X O < X O O < h 1.. - ] r # + $.X.B.y ^.",
"= B.B.t o l j > S u h.:XQ %.y.d % H % u.% a.% u.% $ v * 9 O X X N.O X X < h 1.. - P.4 o # $.$.o @ p ",
"B.B.B.u j l j K.E - ; l tXHXCXY.n $ H % % a.Y tXtX1 >.* 9 O X O < O O X < h 1.. 6.P.L.r + X.@ g.K {.",
"B.B.B., 8 l j n n - _ Z S.DXQ._.c A $ H a.q 2 2 2 w.* * 9  .O O X X O O X h 7 ; 7.P.e.a o # ..a 8 {.",
"t y @ = X.w ,.> n . 4 Y V 9XkX8.$ : : A : e e 1 2 w.* * 9  .X O X O O O < h 7 ; . 0 4 X./ a ..  + p ",
"t y @ = X.w ,.> E - 4 2 1 e Y c n > A i 1 2 1 i 1 e >.* 9 O X X < O X X < h 1.. . 0 4 t + k ..  @ p ",
"B.  B.+ 5 l j n n `.Q 7 e i 8.E uXrXm 7 tX: $ % a.: * * 9 O X O N.X O O <  .] . . P.e.a o # o C y p ",
"B.B.B.C 8 l b K.} - 6 Z e o.n.|.Q.zXGXfXd $ a.% a.: * -.9  .X O X X O O oX9.Z ; 7.P.,.r ..7X..a 8 {.",
"t + o B.V.g.x K.n - 6 Z 2 d.X.R.F.J.pX-Xd $ $ % a.: * -.9  .X O X O O X  .,X3Xf.. 0 6 , + W o V.@ p ",
"X.k 5 = X.6 L.% E `.Q Z 1 S.8XbXIXnX:X-X@.H a.% ~ : * * 9 O X X N.X O < q.cXlX; - 0 e.y y K =X  @ p ",
"B.o X.# + r x u.> , Q 7 1 S.B 2XsXaXwXY.H.% H u.% : v * 9 O X X N.< < q.5X5.C.P - P.=.K + + $...5 p ",
"B.B.B.y k l 3 u.> , Q 7 ].S.B.vXbXF.R.uXd ~ a.u.% : * * 9 O X O < h q.0XOX*X;Xf.- P.n ,.@   + t.8 {.",
"= B.B.o @ l 3 u.c 6._ Z e V 0.^.J.nX|.LX: A $ a.$ : >.-.9  .X < h jXyX4.5.A.VX{ 7.0 i.U + # $.@ 5 p ",
"= B.t = X.r 3 u.> , 3 d.2 i o.~ Z.Y.- o.F $ a.u.% : * * 9 O < O ,XyXl.&.g *X}.P - 0 e.- ..# o   @ p ",
"B.= B.dXV.4 x % > - D.i i 2 i q H.z 2.} % a.a.u.% : v * 9 O < 9.ZXx.:.5.5.&.0XP - 7 > 8 o 8 r o + p ",
"B.= B.B.X.! r c E - n.q 1 2 1 i q $ % % H $ a.% ~ : * * 9 O <  .ZXx.&.g &.A.VXf.- 7 S [ $.W a $.@ p ",
"B.B.= t a [ B O.n . 6 ] e e 2 2 2 : $ a.$ 2.$ a.$ : >.-.9 O < hX/.OX:.&.g g 0X{ f.7 6 G MX# X.X.@ p ",
"B.B.= t t.8 B O.L { / I.} w.1 y.2 : $ a.$ A $ ~ a.: * -.9 h X 3X5X+.z.&.g ` %X; . 0 e.G ! $.#   + p ",
"B.= B.B.B.t B O.E.u h.pXFXo.q i q $ % u.% a.a.u.% : v -.>.BX4X4.$X5.g g 5.&.s.. - 0 e.- o # #   + p ",
"B.= B.B.= B.+ O.S R fXrX_ o.i i a.$ a.% a.$ a.% a.: v M./.5.:.:.XXXX+.g g &.C.; . 0 e.8 ..# #   + p ",
"B.B.B.B.@ / B O.> R p.IX*.8.1 1 a.A $ a.$ A $ a.a.: Z M./.g :.:.qXl.XX+.+.:.%X{ f.7 e.8 ..# $.X.@ p ",
"B.B.= t U K 8Xc.> . U G.Y 2 1 1 q ].q Y q H.H.Y q z Z ^ 3X$XXXg 4.'.l.~.OX:.C.; . 0 6 C $.      + W.",
"B.= B.B.B m | w S , _ J P.w.q i i y.1 i 2 2 2 1 y.e Z M.T.'.XX5.*X~.XX~.x.+.s.P - 0 w 5 # # ..B...I ",
"B.= B.B.= B.! F > - 4 %.r.o.e e e w.w.2 1 2 1 i 1 e v M.T.l.:.OXx.z.s.z.s.z.NXP - 7 > C X.y r $.o I ",
"B.= B.B.B.t C L.% b ; ; - @.^ * -.-.-.d.i e 2 1 1 e Z M.T.l.+.$X'.;Xm.; [ t.; ; . 0 =.W # o 5 B...I ",
"= B.B.= = t m 3 % 4 l 7.7.@Xe.6 v.0 J M * v 7 7 d.2 v ^ mX[.UX[.[.xXu ; ; { { ; . 0 6 . $.B.  o @ I ",
"= B.B.= B.t B O.F n.D u . . - , - > a.} a.M 9 ^ ^ 7 M J ].`.m.f.P P . . . ; ; . - P.*.e.+ B.@ r a I ",
"= B.= B.B.t / 3 : v.D D u { . . - , , / , : ].@.H.z d z S , . 6., u gX{ . ; ; P - ] =.MXo   # 5 5 I ",
"B.= B.B.B.5 t.3 o.#X3 3 c.l ; ; 3 =.=.3.w _ 6 3 v.6 v.@X3 w w 3.3 E.H e.u u { ; . 0 v.W $.    f o I ",
"= B.B.B.= + [ 3 V H n 4 D v.R Q ) $ @.Y : : : : : q ].].].].].d ' ] H #.6 R ; ; . ] v., $.    B...I ",
"= B.B.a k B.B c.V iX#.L E N . D.0.+ y , , , , , , ; u K K K u ; G r.iXH E L w P , v 6 , $.  B.f ..I ",
"= B.B.; a B./ 4 7 V } iX#.L E.d.> 5 . 8 8 8 8 8 . ! U U U U U b 4 * 7 #.iX2.S - 0.e 4 , $.  B.f ..I ",
"B.B.B.B.B.t W , l M .X.XV .X* &X} | a . . . . . . . k k k k a . ; oX&Xo.) o.tXL $ [ - o       B...Z.",
"B.B.B.dXdX  o m m 4 x 3 x 3 3 6 . + @ @ @ @ @ @ @ @ @ @ @ @ @ =X@ g.w 6 6 6 x 3 r a m t   X.  f + (.",
"      @ @         & & & & & & &   # # # # # # # # # # # # # # # # dXf f f f + # B.X.# + X.  # @ 5 (.",
"B.    ! ! B.      t X.1XX.t X.# # # # # # # # # # # # # # # # # # # <.<.$.o g.MX  B.5 a $.B.+ r a (.",
"B.    o ..    B.B.B.B.B.B.B.  t # # X.X.X.X.X.X.X.X.X.X.X.X.X.X.X.X.# X.# <.@ o     # o X.  X...@ (.",
"B.    B.B.    B.          B.  t # # X.# # # # # # # # # # # # # # # # X.# # X.        B.      +X..(."
};
