/* XPM */
static char *result[] = {
/* columns rows colors chars-per-pixel */
"50 50 108 2 ",
"   c #040505",
".  c #0D0D0D",
"X  c #0E100E",
"o  c #0D0E10",
"O  c #0D1111",
"+  c #131313",
"@  c #131518",
"#  c #1C1C1C",
"$  c #20201F",
"%  c #201F20",
"&  c #242424",
"*  c #292624",
"=  c #272927",
"-  c #262728",
";  c #282728",
":  c #272929",
">  c #2C2C2C",
",  c #302E2E",
"<  c #2E312E",
"1  c #32312E",
"2  c #2E2E30",
"3  c #302E30",
"4  c #2E3030",
"5  c #323232",
"6  c #383533",
"7  c #393B37",
"8  c #373738",
"9  c #373839",
"0  c #3A3A3B",
"q  c #403831",
"w  c #493F36",
"e  c #403F3F",
"r  c #3E403F",
"t  c #41413F",
"y  c #3F3F40",
"u  c #3D4140",
"i  c #434343",
"p  c #494747",
"a  c #474947",
"s  c #464649",
"d  c #494749",
"f  c #474949",
"g  c #4C4C4C",
"h  c #504A44",
"j  c #504F4F",
"k  c #4F504F",
"l  c #50504F",
"z  c #5C5248",
"x  c #4F4F50",
"c  c #514F50",
"v  c #4F5151",
"b  c #545454",
"n  c #595757",
"m  c #575957",
"M  c #595957",
"N  c #565658",
"B  c #595659",
"V  c #575959",
"C  c #5E5C5D",
"Z  c #685B4D",
"A  c #615E5D",
"S  c #5E605F",
"D  c #6E6357",
"F  c #60605F",
"G  c #746454",
"H  c #5E6060",
"J  c #626262",
"K  c #6D6D6E",
"L  c #7D7267",
"P  c #6F7171",
"I  c #757778",
"U  c #77797A",
"Y  c #7C7C7C",
"T  c #9C846C",
"R  c #9D8771",
"E  c #9F8974",
"W  c #A78E77",
"Q  c #A38D7A",
"!  c #858686",
"~  c #8B8580",
"^  c #988D82",
"/  c #9E9187",
"(  c #9A9A9C",
")  c #A4988E",
"_  c #AE9D8D",
"`  c #AFA59B",
"'  c #B2A193",
"]  c #A1A2A3",
"[  c #A5A8AA",
"{  c #ACADAE",
"}  c #B4AEA8",
"|  c #BDB1A5",
" . c #AFB1B4",
".. c #BBBCBD",
"X. c #CABBAE",
"o. c #D7BEA6",
"O. c #C7BCB1",
"+. c #CEC5BC",
"@. c #DDD7D4",
"#. c #DCDBDB",
"$. c #E6DACE",
"%. c #E1D7D0",
"&. c #E2DBD5",
"*. c #E3E1DE",
"=. c #E8E1DC",
"-. c #E6E6E5",
";. c #EDECEB",
":. c #F0EEEC",
/* pixels */
"C C C C F C A C C A N C A C C C C A H C C M C C C A b b l A g C C C c A C C C C C C N A C C C C C C ",
"C A M C A C C V C A C m A C C C C C C C C C A C A b l C A A g C A A c N V C C C C A C C C C g C C C ",
"C V A C A A M A A b C A C A C C H C C C m b C b C C b C A g g A g g C b V A C A C V N C x g C C C c ",
"A C C C C V C A b C b b C B V A C V C m b C b C l A C C A g g d A g c b B A V C C V b C C g C d C C ",
"C C S C V C C b b b C C C M C C M C C V A b A b x c g x g g g g g c c A b m A M V B A x C g g C C C ",
"C M S C A A b b C C b C b b A C C C C A b C l k g g g g g g A h g g j A m C C C V N b b g g C g A C ",
"C C M M A b b A b C j b b b b M C V V C b b g g g A g C g C g C g A C b b C C V V B b b C g g g C C ",
"C S C V b C b b v k j b b C b m m C M b b g g g g g A C g g g C g g C b b m M C V B b b b C C A A C ",
"C A C m b b A c j A l C l b b b A N b C C k g S C a g g C C C g g g l l F M C M V M B b b C b c C c ",
"C b C b C b j g g j g b b b b C C b C b v C C f d C f C f C g k g g k l l m m M V V B n b n b N C B ",
"C C b C c j x x C g b k b C b b A N C b b g f g C C g C C M k C g g C C A m b M n A A B V V V B B C ",
"A c c g j g C g j C C b b n V C A C m b C k k g g g g C k k k g g C C g l l b b b A A A V A A V A C ",
"C C C d g g g A g b b b C b V V V A m b C l k C C k C k C k k g p g g g C l C b A B V C C C C C A A ",
"A C C p A d d A g c b b b n b + + + + + + + + + + + + + + + + + + + + + d A g b b b V V V C C C A A ",
"C i i A i A p A C v b C A B + + + + + + + + + + + + + + @ # @ # # # # + + d c C b N A A C C C C A C ",
"C e e i i p p g j b b b b + g b b b b b b b b b b l b b b b b b b b b V m + g j b b b C B C C C C C ",
"0 A 0 i C i C C g C j b + g b b b b b b b b b b b b b b b b b b b b b b b m + j C b n V C C B C A A ",
"A 0 t A i i C g j j A C + j V , 3 8 5 8 5 8 8 5 5 6 8 8 5 8 5 8 & @ & i b b + c C b A A A B A A C B ",
"A A u u C a a g g l j b + j V > 2 > & > 5 4 < 5 5 2 : > > > 1 5 > > & 5 S i + b b b b B B A C C N C ",
"C C r i A i a C j l C b + g V ; > ( ` z : 5 5 > > < > > > 5 5 3 4 & ! ] g i + b b n b N b N b b c A ",
"u C i i i d g g l g b b + g V ; > / o.Z + 5 5 > & 5 5 5 - 5 5 5 5 - L ^ x i + b A C N b b b C A C C ",
"C C i s p d g k l b j C + b V > > q w 1 : 5 5 > = 5 5 & G * > 5 5 + ~ } p i + n C b b b c c C A C C ",
"C C C s C g C b j b b C + g M 5 > & @ - 8 5 5 > > > $ D +.{ i > 5 # g P b i + n b C b c c x C C C C ",
"C C s g g x x c A b b j + c b 0 5 5 8 5 3 5 3 5 2 0 ( W | $.b : 5 4 @ & C i + b b c c x x x g C g C ",
"C C d C c c C N b b b b + g C , > 5 5 2 > > < 5 2 0 { O.X.G 6 > 5 , > 0 C i + b b C C C g g A A C C ",
"C C C C C C C N A b b b + j V & & 4 5 > * = < 5 5 3 % [  .- - 5 5 5 : 7 C i + b v g g g d C A A A d ",
"C x C C C c C A B n b b + c V > & 5 5 > > > 5 > > : > # + 5 5 > > 5 # > C u + v g g C d d d d d C A ",
"C x C C N c N C A A b b + g n 5 > 5 4 > > < > 5 C b N > 4 5 4 > & ; & 8 C i + b g g g d C d A d g C ",
"C d C C c N N B A B b C + j b 5 > 5 5 5 5 > 4 K ;.;.#.b 2 > 6 > : > @ > C i + C g C g d d p C d g d ",
"C A g x C C N B A V A n + g V 8 > 5 5 5 > > I &.Q #.E *.x 5 5 3 4 < # > C i + b C g C g p p g g C C ",
"C C g x c N b B A b b n + j n 7 5 3 , 5 & I &.T _ #.Q Q -.g > 5 5 1 > 0 V i + b g g d d d g d C g A ",
"g g C A c c b B V C n V + g B 7 > > > 1 & P :.#.#.#.#.#.-.0 & 5 5 5 , i V i + C A C C d d A g A C c ",
"C C g g C c b N A N C b + g B 9 > > : > & U =.R ' #.Q Q ;.a & 5 5 5 > 8 C i + b g C g C d g C g A c ",
"C d C g x x b b A C C N + c B 9 5 > > > > 5 Y %.Q #.R -.g 5 5 5 5 # ! ] d i + b v d A s s C C C C C ",
"C d C d x c b b N b B B + g n 7 2 5 2 > > > 5 U :.:.@.g > < 5 < 5 $ ( ..i i + c g A d C s p A C A A ",
"C A d C C A b b C B B B + c B > > 5 5 > > 5 > 6 K J J & 1 5 5 6 > O L ) g i + b g p p s C p d g g c ",
"C A d d c c c B m C C C + x V > & 1 5 > > 5 5 3 & & & 1 > = & & # O $ h C i + g s s s i C C g C C C ",
"C C d c C c c N V m C C + c n 5 > > > 5 5 5 3 > > > $ & $ @ + @ X .   & F t + d s i i i A C p C g x ",
"C C d C g c b N B C C C + g n i i i 8 > > & # # @ + O . + X . . ; 8 5 i C i + C i i i C i C d g c C ",
"A C A C C c c N C V C A + j b V b C g 7 8 8 5 8 > > > > > > * > g C C b j 0 + a i C y i i C s C C C ",
"C A A p g g l n B C C C @ g b b b s b C V C V V B c b c c x c V m b b g r > + i C C C e i C C g g C ",
"C A i i p C b C V C H H @ g b b s 5 9 i i i u 9 9 0 9 0 0 0 0 y g b b i 7 4 + i C C i y i C V x g c ",
"C A i i C g C b A C C C + c j i 9 9 # . . . . . o o o . o o o   r m u 5 9 > + C i i i C i s d x C C ",
"C C A i C A l b M V C H + p 0 5 5 3 & # % % # % % % # % # % # # 0 i 8 5 5 & + a s A C C A C C x c C ",
"A A C e a C v b V C C C # . a 9 5 % y V b C c C C b C C b b b b > > 9 5 : + # C s p A A d d x x c C ",
"C e A i C g v b A C C H J # + + + s V V b b b C C C C b c N C b b 5 @ + + & C C A p p A C A C C C C ",
"A C A i a C C b V C C C C J C H C C V V N b b C C c C C C C C C b C b A b C j g g C j g C c A c C C ",
"C C A p C g b C V C A C C A H H C H C C C b C b A c c C c C A A b A b C b C k b c C c C C C c A C C ",
"C C A C d c b N A C C C C C C C C C C C B B b A C C C C C b A A N A b N b C c c c b c c A A C A C C ",
"C C d C C c A C C C C C J C C J C C C C C C A C C c C C C C B C C A A C A C C C C b A A C C C A C A "
};
