/* XPM */
static char *result[] = {
/* columns rows colors chars-per-pixel */
"50 50 256 2 ",
"   c #626060",
".  c gray33",
"X  c #2A2C2C",
"o  c #5E5C5C",
"O  c gray32",
"+  c #5C5A5A",
"@  c #5A5858",
"#  c #605E5E",
"$  c #323232",
"%  c #343434",
"&  c #666464",
"*  c #282C2A",
"=  c #626262",
"-  c #484848",
";  c #3A3A3A",
":  c #505050",
">  c #2C2E2E",
",  c #444444",
"<  c #2A2E2C",
"1  c gray19",
"2  c #565656",
"3  c #464646",
"4  c #585656",
"5  c #4E4E4E",
"6  c gray26",
"7  c #181818",
"8  c #545252",
"9  c #282A2A",
"0  c #4A4848",
"q  c #323234",
"w  c #606060",
"e  c #2E3030",
"r  c #565454",
"t  c gray25",
"y  c #1C1E1E",
"u  c gray29",
"i  c #525050",
"p  c #817E7E",
"a  c #686466",
"s  c gray21",
"d  c #646262",
"f  c #3E3E3E",
"g  c #1E2020",
"h  c #585858",
"j  c #525250",
"k  c #1A1C1C",
"l  c #4C4A4A",
"z  c #1E1E20",
"x  c #565654",
"c  c #464444",
"v  c gray22",
"b  c gray18",
"n  c #4A4A48",
"m  c #323434",
"M  c #303232",
"N  c #1B1C1D",
"B  c #202222",
"V  c #858383",
"C  c #2C2C2C",
"Z  c #303032",
"A  c #484846",
"S  c #5C5C5A",
"D  c #2A2A2A",
"F  c #4C4C4C",
"G  c #4C4C4A",
"H  c #262A28",
"J  c #262828",
"K  c #666264",
"L  c #232523",
"P  c #4E4C4C",
"I  c #504E4E",
"U  c #505252",
"Y  c #252628",
"T  c #212222",
"R  c #5A5A59",
"E  c #282C2B",
"W  c #3A3A3C",
"Q  c #272829",
"!  c #605F5F",
"~  c #5F5C5E",
"^  c #676666",
"/  c #505052",
"(  c #464848",
")  c gray36",
"_  c #414040",
"`  c #2C2D2D",
"'  c #373A39",
"]  c #545452",
"[  c #585856",
"{  c #5E5E5D",
"}  c #444644",
"|  c #3C3C3C",
" . c #303130",
".. c #373637",
"X. c #2C302E",
"o. c #343436",
"O. c #3A3839",
"+. c #4C4C4D",
"@. c #3E3F3F",
"#. c #212424",
"$. c #181A1A",
"%. c #1E1E1E",
"&. c #434343",
"*. c #474646",
"=. c #222626",
"-. c #40403E",
";. c #50504E",
":. c #CAC9C7",
">. c #696868",
",. c gray53",
"<. c #424244",
"1. c #38383A",
"2. c #242626",
"3. c #323634",
"4. c #626160",
"5. c #343635",
"6. c #2E2E2F",
"7. c #484A4A",
"8. c #151616",
"9. c #C6C6C4",
"0. c #262A2A",
"q. c #3C3D3D",
"w. c #5E5A5A",
"e. c #C3C1C0",
"r. c #28282A",
"t. c #323436",
"y. c #5E5E5C",
"u. c #CDCCCC",
"i. c #5C5A5C",
"p. c #444242",
"a. c #525052",
"s. c #525254",
"d. c #404242",
"f. c #454446",
"g. c #444646",
"h. c #81817E",
"j. c #3E3E40",
"k. c #343234",
"l. c #4E4E4C",
"z. c #CECDCD",
"x. c #313333",
"c. c #202021",
"v. c #625E5F",
"b. c #464644",
"n. c #242426",
"m. c #202422",
"M. c #403E3E",
"N. c gray82",
"B. c #6A6667",
"V. c #938472",
"C. c #3A3A38",
"Z. c #ABACAD",
"A. c #4E4E50",
"S. c gray10",
"D. c #B3ACA6",
"F. c #767675",
"G. c #D9D6D5",
"H. c #A79888",
"J. c #646062",
"K. c #AEA69D",
"L. c #B7B1A8",
"P. c #BDBBBA",
"I. c #363638",
"U. c #6E6D6C",
"Y. c #4C4A46",
"T. c #A09280",
"R. c #7C7B7A",
"E. c #898787",
"W. c #363434",
"Q. c #3A3B3C",
"!. c #525454",
"~. c #1E2220",
"^. c #AEADAC",
"/. c #BDB7B1",
"(. c #9D9285",
"). c #5E5C58",
"_. c #4C4E4E",
"`. c #3C3A3A",
"'. c #6A6A6A",
"]. c #545456",
"[. c #C5C3C3",
"{. c black",
"}. c #4E5050",
"|. c #838282",
" X c #D0CFCD",
".X c #CBC9C9",
"XX c #988B7A",
"oX c #A9A7A7",
"OX c #565450",
"+X c #737171",
"@X c #A09385",
"#X c #A3A3A2",
"$X c gray52",
"%X c #D5D3D2",
"&X c #3F3B36",
"*X c #646464",
"=X c #9D9C9A",
"-X c #B6ADA2",
";X c #2A2E2E",
":X c #484A48",
">X c #A89D90",
",X c #656462",
"<X c #60584E",
"1X c #B9B9B9",
"2X c #6E6E70",
"3X c #D5D5D3",
"4X c #C1BFBD",
"5X c #D7D7D7",
"6X c #101212",
"7X c #3A3C3E",
"8X c #CBC7C3",
"9X c #B1AFAF",
"0X c #979795",
"qX c #A3978B",
"wX c #605C56",
"eX c #2E2E2C",
"rX c #B9B3AB",
"tX c #2E3230",
"yX c #464642",
"uX c #837668",
"iX c #443E38",
"pX c #A19587",
"aX c #B7B7B7",
"sX c #3A3632",
"dX c #ABA195",
"fX c #5A5A5C",
"gX c #C5C3BF",
"hX c #998D7C",
"jX c #101012",
"kX c #504E48",
"lX c #646664",
"zX c #545254",
"xX c #645C54",
"cX c #939393",
"vX c #AB9F93",
"bX c #2C2A28",
"nX c #C3BDB7",
"mX c #48443E",
"MX c #4A4A4C",
"NX c #565456",
"BX c #B9B7B5",
"VX c #918D89",
"CX c #A5A3A5",
"ZX c #58544E",
"AX c #1C2020",
"SX c #2C2E30",
"DX c #93877A",
"FX c #545654",
"GX c #5A5856",
"HX c #8F8170",
"JX c #626464",
"KX c #AFAFB1",
"LX c #0E0E0E",
"PX c #161A1A",
"IX c #B7B5B5",
"UX c #DDDDDB",
/* pixels */
"4.4.  4.4.4.4.    4.    4.4.4.4.4.4.4.4.      d & a & a a & & a & & & a a & & a a & & & & & & & J.F.",
"4.  4.          ! + # !                   ! +   & & & & & K d v.K K K   J.& & J.  & K & a a & B.! +X",
"    4.    4.4.d o 0 4 d   4.4.4.4.4.4.  4.# l 4 B.a a a a B.# l # B.K P 8 & & 8 l d &   ~ ~ ~ # c ^ ",
"4.4.4.  ! h 4 4 r l.r + R R R R R R R R R @ I r o i.i.i.+ + @ I @ + + @ 4.a B.  + K & + ] r r x A +X",
"        # F *._ - _ ; ; ; ; ; ; ; ; ; ; ; Q.| ; ; ; ; ; 5.1 O.| O.$ s +.zX&., a.i.& & S x 4 x [ 8 R.",
"        ! 5 0 *.- 9 t t t f t t t f f t j.f f t j.f j.t t @.@.@.t f f t d.f t Q.1 B.K [ ;.j j 8 P F.",
"4 GX!   4 _ l 6 1 f 2 4 2 . h h h . . h 2 . . h 2 . 2 h h FX. 2 h . . 2 4 . NX] O.X @ j A n 0 n `.*X",
"r 4   4.r M.l | O.!.+.7.u 3 ( ( ( f.f.- - ( - u - ( - 7.u - - - u ( - - u 3 ( 5 . N r ] A n n l C.,X",
"!   + R # +.l v ; !.- ;X;XT N y y N N #.< E X < X E X < < E E X X E E E > c.9 O O c.P O A 0 c - c U.",
"    4 8 # 5 n % ; x 3 B X 6.1 1 1 6.6.M x. .$ e E E E X X E X X < X < > > ~.9 O . z - i 0 0 _ *.*.U.",
"4.4.w   S c l ; Q.: { ,.5.0.m W.o.% 5.s 5.$ % m e e  .M M  .e < < 0.=.#.X B 9 O . z 5 i , - A n _ >.",
"4.4.4.= j C.- Q.; _.& rXwX$ X k.$ Z 1 e e Z $ k.$ $ $ q k.x.$ X 0.5.kXw ' y r.: : y u x 0 8 @ 4 _ >.",
"= = 4.= ) c l ; Q./ ).XXH.ZX0.s % $ q.3 6 % $ % $ $ $ % % x.M > =.Y.H.8XU PXX O . z 0 # + ~ ! 4.r R.",
"= 4.4.w { u l ; | 5 '. XG.>.2.....J V N.IXtXJ x.% $ % s x.X X > AXmXT.T.yXN D O . z - o v.~ ~ o R p ",
"4.4.4.5 l u l ..; . 5 MX_.s > W.$ xXDX>XqX#X( J e > > X.> E E < B L &XsX .g r.O . c.M.0 + ! @ A I h.",
"4.4.4.2 8 u l O.v . , $.$.#.e % x.uX>X-XK.p q.J E 9 9 > e 6.6.e X =.B B E =.6.: U z &.i o # + i 8 h.",
"w r R = ! 6 _ ; 1.O - > X.E 6.q > <XVXZ.=X0.=.< E 9 E e $ x.x.$ % m 5.s X.H 5.: O y - ! + i +   + p ",
"w r R = ! 6 _ ; ; . - E X 9 e  .y k =.E E < X < X E X X e m $ $ % x.$ $ 6.H 5.U s.z - w + j +   R p ",
"4.  4.+ 4 u l O.1.].g.y E X X < E 0.E X E E X x.5.m 5.5.% $ q q 5.$ $ < < 9 5./ s.c.p.i o # o x r p ",
"4.4.4.x 8 u F ..I.. , k c.J X X  .e e  . . .9 9 D D D $ 5.$ $ $ q $ M E < #.` : U g _ 0 + v.+ i 8 h.",
"w + { 4.# A c ..' . , k $.#.X ` $ $ $ % q X 2 '.*X= ^ _ ` q $ $ $ $ Z E < g J : O %., 2 + [ o # R p ",
"! j 4 = ! , M.% ; ].g.k N 2.< > % x.q % 5.f.^.UXu..X%Xh.q.$ % $ % $ $ X > ~.9 O . %.&.r r I R   R p ",
"4.{ ! # + 0 c 5.; 2 g.N y =.< > 5.q % 5.t IX:.z.:.[.[.G.0X> o.% 5.% $ X > B 9 O . z _ I + + ~ + 4 p ",
"4.4.4.r j u *.5.; 2 3 N k =.< > % % ` # 9X(.hXL.u.4X@XT.K.cX1 % 5.$ $ X < J x.O . z O._ R   + ;.8 h.",
"= 4.4.o R u *.5.' s., k B J X X $ q D ^ :.HX(./.[.P.K.V.dXZ.D x.$ $  .X X H m }./ y -.G + # ~ @ 4 p ",
"= 4.w = ! 0 *.5.; 2 3 B X X X > 5.5.C >.u.>Xe.5X:.[.N.L.rXZ.b % 5.q $ ` < 0.5.O . %.&.. + # o   R p ",
"4.= 4.= # - c % ; . 7.< X E X > q 5.C >.z.e.e..X.X[.gX:.%XoX6.5.5.q $ < < 9 5.O . y C.8 o 8 0 o + p ",
"4.= 4.4.! P 0 v ; . :X> X E X X ` $ D '. XXXV.-Xu.4XT.V.-XKXeX% % $ $ X < H 5.a.. y f ] ~ [ i ~ R p ",
"4.4.= w i ] S } 1.O , g E E E E E 1 1 @.! D.D.1Xe.1XD.nX0Xl $ $ $ M  .X E H 5.5 / y , n l.# ! ! R p ",
"4.4.= w ;.8 S } Q.A.R F.x.=.X E E 1 $ 1 e 2X1X3X:.[.u.#X) Q m $ $ $ Z E X =.6.: O y &.n P ~ #   + p ",
"4.= 4.4.4.w S } q._.U.3XJXm X < > $ % s s 2.,.IXoXCXZ.h Q ..% % 5.m x.> > c.r.O . %.&.. o # #   + p ",
"4.= 4.4.= 4.+ } q._.^ 9.u.lXm.X.$ $ $ % $ % 5.s 5.% 5.s 5.x.$ $ % x.$ $ e c.9 / O %.&.8 + # #   + p ",
"4.4.4.4.R + S } Q._.).@XH.ZX=.6.q x.$ % q M $ $ Z  .Z $ $ Z M $ $ Z $ $ > g Q }./ y &.8 + # ~ ! R p ",
"4.4.= w G I ) b.; O G iXiXbXy c.T T T T L ` e  .6.> $ % % $ $ $ q $ $ $ m T J : O %., x o       + |.",
"4.= 4.4.S ) h 6 | 2 , jX6X8.8.7 7 7 7 7 7 T =.2.2.X M x.x.M  .k.W.$ $ $ 5.Q 6.O . y &.4 # # + 4.+ V ",
"4.= 4.4.= 4.P s ; . - n.L L L T S.7 7 S.7 7 7 7 S.J J H H H X  .$ m O.O.; I.t O . y C.x ! r 0 ~ o V ",
"4.= 4.4.4.w x M.% F : : : 5 O - N 7 7 7 7 7 7 7 7 7 7 $.7 N X X 9 ' / : U 5 5 : s.y _ [ # w.4 4.+ V ",
"= 4.4.= = w ) *.% - u O : 5 : 5 , 6 6 , &.6 &., &.6 &., , , 3 3 - 7.A.A.: 5 5 : O z , O ~ 4.  w.R V ",
"= 4.4.= 4.w S } s :XA 5 O : O . . O O . . U O . O U O . . O O O . U O O O : : O . c.`.p.+ 4.R 0 i V ",
"= 4.= 4.4.w + 3 e f.A A 5 5 O O . O O . . O O 2 O O O 2 . O O O 2 _.( 5 O : : a.. z _ l.o   # 4 4 V ",
"4.= 4.4.4.4 ;.*.n.1.3 *.b.u : : 3 d.d., &.d.6 , <.d.&., , &.&.<.3 q.q &._.5 5 : O y f.[ {     d w.V ",
"= 4.4.4.= + ] *.Y q 1.- A f.+.g.Q $ e 6.1 1 1 1 1 b ` ` ` ` ` b D z q t., _.: : O z f.2 {     4.+ V ",
"= 4.4.i j 4.S b.Q I.t.Q.; t O 7.j.+ r 2 2 2 2 2 2 : 5 ;.I I 5 : n #.o.q 1.W d.a.2 N , 2 {   4.d + V ",
"= 4.4.: i 4.+ - y Y I.o.t.Q.f T ; 4 O 8 8 8 8 8 O P G G G G G F - $.y t.I.Z 7X. t r.- 2 {   4.d + V ",
"4.4.4.4.4.w [ 2 u 7 Q r.Q r.$.{...h i O O O O O O O j j j j i O : LX{.n.r.n.SXQ.$ ] . {       4.+ $X",
"4.4.4.= =   o ) ) - c *.c *.*., O + @ R R R R R R R R R R R R R @ A 6 , , , c *.0 i ) w   !   d + ,.",
"      @ R         & & & & & & &   # # # # # # # # # # # # # # # # d d d d d + # 4.! # + !   # @ 4 ,.",
"4.    P P 4.      w ! ! ! w ! # # # # # # # # # # # # # # # # # # # ~ ~ ~ o *.I   4.4 i ~ 4.+ 0 i ,.",
"4.    o +     4.4.4.4.4.4.4.  w # # ! ! ! ! ! ! ! ! ! ! ! ! ! ! ! ! # ! # ~ @ o     # o !   ! + @ ,.",
"4.    4.4.    4.          4.  w # # ! # # # # # # # # # # # # # # # # ! # # !         4.      ,X+ ,."
};
