/* XPM */
static char *result[] = {
/* columns rows colors chars-per-pixel */
"50 50 129 2 ",
"   c black",
".  c #3E3F3E",
"X  c #533918",
"o  c #5D3F1E",
"O  c #563F22",
"+  c #403F3F",
"@  c #3E403F",
"#  c #5B401E",
"$  c #63441D",
"%  c #68461C",
"&  c #6C4A1F",
"*  c #75511E",
"=  c #79521E",
"-  c #41413F",
";  c #664521",
":  c #6A4722",
">  c #654926",
",  c #6C4D22",
"<  c #724E24",
"1  c #6C512C",
"2  c #735125",
"3  c #7A5323",
"4  c #71532B",
"5  c #785631",
"6  c #7B5B33",
"7  c #3F3F40",
"8  c #444444",
"9  c #494747",
"0  c #474947",
"q  c #464749",
"w  c #494749",
"e  c #474949",
"r  c #4C4C4C",
"t  c #504F4F",
"y  c #4F504F",
"u  c #50504F",
"i  c #4F4F50",
"p  c #514F51",
"a  c #4F5150",
"s  c #545453",
"d  c #595757",
"f  c #575957",
"g  c #595957",
"h  c #565658",
"j  c #585658",
"k  c #575959",
"l  c #5E5C5D",
"z  c #615E5D",
"x  c #5E605F",
"c  c #60605F",
"v  c #5F5F60",
"b  c #5E6060",
"n  c #606060",
"m  c #845F32",
"M  c #836237",
"N  c #846138",
"B  c #8C653E",
"V  c #8D6A3D",
"C  c #90673A",
"Z  c #91693B",
"A  c #9A6D3D",
"S  c #9A703F",
"D  c #8E6B41",
"F  c #936D41",
"G  c #996E42",
"H  c #967244",
"J  c #9A7344",
"K  c #9F7945",
"L  c #9F7A4A",
"P  c #9C7952",
"I  c #A07745",
"U  c #A27947",
"Y  c #A07749",
"T  c #A47C4A",
"R  c #A87F4D",
"E  c #A97F50",
"W  c #008F3B",
"Q  c #00913D",
"!  c #009A4F",
"~  c #009C54",
"^  c #00935D",
"/  c #00A967",
"(  c #00AE70",
")  c #00B37C",
"_  c #A7814F",
"`  c #AA814F",
"'  c #A78153",
"]  c #AE8453",
"[  c #AF8855",
"{  c #AE8B5A",
"}  c #B08655",
"|  c #B28B5C",
" . c #B6905F",
".. c #BB9365",
"X. c #B7956B",
"o. c #BF9669",
"O. c #BF9A6B",
"+. c #B39574",
"@. c #BC9A72",
"#. c #B79B7C",
"$. c #C0966A",
"%. c #C29D70",
"&. c #C5A176",
"*. c #C7A57C",
"=. c #00B886",
"-. c #00B889",
";. c #C3A682",
":. c #C5A987",
">. c #CEAE84",
",. c #C7AE8F",
"<. c #C9AC8C",
"1. c #CFB085",
"2. c #D4B58C",
"3. c #D6B88F",
"4. c #CCB496",
"5. c #D7B991",
"6. c #DABB93",
"7. c #D9BE99",
"8. c #DEC29C",
"9. c #E0C39D",
"0. c #BCE4D2",
"q. c #E8E8DE",
"w. c #E3EFE5",
"e. c #EBEBE7",
"r. c #E4F2EB",
"t. c #EEF3EF",
"y. c #F1F6F1",
"u. c #F6F9F6",
"i. c #FDFDFD",
/* pixels */
"l l l l c z l l l l k l l l l v l l z z l g l z l l s s t z r z z l p l z l l l l l h l l l v z l l ",
"l z g l c l l k l l l k l l l l l l l l l l l l z s s l g z w z l l p h j v z l l l l z l l r l l z ",
"l k z l z z g z z s z z l z z l l l l l g f l s z z s z z r r z r t z s k z z z v f h l r r l l l p ",
"z l l l l g l z s l s s l l k l l v k f s l s l s g l l z r r r z r p p s z k v l h s l l r l r z l ",
"l l x g k l z s s s l l z k l z k l l g l s l y r t t r r r r r r t p z f f l l k h l a l w r l l l ",
"l l x l z l s s l z s l s s l z v l l z s l s u t r r r r r z r r r t z s l l g j h s s a r z w z z ",
"l l l k z s s z s g s s s s f s l k g l s s r r r z r l r l r z r z l s s l l k k j s s l r r r l l ",
"l l k f h l s s s r t p s z s f f l f s s r r r r w l z r r r z r r l s f k g z k j d s s l z l l l ",
"l l l s s s z p t z u l u s s s l f s l l y r l l w r r l l l r r r u u z g l g g k j s s z p s l p ",
"l f z s l s p r t r r s s s s l v s v s a l l r w l e l r l r r r r y u s f f g k k j d s d s s l s ",
"z l s z p p r t z r s y s z s j l j l s a a r r l l r l l g y l r r z l l s f f j z z j k k k j j l ",
"l p t r r i z r t l l s s d k k l l s s l a r r r r r l y y y r r l l r u u s s d z z z k z z l l l ",
"l z l w r r r l r s s s l h l k k z k s l s y l l y l y l y y r r r r r l y l s z d k k l k l l n z ",
"l l l 9 z 9 r l r p s s s j g g k z z k s s a a l l l l a s a y z r r r r l u s s s k l l v k l z z ",
"l 8 8 l 8 z 9 z l s s g z l j k l k k g d s s s s s s l l l l l r l r r r r p l s s z z l l l l z z ",
"z + + 8 8 9 9 r t s s s s z h h j l z l k s               s l a l z w r z t r s s s j j l l k l z l ",
". l @ @ z 8 l l r z s s z s s z k z k g k   Q Q Q Q Q Q Q   s l s r r r r a r s l s j k j z l l z z ",
"l @ . l 8 8 l r r r l z p z s s d k k l   Q Q Q Q Q Q Q Q Q   s s r r y z r i i l s z z z j l l z j ",
"l z @ 8 l 8 0 r t s p p s s s d j k k g   Q Q Q Q Q Q Q Q Q   s l p s p s y l s s j s j j l l l s z ",
"l l @ - l 0 e l r t l s p l s s d j j j   Q Q Q Q Q Q Q Q Q   h s l s s l s s s s s s j d j s s s l ",
". l 8 8 8 w r r u s s u p s s p s s s s   Q Q Q Q Q Q Q Q Q   s s s h s s s h s l z s d p s l l v l ",
"l l 8 8 e w r y s r s l z s z s z s s   Q Q Q Q Q Q Q Q Q Q Q   s z d j z j z s l s s s s p l l l l ",
"l l l q l r l p t s p l s p l l s z s   Q Q Q Q Q Q Q Q Q Q Q   s z j z k k d d s l s i p i l l l l ",
"l l q r r i p s z s p s s g s a s l i   Q Q Q Q Q Q Q Q Q Q Q   l j l j l l z d s s i i i i r l w z ",
"l l r l p p v p s s s s s t y s y s s   Q Q W W ! W Q W Q Q Q   j k g l k g s s s l l l r r z l v l ",
"l l l l z l l h z s s s u s s s s s r   W ~ / ( ) / ) =.) ! W   s z k l l l s s a r r r w l l z l w ",
"l r l l l p l l j d s s s l s s s r p   ^ -.r.i.u.w.w.r.0.-.^   s s g k j j s s i r l w w 9 9 9 l z ",
"l i l l h s j l z z s s s l s s s     e.t.w.e.;.<.@.@.4.q.y.u.i.    j h j l s p r r w r z w z 9 w z ",
"v r z l p h h j l k d l s s j h   ] P +.,.:.X.| } } } | @.;.,.#.] }   d h z l l r l w r w w z r r w ",
"j l r i l l h j z h l d g f     ] E [ { | } } ] ] ] ' ' ] } } } ] ] ]     h s p l r l r w w r r l z ",
"l l r i p h s j z j k s s   ] ] ] ] ' ] } E T L ] ] H F T ] ] ] ] ] ] ] ]   s p r r e 9 w w r z r z ",
"r w l z p s p j s z d d k   ] ] ] ] ] ] E K M 2       < B L ] ] ] ] ] ] ]   l l l l l r w l r l l p ",
"l l r r l p h h z h l s   , H   3 T } ` J M &   ] ] ]   * N D ` ] U =   H :   s r z 9 v 9 w l i l p ",
"l w l r i p s s z l z h   2 H   & H ] ` 3 =   ] ] ] } ]   3 1 H R A *   M >   s r r l w 9 v l l l z ",
"l w l p p p s s s j j   & N E   < J ' T =   ] ] _ T ` ] ]   = 6 I S =   L 6 =   r l r l q 9 z l z l ",
"l l w l l l s s l j h   % N   = m T H ,   ] ] ] T I U ] ] ]   % Z G H =   4 $   r 9 w q l w 9 r r p ",
"l l w w p p s s j z l   ; 5   < C U m *   ] } R U S K ` ] ]   % m F Z =   O X   w q 8 8 z l w l l l ",
"l l w p l p s s j k l   o 1   & Z Z <   } ] } ` _ U ` ] ] ] [   , V V =   1 #   q 8 8 8 l l w l r i ",
"l z w l r p p j j g l   , V   2 J Z   ` ] ] ] ] ` ` ] ] ] ] ] ]   H H =   V <   8 8 8 l 8 l w r r l ",
"l l l z l p p j g l v   Y ` ] ] R } } } ] ] ] ] ] ] ] ] ] ] ] ] ] ] ` } ] ] ]   7 v 7 8 8 z q l l l ",
"z z z 9 r r s d l l l   ] ] } ] ] ] ] ] ] } ] ] } R } } } } } E ] ] ] [ | ] ]   v l l 7 9 l l r i l ",
"z g 8 8 9 l u l j l l b   9.2.%...| | [ ] ] } } } } } E } E } } ]  .O.&.>.8.  8 l l 7 7 8 l v r w i ",
"z l 8 8 l r l s l l b l b   9.8.5.2.>.%.o.o.o.$.$. . .......$.%.*.1.7.8.8.  w l 9 7 7 z 9 q 9 w z l ",
"l z z 8 l z u s f k l b v   9.8.9.9.9.8.6.3.2.1.2.3.6.6.5.5.6.6.8.8.9.9.9.  r 9 9 l v l l l v i p l ",
"l z l 7 0 l a s k l l l l v       8.9.9.9.9.9.9.9.9.9.9.9.9.9.9.9.9.      i r l q w z z q r r r p v ",
"z 7 l 9 l r a s l l l v n n l l l                                   l s l a l l z 9 w z l l z z z l ",
"l l l 9 e l l s g l l v n n b n l l l k j s s l l p z z l l z z s l s l s z t r r z t r l p l p z l ",
"l l l 9 l r s l f l l z l l b b l v l l l s l s l p p z p l j z s z j l s g s t t l p l l l s l l l ",
"l l z l w p p j l l l l l l n l l l n l j s s l l l l l n p z z h z h h s l s s s p t p l z l l z l ",
"z l q l z i l l l z l l n l l n l l l l z z l l l p n l z n s z l z l l z l l l l p z z l l l z z l "
};
