/* XPM */
static char *result[] = {
/* columns rows colors chars-per-pixel */
"50 50 140 2 ",
"   c #000000",
".  c #3E3F3E",
"X  c #403F3F",
"o  c #004A21",
"O  c #005322",
"+  c #005B25",
"@  c #3E403F",
"#  c #006026",
"$  c #006C2D",
"%  c #00722F",
"&  c #006637",
"*  c #006D30",
"=  c #007231",
"-  c #007C33",
";  c #5C441F",
":  c #62441D",
">  c #6D4B1F",
",  c #79521E",
"<  c #41413F",
"1  c #6E4D23",
"2  c #694C28",
"3  c #755122",
"4  c #785220",
"5  c #74542C",
"6  c #78572F",
"7  c #7C5A2C",
"8  c #735531",
"9  c #7D5E34",
"0  c #725A39",
"q  c #3F3F40",
"w  c #3D4140",
"e  c #006848",
"r  c #444444",
"t  c #494747",
"y  c #474947",
"u  c #494947",
"i  c #464749",
"p  c #494749",
"a  c #474949",
"s  c #4C4C4C",
"d  c #504F4F",
"f  c #4F504F",
"g  c #50504F",
"h  c #4F4F50",
"j  c #514F51",
"k  c #4F5150",
"l  c #535353",
"z  c #595757",
"x  c #575957",
"c  c #595957",
"v  c #565658",
"b  c #595659",
"n  c #575959",
"m  c #5E5C5D",
"M  c #615E5D",
"N  c #5E605F",
"B  c #60605F",
"V  c #5F5F60",
"C  c #5E6060",
"Z  c #606060",
"A  c #BC5200",
"S  c #825E30",
"D  c #85602B",
"F  c #8A6434",
"G  c #82643D",
"H  c #8E6A3C",
"J  c #90683C",
"K  c #96703E",
"L  c #CD5E10",
"P  c #E25E00",
"I  c #D76515",
"U  c #EA6B14",
"Y  c #F4741A",
"T  c #826846",
"R  c #936C40",
"E  c #957145",
"W  c #9C7543",
"Q  c #90714A",
"!  c #9C764A",
"~  c #97784F",
"^  c #A07745",
"/  c #A17846",
"(  c #A47B4A",
")  c #A87F4E",
"_  c #A77F51",
"`  c #008236",
"'  c #008539",
"]  c #008B3B",
"[  c #00913D",
"{  c #008F40",
"}  c #009345",
"|  c #00984B",
" . c #00A15D",
".. c #00A667",
"X. c #00AC74",
"o. c #00B177",
"O. c #FF861F",
"+. c #AA814F",
"@. c #AE8453",
"#. c #A5825C",
"$. c #A9895F",
"%. c #B08756",
"&. c #B28758",
"*. c #B18B5D",
"=. c #AB8D68",
"-. c #B58D60",
";. c #AA916F",
":. c #B89469",
">. c #B59974",
",. c #BB9B75",
"<. c #BB9E79",
"1. c #BCA27D",
"2. c #C0A077",
"3. c #00B681",
"4. c #37C399",
"5. c #BFA582",
"6. c #C2A682",
"7. c #C9AC82",
"8. c #C9AD8C",
"9. c #CDB28C",
"0. c #D2B38C",
"q. c #D2B692",
"w. c #D9BC94",
"e. c #D1B89D",
"r. c #DCBF99",
"t. c #DEC29C",
"y. c #E0C39D",
"u. c #BDDFD1",
"i. c #BAE5D4",
"p. c #E2D6C6",
"a. c #E8DCCF",
"s. c #ECE2D5",
"d. c #EFEADF",
"f. c #DDEDE5",
"g. c #EEEDE8",
"h. c #EEF6F0",
"j. c #F3F2F1",
"k. c #F7FAF7",
"l. c #F9FAF7",
"z. c #FDFEFE",
/* pixels */
"m m m M B m M m m m n m m M V M M m V M m x m m m m l l d M s m m m j M m m m m m M v M m M m m m m ",
"m M c m m m m n m m m x m m n m m M m m m m m m M l l M m m s M M m j v n m m m V M m m m M h m m M ",
"m n M m M M c M M z m M M M M m m M n m z l m l M M g m M s s m s d m l n M m m V n l m j s m M m j ",
"M m m m m n m M l m l l m n n M m V n n z m l m g m M m m s s s M s j l c M n m V n l m m a m s M m ",
"m m C n n m m z l l m m m z m m n M m x m z M l s d s d s s d s s d d M x c m m b v m k m s a V m m ",
"m m N m M M z l m m l m l z m m m M m m l m g f d s s s s s M s s s d M z m n m m l l k h s M a M M ",
"m m c c m l l m l m l l l l l x M b x m l l s f s M s m s m s m s M m l l m M n b b z l m s s s m m ",
"m N c x z m l l f f g k l m x l v M z l k s s s s p m M s s s m s s m l l x n m b v l l l m m m m m ",
"m m m z l l M l s M g M f l l z m x z m m f s m m u s s m m m s s s f l M x m c n x z z l M l j m j ",
"m x m l m l j s d s s l l l l m m v m k k m m s s m a m s m s s s s f g g x x c n c b z z l l z m l ",
"m M l m j j s j m s j l l m z z m v m l k k s s m c s m m c f m s s m M M l x c b m m n b x b b b m ",
"m j s s s h M s s m m l l l z n m m v l m k s s s s f m f f f s s m M s g l g l z m m M n m M m M m ",
"M m m p s s s M d l l l m z n m c m n l m l f m m s m f m f f s s s s s m f m l m z n n m n m m M M ",
"M m m t M t p M s j l l l z n n m m m n l k k k M m m m k l f f m s s s s m g l l z m n m m n V M M ",
"m r r M r M t M m l l m m m n n m n c c z l l l l l l m m m m m s m s s s s s m l z m m V m m m M m ",
"m q q r r t t s g l l l l m z z n m m m n z m l m l m x               s M d l s k z z n n m m m b m ",
". m @ r B r m m s m l l M l l M n m n m n M b b z M n   [ [ [ [ [ [ [   s s s l m z z z m m b m M M ",
"m . . M r r m s s d m m j M l l n n m n M n b n n m     [ [ [ [ [ [ [ [   l l s m l m m M b m M m b ",
"m m < w m r y s d g j l l l j z v n c n v n m n m   % [ [ [ [ [ [ [ [ [   l m l l l z l b M m m l M ",
"m m < < M r p m d g m j l m l l z z z z z z v n n   $ - ] [ [   [ [ [ [ [   l l l l z v l b l l l M ",
"@ m r r i i u s s g l l d l l l z l l l m z m n m   + - ] [ [   [ [ [ [ [   l z V m v l b j m M m m ",
"m m r r a p s f g l d m m l M l m l l l l m l m n   O = ] [ [   ` ] [       m z m l l l l j m M m m ",
"m V m i m s m j j l l m l l m m l m k k k l l l z   o = ] [ [ [ ` #   P O.        m l k j h m m m m ",
"m m p a s h j l M l l d d m l k l m k l h m l m z   O % ] [ [ [ '   A U U U U Y O.  j h s h s m a m ",
"m M s m j j m v l l l l g l k l f l s l s l m l m   * ' [ [ [ [ -   A U U U U U O.  m m s s M m m m ",
"m m m m m m M v m z l l g f k l l g l s f s l m l   ] ] [ [ [ [ ` +   I U U L U   f s s p m m M m p ",
"M a m m m j M m z z z l l m l l l s s l f f s       } | [ ] [ [ ] = +           s s m p p p p p m M ",
"m h m m v j v m m m   l l m z l l l l m g m l   g.j.u.3. .| [ [ { { ' & e &   l s s s p m p M t s M ",
"m s M m j v v b m n   M l z z z z l l         @.*.e.g.k.i.4.X.o.o. ...X.f.z.  m s m a s p p M s s p ",
"M m s j m m v b M   y.  z z           , ) @.@.@.@.&.2.s.l.z.h.k.z.z.z.z.z.j.  l m s V a p p p s M M ",
"m m j h j v l b m   t.      3 4 ) ( E ! @.@.@.@.@.@.%.,.6.8.8.e.p.s.d.a.8.#.  j s s s p p s s M s M ",
"s p m m j j j b n   y.t.r.! 9 7 F H R ( @.@.@.%.@.@.@.@.@.@.@.%.-.:.:.*.%.@.  M M M M p p m s m m j ",
"m M s s m j l l m   r.w.<.~ 2 ; : : > 3 %.    @.@.%.@.  H ) @.@.@.@.@.@.@.@.@.  h m p M p p m f m j ",
"m p m s h j l v V   q.0.$.@.              @.@.@.@.@.@.  3 ) @.@.@.@.) @.@.@.@.  j a m a p m M m M m ",
"m p m p h j l l b   y.0.G   , H ) +.@.@.@.%.@.@.@.@.@.@.F ) %.%.@.+.( +.@.@.@.  d m p m y u m m M m ",
"m M p m m m l l m   y.7.8   , D ^ @.@.@.@.@.@.@.@.@.@.@.+.+.@.+.@.@.@.@.@.+.+.  s p p i m p p s s j ",
"m m h p j j j z b   t.<.6   , , D / %.@.@.@.@.@.@.%.@.@.@.@.@./ @.@.@.@.@.( @.  p i r r m m p M m m ",
"m m p p V j l l z n   >.Q   , , D J @.%.@.@.@.@.@.@.@.@.@.@.@.W @.@.@.@.@.+.@.  i r r r M m p m s s ",
"V m p m s j j b b m   q.=.7   , W ) @.@.@.@.%.@.@.@.@.  @.@.@.+.@.@.@.+.@.+.@.  r r r m r m p s h m ",
"M m M m m j j b m n   y.q.<.;.  @.@.@.@.@.%.@.@.@.@.  5 ( @.@.@.@.@.@.( @.@.  i r m w r r m a m m m ",
"m M M t s s l c c m m   t.q.1.9       @.@.@.@.@.@.@.S H +.@.@.@.@.@.@.+.@.@.  r V m m q r m m h h m ",
"m m r r u m g m c m V C   t.r.<.G 6 3           @.@.) @.@.@.@.@.@.@.@.@.@.@.  i m m r q r m V p h j ",
"m M r r m s m l m m m m C   t.t.6.>.;.T 0 0 0 T #.*._ E H J H K W ) @.@.@.  u m r r q m r p p a m m ",
"m m M r m M g l c n m C m m   t.y.y.>.>.>.>.0 0 *.*.*.*.J J J J J H J J J   s y r M m m m m m j j m ",
"M M m q y m f l x m m m Z m m     t.t.9.8.9.5.5.1.9.Q 2 2 : 1 > > 1 E     f s m p t m M p s h j j m ",
"m X M r m s f l m m V m Z Z V m m                                     l m f m m m p p M m m m M m m ",
"M m M r a m m l n m m V Z Z C M N m n n z l l m m j m m M m m M l m z m l m g s s M d s m j m j m m ",
"m m M t m s l m b m M m m m C C m m m m m l m l m l j M j M m m l M l m l m l g g m j M m m j M m M ",
"m M m M p j j b M m m m M m m m m Z m m b b l m m m m m m b m m b m v v l M j j j l j j m m m m M m ",
"m m i M V h M m m m M m m m m Z m m m m m m m m m j V m M M j m m M M m m m m m M l M M m M M m m m "
};
