/* XPM */
static char *result[] = {
/* columns rows colors chars-per-pixel */
"50 50 256 2 ",
"   c #626060",
".  c #5C5A5A",
"X  c #5E5C5C",
"o  c #9F8154",
"O  c #A18354",
"+  c #4C4A4A",
"@  c #484848",
"#  c #605E5E",
"$  c #4A4848",
"%  c #5A5858",
"&  c #585656",
"*  c gray29",
"=  c #626262",
"-  c #545252",
";  c #464645",
":  c #4C4C4C",
">  c #666464",
",  c gray32",
"<  c #565654",
"1  c #424040",
"2  c #565454",
"3  c #5C5C5A",
"4  c #484646",
"5  c #50504F",
"6  c #A18356",
"7  c #464444",
"8  c #686466",
"9  c #4A4948",
"0  c #444444",
"q  c #565656",
"w  c #444242",
"e  c #525050",
"r  c #0E9144",
"t  c #545453",
"y  c #646262",
"u  c #403F3D",
"i  c #817E7E",
"p  c #525250",
"a  c gray26",
"s  c #585856",
"d  c #606060",
"f  c #9F8152",
"g  c #666264",
"h  c #4E4C4C",
"j  c #9D7E52",
"k  c #3D3E3D",
"l  c #5F5D5D",
"z  c #9F8355",
"x  c #504E4E",
"c  c #4E4E4E",
"v  c #A38556",
"b  c gray25",
"n  c #020203",
"m  c gray8",
"M  c #0E8F44",
"N  c #474846",
"B  c #040608",
"V  c #858383",
"C  c #444442",
"Z  c #16120C",
"A  c #010A05",
"S  c #0A873F",
"D  c #A78858",
"F  c #0E8F42",
"G  c #0E9847",
"H  c #023919",
"J  c #4C4B4A",
"K  c #3C3A38",
"L  c #8B6D43",
"P  c #2B2C2E",
"I  c #2E2414",
"U  c #A18154",
"Y  c #393939",
"T  c #0B8D42",
"R  c #3D3B3B",
"E  c #90744A",
"W  c #A58656",
"Q  c #A88B5E",
"!  c #9B7C50",
"~  c #393637",
"^  c #9B7B4D",
"/  c #866A42",
"(  c #94764B",
")  c #888686",
"_  c #7F643E",
"`  c #636161",
"'  c #1C1419",
"]  c #615F5E",
"[  c #1C180F",
"{  c #997B4F",
"}  c #424240",
"|  c #0F0E0D",
" . c #0E8B41",
".. c #0A833C",
"X. c #D66D22",
"o. c #202225",
"O. c #052412",
"+. c #AB8B5A",
"@. c #021009",
"#. c #262022",
"$. c #696667",
"%. c #8E7044",
"&. c #3B2E1E",
"*. c #453926",
"=. c #DEC9A2",
"-. c #353435",
";. c #362C1C",
":. c #6B5432",
">. c #19954E",
",. c #9E8F73",
"<. c #282520",
"1. c #BEAA87",
"2. c #99896E",
"3. c #3F321C",
"4. c #352A1A",
"5. c #A49273",
"6. c #AC9166",
"7. c #101212",
"8. c #B09B76",
"9. c #937B54",
"0. c #787676",
"q. c #9D8152",
"w. c #987A4C",
"e. c #92754C",
"r. c #544229",
"t. c #E8F1EA",
"y. c #BAA785",
"u. c #82817F",
"i. c #067638",
"p. c #1D1C1E",
"a. c #664C23",
"s. c #745A33",
"d. c #585858",
"f. c #624F31",
"g. c #054120",
"h. c #121413",
"j. c #A18657",
"k. c gray37",
"l. c #705C3C",
"z. c #2D2B29",
"x. c #CA671F",
"c. c #1B150B",
"v. c #55462F",
"b. c #0E9445",
"n. c #7A613C",
"m. c #272016",
"M. c #086F35",
"N. c #9A7F54",
"B. c #9E8761",
"V. c #26292B",
"C. c #CFBCA1",
"Z. c #9D7E50",
"A. c #443620",
"S. c #4F3E26",
"D. c #0A8B41",
"F. c #2F3030",
"G. c #2E271A",
"H. c #8A7554",
"J. c #061B0D",
"K. c #816943",
"L. c #B69D72",
"P. c #48361A",
"I. c #322E27",
"U. c #695E4B",
"Y. c #1A1816",
"T. c #41AE77",
"R. c #6B6969",
"E. c #076530",
"W. c #63533B",
"Q. c #109C48",
"!. c #BAA480",
"~. c #0B0B0D",
"^. c #793D12",
"/. c #0D2E17",
"(. c #097B3B",
"). c #A4551B",
"_. c #5A5A5A",
"`. c #98835F",
"'. c #71552B",
"]. c #50B382",
"[. c #5B5959",
"{. c #F4F3ED",
"}. c #C9B497",
"|. c #E7EAE1",
" X c #373833",
".X c #4E4C4A",
"XX c #968569",
"oX c #C1AA85",
"OX c #7E6137",
"+X c #DDE9DD",
"@X c #A8987A",
"#X c #2D1D0D",
"$X c #E5E3DE",
"%X c #7A5D2F",
"&X c #706F6E",
"*X c #D7C29B",
"=X c #D1BB96",
"-X c #8E7550",
";X c #8A7B61",
":X c #EEEEE9",
">X c #6E5226",
",X c #95876C",
"<X c #826233",
"1X c #EEEBE3",
"2X c #161616",
"3X c #924816",
"4X c #918166",
"5X c #8F4615",
"6X c #2E3735",
"7X c #8B7C62",
"8X c #E9DFD5",
"9X c #C8B393",
"0X c #4C3D26",
"qX c #564E40",
"wX c #D2E7DB",
"eX c #4C391C",
"rX c #A68D68",
"tX c #796D58",
"yX c #30A264",
"uX c #0A4F27",
"iX c #07582A",
"pX c #477E61",
"aX c #DE7326",
"sX c #042010",
"dX c #2E975C",
"fX c #786646",
"gX c #125C2C",
"hX c #814216",
"jX c #5A5856",
"kX c #36A56C",
"lX c #220400",
"zX c #A14810",
"xX c #D9C39D",
"cX c #442612",
"vX c #0E5C2C",
"bX c #AD8D5A",
"nX c #934A16",
"mX c #E3CDA5",
"MX c #DBCFBD",
"NX c #5C381C",
"BX c #93CDAF",
"VX c #D9C9B5",
"CX c #B59360",
"ZX c #E3DBD3",
"AX c #1E744A",
"SX c #8F8368",
"DX c #0E5228",
"FX c #CFE1D5",
"GX c #0E4C26",
"HX c #B55E18",
"JX c #4E3C20",
"KX c #87C9A5",
"LX c #4E280E",
"PX c #0C5A2C",
"IX c #C76620",
"UX c #FF8D34",
/* pixels */
"` `   ` ` ` `     `     ` ` ` ` ` ` ` `       y > 8 > 8 8 > > 8 > > > 8 8 > > 8 8 > > > > > > > y 0.",
"`   `           ] . # ]                   ] . ` > > > > > g y   g g g   y > > y   > g > 8 8 > $.X 0.",
"    `     ` ` y X 9 & y ` ` ` ` ` ` ` ` y # + & $.8 8 8 8 $.# J ] R.g h - 8 8 - .Xy >   l l l # 7 $.",
"` ` `   ] d.& & 2 .X, & & & & & & & & & & q : - [.[.[.[.% % 2 h & [.d.2 # g g l % g > _.t 2 2 < 9 &X",
"        # : 4 1 4 J * * * * * * * 9 9 9 * * J 9 @ @ @ 9 1 R 4 J 4 b C ] $.e - 8 8 > 8 3 < & < s - 0.",
"        ] c 9 7 9 J : : : : : : J J J J J J J * * @ 4 @ w u 4 4 4 } 0 . g 2 2 y y y g s 5 p p - h 0.",
"& jX]   & 1 9 J J J : J J : : J J @ C 9 J 9 b C * w k k 1 1 1 1 1 1 b J s # ] - h X ] 5 @ * 9 * R > ",
"2 &   ` 2 u @ : * J : J : : J J : @ w 9 J 9 u w J 0 k R ; N N N N N ; p & # ] e J l   e 9 * * J K > ",
"]   . [.# h 9 ; 9 J J J J J J @ 4 * * J * J * * ; b 1 0 #.' ' ' ' ' ' #.y % & # # . & 5 9 9 7 @ 7 &X",
"    & t # 5 4 } 9 J J J J J J ; } * : J J * J * 1 u ; F.H H H H H H H H ~ 2 2 #   & e x 9 9 1 4 ; &X",
"` ` ]   3 ; @ 9 9 9 9 9 9 9 9 9 9 @ 4 9 9 9 9 9 9 w #.B ..Q.Q.Q.G Q.Q.b.g. X- & - % [.x 7 @ @ * b R.",
"` ` ` = p K ; 9 9 9 9 9 9 9 9 9 9 0 u 4 9 9 9 9 ; F.sXO...r M M M M M r S A 1 J 1 e 2 t 9 - % & b R.",
"= = ` = X ; @ 9 9 9 9 9 9 9 9 9 9 @ 4 @ 9 * @ : ~ @.M.M M M r S S M M b...sXk p c t t X . l ] ` 2 i ",
"= ` d d l J @ @ 4 9 @ 9 4 @ @ 9 @ @ 9 9 9 * @ : ~ @.E.(. . .Q.g./.G M M M S /.7 q , , _.] l l X [.i ",
"` ` ` c J * 9 w K ; * 4 R 1 9 9 u k @ 9 * * @ : ~ @.vXM.S  .Q.H O.G M M  .M O.R & t 9 4 . ] % 4 5 u.",
"` ` ` q t * 9 ; b 4 9 @ b 7 9 9 a } 9 9 9 9 @ : ~ A DXM.S  .G g.O. . . .O.J.~.1 < t h x X # . e t u.",
"] 2 [.= # w u @ * 4 1 4 * 9 u 1 9 9 ; a @ @ @ J ~ A GXE.S M r ..(.(.DXJ.zXX.#XB | B F.y [.e .   . i ",
"d 2 [.= # w u @ * 4 1 4 9 @ u b @ @ 0 a 4 @ 4 J ~ A GXM.S  .M r G iX[ ^.x.aX).5XnX).NX6X] e .   [.i ",
"`   ` . & * 9 ; b 4 9 @ w 4 9 9 a 1 4 @ 4 w 4 * -.@.PXi.T F M M b.g.lXHXx.x.X.X.X.UXhX7.g l X < 2 i ",
"` ` ` < - * * C R ; * 4 1 7 9 9 u k @ 9 ; b 4 5 R J.(.S M M M M T E./.LXIXaXX.IXX.).&.-.l ] . e t u.",
"d . l ` k.@ a 0 ; 4 0 ; 0 0 7 ; C 0 C a 0 ; k F.p.A S M M M r r T (.PXsX^.3X5XhX5XcXP . _.s X k.[.i ",
"# p & = # 0 R a R k w w w w a a w C 1 b C .XV.n P 6XdXdXM F F F F ..M.gXJ.A A n n P , e & x [.  [.i ",
"` l # # . 9 a ; | p.$ a w 7 0 0 w w Y -.-.Y <.qXZX$XFXKXT.yX>.>.>.>.M  .AXpXpX@.F.5 9 : . . l . & i ",
"` ` ` 2 p * 0 a m #.4 0 a u b k -.Y 2Xn ~.n *.D rXC.|.{.wXBX].T.].kXkXkX].wX:XV.V.t a u [.  . 5 - u.",
"= `   X [.J 1 B ,.U.p.N z.| Z [ [ Z JX/ e.E { z z rX!.MX1X|.+X+X|.t.t.t.t.{.$X#.z.t @ * . # l % & i ",
"= ` d = # J 1 B @XtXn B I a.a.L L _ L j 6 6 6 o o o 6 8.1.}.}.C.VX8X1X:X8XC.5.m P e J , X # X   [.i ",
"` = ` ` l * 1 B ,.9X,.7X:.s.s./ %.L -X! v +.W o z z z Q Q B.Q Q 6.!.y.!.8.6.{ | P $ b e l t 9 X . i ",
"` = ` ` k.5 0 B ,XmX=XL.K.:.f.:.s.s.OXD l.m.f.D o z o v._ ! o o N.6 v 6 j o N.n.I.P * e l s e l [.i ",
"` ` = d e 2 q B SX*X8.6.W.c.c.c.Z c.c.G.0Xv.l.W o 6 o [ r.e.o 6 z o o j U 6 o bX;.o.< ; c # ] ] [.i ",
"` ` = d 5 2 q B ,X*XrXn.A.I &.*.*.*.*.&.K.CXD o U z o f.:.%.f z z o j ! j o z D ;.o.t ; c l #   . i ",
"` = ` ` d = < B 2.xX`.&.I <XL v +.+.+.bXv N.o 6 6 z z D %.( o o o o j ! j o q.D ;.o.t e X # #   . i ",
"` = ` ` ` y 2 B 2.*X-X3.4.'.'.L { j o o z 6 z 6 z 6 z j j q.z q.Z.o o o z o ! W ;.o.t e . # #   . i ",
"` ` ` ` % . q 7.;X1.-X3.I %X>X<X%.j z z 6 O z z 6 z o v z o o ^ ^ U o o o o { D ;.o.t 5 . # l ] [.i ",
"` ` = ] .X5 [.t p.qX6.v.#Xa.>X<XL ! z z 6 z z 6 z 6 U E j z o w.w.z o o o o Z.+.;.o.< p l       . V ",
"` = ` ` 3 l 2 s ~.W.1.9.3.[ >X%.{ j o z z z z z z o { G./ D o f f z z o q.o j 6 ;.o.- t # # . ` . V ",
"` = ` d = ` * * ~.U.mX8.XXU.c.q.+.D 6 o z z z z v e.[ A.E q.z o o z z o w.o j G.F.u w t ] 2 9 l X V ",
"` = ` ` ` ` , 5 a ~ @X*Xy.`.*.&.&.;./ +.6 v v 6 6 ( S.s.{ q.z z z z z o ! U { Z P 5 9 < # X & ` . V ",
"= ` ` = = d [.q X : <.tX=.y.B.S.3.P.G.m.m.m.[ *.O q.^ ! o 6 6 6 6 z z o o U 6 Z P < : e l `   X [.V ",
"= ` ` = `   d.< 2 3 Y I.@XmXy.`.9.-Xv.G.G.G.G.v.z j.{ ( E E E ( w.! Z.o o 6 f.<.b , C b . ` [.$ e V ",
"= ` = ` ` d s < q 2 # b K 5.=.=X1.5.`.H.H.fXl.K.`.B.z 9./ / / / L %.E e.! U [ k 2 c J : l   # & & V ",
"` = ` ` ` s h < s p b & R I.;X,X=.9X1.y.oX5.H.7XL.L.j.9.n.n.OXOXOXn._ / r.r.z.; 9 4 5 < #     y X V ",
"= ` ` ` = . e < q t * e 3 @ ~.#.,.@X,.,X2.XX4X7X4XXX:.JX3.3.P.eXeXeXr.:.m ~.a , 9 * c 2 l     ` . V ",
"= ` ` e p = d.< q q s q < q 3 5 Y.m 2Xm m m m m m m m m m h.m h.h.m h.2XJ 5 1 ; 5 5 c 2 l   ` y . V ",
"= ` ` e e ` d.q s s q s s s & < t , , , , , , , , c : : : : : : : : : : : : 1 ; 5 5 5 2 k.  ` y . V ",
"` ` ` ` ` d s < q < < < < < < < t t t t t t t t , , , , , , , , , , , , p p , 2 e x < l       ` . ) ",
"` ` ` ` `   X 3 3 3 3 3 3 3 3 3 [.[.[.[.[.[.[.[.[.[.[.[.[.[.[.[.[.[.[.[.[.[.. l - e X d   ]   y . ) ",
"      % [.                      # # # # # # # # # # # # # # # # # # # # # # & .   ] # . ]   # % & ) ",
"`     h h `                   ] # # # # # # # # # # # # # # # # # # # # # l 4 x ` ` & e l ` . 9 e ) ",
"`     X .     ` ` ` ` ` ` `   d # ] ] ] ] ] ] ] ] ] ] ] ] ] ] ] ] ] # ] # l % X     # X ]   ] . % ) ",
"`     ` `     `           `   d # ] # # # # # # # # # # # # # # # # # ] # # ]         `       y . ) "
};
