/* XPM */
static char *result[] = {
/* columns rows colors chars-per-pixel */
"50 50 256 2 ",
"   c #626060",
".  c #5E5C5C",
"X  c #A18354",
"o  c #4C4C4C",
"O  c #4C4A4A",
"+  c #5C5A5A",
"@  c #545252",
"#  c #605E5E",
"$  c #4A4848",
"%  c #5A5858",
"&  c gray32",
"*  c gray29",
"=  c #444242",
"-  c #484848",
";  c #626262",
":  c #585656",
">  c #9F8154",
",  c #666464",
"<  c gray26",
"1  c #424040",
"2  c #4E4E4E",
"3  c #484646",
"4  c #525050",
"5  c #565654",
"6  c #686466",
"7  c #444442",
"8  c #109144",
"9  c #0E9144",
"0  c #585856",
"q  c #565454",
"w  c #444444",
"e  c #545453",
"r  c #464444",
"t  c #5C5C5A",
"y  c #40403F",
"u  c #525250",
"i  c #565656",
"p  c #817E7E",
"a  c #505050",
"s  c #646262",
"d  c #0E8F43",
"f  c gray8",
"g  c #4C4C4A",
"h  c #606060",
"j  c #464644",
"k  c #504E4E",
"l  c #5F5D5D",
"z  c #464646",
"x  c #484846",
"c  c #4A4A48",
"v  c #A9997A",
"b  c #4E4C4C",
"n  c #3F3E3D",
"m  c #666264",
"M  c #A68657",
"N  c #50504E",
"B  c #109848",
"V  c #997A4D",
"C  c #A08254",
"Z  c #858383",
"A  c #3A3939",
"S  c #9C7C50",
"D  c #5A5959",
"F  c #3C3B3B",
"G  c #585858",
"H  c #A18356",
"J  c #A38658",
"K  c #0C0D0E",
"L  c #9D7E52",
"P  c #886A40",
"I  c #0A0704",
"U  c #96784B",
"Y  c #4E4E4C",
"T  c #615F5E",
"R  c #9D8152",
"E  c #424240",
"W  c #9A7B4F",
"Q  c #DCC69F",
"!  c #A38556",
"~  c #332918",
"^  c #003818",
"/  c #101214",
"(  c #493923",
")  c #484A48",
"_  c #BAA077",
"`  c #A88959",
"'  c #109B48",
"]  c #A4895B",
"[  c #93764B",
"{  c #927548",
"}  c #AD8C5B",
"|  c #67502D",
" . c #9F8152",
".. c #2B200F",
"X. c #DFC8A1",
"o. c #211A1D",
"O. c #8F7144",
"+. c #1C1419",
"@. c #141412",
"#. c #050403",
"$. c #836539",
"%. c #B59C74",
"&. c #6C5839",
"*. c #574527",
"=. c #A7895C",
"-. c #1F1A12",
";. c #353536",
":. c #B99E73",
">. c #84673E",
",. c #032A12",
"<. c #141008",
"1. c #118F42",
"2. c #241B0D",
"3. c #7D623C",
"4. c #333133",
"5. c #896D46",
"6. c #2F2E2F",
"7. c #91764D",
"8. c #76603D",
"9. c #06622C",
"0. c #2C2D2D",
"q. c #828180",
"w. c #7B5F37",
"e. c #E1CCA5",
"r. c #816743",
"t. c #033015",
"y. c #755D37",
"u. c #8C7047",
"i. c #0E9545",
"p. c #B6A180",
"a. c #664D23",
"s. c #453722",
"d. c #D9C29A",
"f. c #AD8F60",
"g. c #715832",
"h. c #100E08",
"j. c #403422",
"k. c #A98B5F",
"l. c #0E8D41",
"z. c #6F5631",
"x. c #AD9367",
"c. c #262223",
"v. c #5D4C32",
"b. c #856A42",
"n. c #878686",
"m. c #626160",
"M. c #261E11",
"N. c #787673",
"B. c #2C2A2B",
"V. c #382C1A",
"C. c #2C2314",
"Z. c #0C080A",
"A. c #1E180C",
"S. c #C0AB88",
"D. c #E7E6DD",
"F. c #646062",
"G. c #2E3030",
"H. c #604A29",
"J. c #269E5B",
"K. c #342611",
"L. c #423016",
"P. c #2B2825",
"I. c #7F6134",
"U. c #8A7C63",
"Y. c #BDA98A",
"T. c #A18152",
"R. c #15120C",
"E. c #71706F",
"W. c #18191A",
"Q. c #3C301C",
"!. c #765A30",
"~. c #917446",
"^. c #928265",
"/. c #6B6969",
"(. c #898787",
"). c #BCA37A",
"_. c #302A2C",
"`. c #5E4724",
"'. c #CFB890",
"]. c #4A484A",
"[. c #2DA061",
"{. c #484644",
"}. c #08672E",
"|. c #BDA884",
" X c #6A6668",
".X c #77C8A2",
"XX c #CFBA96",
"oX c #503F23",
"OX c #17944D",
"+X c #F2EFEA",
"@X c #80CAA6",
"#X c #6C522A",
"$X c #A3875A",
"%X c #686666",
"&X c #836A46",
"*X c #4D4638",
"=X c #262118",
"-X c #6EC097",
";X c #E1E1D6",
":X c #A89778",
">X c #1E9B54",
",X c #A28F70",
"<X c #ECD6AE",
"1X c #4C4A4C",
"2X c #232021",
"3X c #A28961",
"4X c #0F2D1B",
"5X c #B2976B",
"6X c #169A4F",
"7X c #EDEAE2",
"8X c #C5AD86",
"9X c #1E241E",
"0X c #545254",
"qX c #7B7A79",
"wX c #AF9A76",
"eX c #9F8257",
"rX c #119E4B",
"tX c #AF956E",
"yX c #57B385",
"uX c #544224",
"iX c #6A542C",
"pX c #8D724A",
"aX c #DDDBCF",
"sX c #998B70",
"dX c #065E2C",
"fX c #665C4C",
"gX c #C7B189",
"hX c #00200A",
"jX c #503C1A",
"kX c #6A5228",
"lX c #0E833E",
"zX c #D3CBB7",
"xX c #C3B599",
"cX c #0A562A",
"vX c #9B7E52",
"bX c #464036",
"nX c #38A56A",
"mX c #5E5C5A",
"MX c #BBB7AF",
"NX c #52442C",
"BX c #463E30",
"VX c #786C58",
"CX c #086E32",
"ZX c #2A2622",
"AX c #8FCDAD",
"SX c #625034",
"DX c #345044",
"FX c #DFE1D5",
"GX c #02461E",
"HX c #BDDFCD",
"JX c #E7D1A9",
"KX c #8BCDAB",
"LX c #488166",
"PX c #D3E7D9",
"IX c #7E725C",
"UX c #FBF7F5",
/* pixels */
"m.m.  m.m.m.m.    m.    m.m.m.m.m.m.m.m.      s , 6 , 6 6 , , 6 , , , 6 6 , , 6 6 , , , , , , , F.N.",
"m.  m.          T + # T                   T +   , , , , , m s   m m m   F., , F.  , m , 6 6 , %Xl N.",
"    m.    m.m.s . $ : s m.m.m.m.m.m.m.m.s # O :  X6 6 6 6  X# O T  Xm b @ 6 6 @ b s ,   l l l # r %X",
"m.m.m.  T G : : q g & : : : : : : : : : : i o @ D D D D % % q b i D G q l m m l % m , + e q q 5 x E.",
"        # o z 1 3 O * * * * * * * $ $ $ * * O $ - - - $ 1 F 3 O 3 y 7 T %X4 @ 6 6 , 6 t 5 : 5 0 @ qX",
"        T 2 $ r $ O o o o o o o O O O O O O O * * - 3 - = n z 3 z E w + m q q s s s m 0 N u u @ b N.",
": % T   : 1 $ O O O o O O o o O O - 7 $ * - y = $ < n F < < < < < < 1 b 0 # T @ b . T N x c $ c F , ",
"q :   m.q n - 1X* O o O o o O O 1Xx = x 2 N 7 ) a ) 7 E 1 1 = = = < 1 O : # T 4 O l   4 $ c c O A , ",
"T   + D # b $ j $ O O O O O O - 3 * $ & ;.+.o.o.o.+.+.+.< w 1 = = < 1 q T : 0 # # + : N $ $ r - r E.",
"    : e # k 3 E $ O O O O O O j E $ 4 4.4X^ ^ ^ ^ ^ ^ ^ 2XF w 1 < < 1 :   @ @ T   : 4 k c $ 1 z r E.",
"m.m.T   t j - $ $ $ $ $ $ $ $ $ $ $ A 4XCXrX' ' ' B ' B GX9Xn w = = < k % % % q @ % D k r - x c y /.",
"m.m.m.; u A z $ $ $ $ $ $ $ $ $ - x K }.rXl.d d d d d l.rXt._.x = 7 = 7 O & e j 1 a q e $ @ % : y  X",
"; ; m.; . r - $ $ $ $ $ $ $ $ $ - O W.9.B d 9 8 8 8 9 9 9 t._.- 7 7 = g & e e a 2 e e . + l T   q qX",
"; m.m.h l O - - 3 $ - $ 3 - - - 3 g f 9.B d 9 9 9 9 8 9 i.t._.) 7 r = k q & 4 & 0Xe & + T l l l D p ",
"m.m.m.2 O * $ = F j ].z F 1 $ $ n y f 9.B d 9 8 9 9 9 9 i.t._.x = r 7 2 e & 7 3 e e $ {.+ T % 3 k q.",
"m.m.m.i e * $ j y 3 $ - 1 r $ $ w f cXd 9 8 9 8 9 9 8 9 d lX4XB.x 7 7 2 0X& c o e e b k . # + 4 e q.",
"T q D ; # = n - * 3 1 z * - y 1 O Z.}.' d 8 8 8 8 8 8 8 d ' ,.o.) = 7 Y & & & e $ {.& l + 4 +   + p ",
"h q D ; # = n - ].3 1 z $ - y 1 * K }.B d 8 8 9 9 8 8 8 d B ,.c.) 7 w o a k a e $ {.e l + u +   D p ",
"m.  m.+ : * $ j y 3 $ - = z $ $ w Z.}.B l.d 1.1.1.l.1.l.l.B ,.c.) E F * a k * 2 e e b Y . # . 5 q p ",
"m.m.m.5 @ * * = F z ].3 1 r $ - 1 Z.}.6XOX6XJ.J.J.[.[.[.OXB ,.c.) y A $ & a x g e q O 3 +   + 4 e q.",
"h + l m.# - < w 7 r w r w w w - c #.dXJ.yX.X@X@X.X@XKX-XnX>XhX2Xg 7 1 $ $ O o 2 o O Y e + 0 . # D p ",
"# u : ; # w F < = = = = < = w ;.;.0.LX-XHXUX+X7X;XFXD.PXAXyXDX6.4.F j j E j * g r w g & i k D   D p ",
"m.l # # + $ < < = w = = r 1 4.-.-.MXD.FXaXxXwXp.x.tXY.zXD.D.+XN.<.ZXA $ c $ - * * O * o + + l + : p ",
"m.m.m.q u * w < = = w 1 y 0.R.7.7.,XY.Y.wXk.$XJ eX$X] tXp.Y.p.3XM v.K < z * = r o Y 7 n D   + N @ q.",
"; m.m.. D * = = 7 < 1 6.R.Q.7.> eX3X$X3X! > L > > vXvX> J $X$XeXC > 8.-.o.y z c o o $ c + # l % : p ",
"; m.h ; # * w = = - W.Q.7.7.! eX> C > > S 7.W =.H 7.5.[ > eX> > > X > 7.r.@.F N g g g & . # .   D p ",
"m.; m.; # $ = < 1 $ / V.f.` H > > C C W 5.$.*.-.-.C.g.r.U L > C C > H } 7.I ;.4 * 1 E 4 l e $ . + p ",
"m.; m.m.# Y z r - 4.=XiX&.( >.V > > V b.3.L.~ SXSX*.M.| r.5.vXC  .~.g.( b.( 2Xw Y 7 j 4 l 0 a l + p ",
"m.m.; h 4 e G 5 @ W.K.P s.Z.kX{ > C >.I.L.V.r.} } eXv.C.#Xy.5.S W $.jX#.&.#Xh.;.O o o 3 Y # T T D p ",
"m.m.; h N e % i G.M.*.u.NXh.iXu.R R I.L.V.&X` W W R ` v.K.`.8.u.U $.jXI 3.z.Q.o.A 2 g 3 Y l #   + p ",
"m.; m.m.m.h G 0 / ..w.r.( ..z.~.W u.kXM.&.f.W V V W R M ~ L.| 3.{ >.a.2.&.y.#XI 0.u g 4 . # #   + p ",
"m.; m.m.; m.G D f M.w.s...!.3.{ b.!.R.&.` vXW U ~.U  .R $X~ V.w.b.u.P a.R.*.uXI G.u g 4 + # #   + p ",
"m.m.m.m.D + G 0 f 2.g.j...!.P O.w.`...8.` L W { ~.U R > ! s.K.| 3.b.$.a.<.( ( I G.u * 4 + # l T D p ",
"m.m.; T g k D D f 2.g.j...g.b.3.H.M.8.! > > R V U W  .> > eXs.V.| b.>.a.<.v.*.I G.e o e l       + q.",
"m.; m.m.t l q q f C.5.NX~ I.{ y.R.&XM C C C T. .R > C C C > ` ( C.7.P kX-.3.z.I G.a * q # # + m.+ Z ",
"m.; m.m.; m.c $ / j.C 7.pXV vXW 5.vXH C C C C C > C C X H C H 7.pXR S U u.W 7.<.6.j 1 e T q $ l . Z ",
"m.; m.m.m.m.& @ / ( ` L ! C C H $XH C X C C C C C C C C C eXC ! ! C C J ] > vXR.6.2 - 5 # . : m.+ Z ",
"; m.m.; ; h D i * ZX^.d.tXx.] J X C > C > > C C eXX X X > > > R C k.x.5X).XXNX0.- a o a l m.  mXD Z ",
"; m.m.; m.  G q l y *XsX'.|._ %.5Xf.=.] =.=.k.=.J J J $X] =.k.f.tX_ |.gXS.VXP.y & 2 r y + m.D $ 4 Z ",
"; m.; m.m.h 0 5 e m./ bX<XX.X.XXgX8X).:.:.:._ :.%.%.%.:._ _ ).|.gXXXe.JXXXI 4.k o 2 * g l   # : : Z ",
"m.; m.m.m.0 b 5 i e c.bX^.U.^.Q e.e.X.Q d.d.d.Q Q Q X.Q Q Q d.Q JXY.U.U.IXZX< a - z 2 5 #     s mXZ ",
"; m.m.m.; + 4 5 i & a A K K f ,Xv :Xv v v v v :Xv v v v v v v :Xp.fX#.K / j 2 2 * c 2 q l     m.+ Z ",
"; m.m.4 u ; G 5 i i i 0 D t i W.f f f f f f f f f f @.@.@.@.@.f K B.& 2 N g 1 j 2 2 2 q l   m.s + Z ",
"; m.m.a 4 m.G i 0 0 i i 0 i i 5 e & & & & & & & & 2 o o o o o o Y o o o o o 1 r a a 2 q #   m.s + Z ",
"m.m.m.m.m.m.0 5 i 5 5 5 5 5 5 5 e e e e e e e e @ & & & & & & & & & u u u & & q a k 5 l       m.+ n.",
"m.m.m.; ;   . t t t t t t t t t D D D D D D D D D D D D D D D D D D D D D D + l @ 4 . h   T   s + n.",
"      % D                       # # # # # # # # # # # # # # # # # # # # # # : +   T # + T   # % : n.",
"m.    b b m.                  T # # # # # # # # # # # # # # # # # # # # # l 3 k m.m.: 4 l m.+ $ 4 (.",
"m.    mXt     m.m.m.m.m.m.m.  h # T T T T T T T T T T T T T T T T T # T # # % .     # . T   T + % n.",
"m.    m.m.    m.          m.  h # T # # # # # # # # # # # # # # # # # T # # T         m.      s + n."
};
