/* XPM */
static char *result[] = {
/* columns rows colors chars-per-pixel */
"50 50 131 2 ",
"   c #000000",
".  c #3E3F3E",
"X  c #533918",
"o  c #5D3F1E",
"O  c #563F22",
"+  c #403F3F",
"@  c #3E403F",
"#  c #5B401E",
"$  c #63441D",
"%  c #6C4A1F",
"&  c #77511E",
"*  c #79521E",
"=  c #41413F",
"-  c #654926",
";  c #6B4D21",
":  c #724E24",
">  c #6C502D",
",  c #725125",
"<  c #765327",
"1  c #785631",
"2  c #7B5B32",
"3  c #3F3F40",
"4  c #3D4140",
"5  c #444444",
"6  c #494747",
"7  c #474947",
"8  c #464749",
"9  c #494749",
"0  c #474949",
"q  c #4C4C4C",
"w  c #504F4F",
"e  c #4F504F",
"r  c #50504F",
"t  c #4F4F50",
"y  c #514F51",
"u  c #4F5150",
"i  c #545453",
"p  c #595757",
"a  c #575957",
"s  c #595957",
"d  c #565658",
"f  c #585658",
"g  c #575959",
"h  c #5E5C5D",
"j  c #615E5D",
"k  c #5E605F",
"l  c #60605F",
"z  c #5F5F60",
"x  c #5E6060",
"c  c #606060",
"v  c #BA5100",
"b  c #846138",
"n  c #8F663E",
"m  c #8D6A3D",
"M  c #916637",
"N  c #90673A",
"B  c #926A3A",
"V  c #9A6D3D",
"C  c #9A703E",
"Z  c #EA6B14",
"A  c #F4741A",
"S  c #967244",
"D  c #9C7443",
"F  c #9F7A4A",
"G  c #967851",
"H  c #A27847",
"J  c #A57C4B",
"K  c #A97F4D",
"L  c #AA7F50",
"P  c #008F39",
"I  c #00913D",
"U  c #008F4D",
"Y  c #009041",
"T  c #008E51",
"R  c #009E55",
"E  c #009F5A",
"W  c #00A362",
"Q  c #00AB6E",
"!  c #00AD73",
"~  c #00B076",
"^  c #00B27C",
"/  c #FF861F",
"(  c #AA814F",
")  c #AE8453",
"_  c #AF8855",
"`  c #AC8B5F",
"'  c #B08655",
"]  c #B48D5C",
"[  c #B6905F",
"{  c #B48B60",
"}  c #B69164",
"|  c #BB9365",
" . c #B6926A",
".. c #BF9669",
"X. c #BF9A6B",
"o. c #BD9975",
"O. c #B09A7A",
"+. c #C0966A",
"@. c #C29D70",
"#. c #C5A176",
"$. c #C7A57C",
"%. c #43C299",
"&. c #BFAA88",
"*. c #C1A381",
"=. c #C3A886",
"-. c #CEAE84",
";. c #C6AB8B",
":. c #CFB085",
">. c #D4B58C",
",. c #D6B88F",
"<. c #CCB297",
"1. c #C7BA9F",
"2. c #D7B991",
"3. c #DABB93",
"4. c #D9BE99",
"5. c #88D2B6",
"6. c #9FD7BF",
"7. c #DEC29C",
"8. c #E0C39D",
"9. c #B9E0CE",
"0. c #B5E3D1",
"q. c #D4E3D9",
"w. c #E1E1D6",
"e. c #E4EADE",
"r. c #DFEAE0",
"t. c #EEEDE5",
"y. c #F2ECE9",
"u. c #E4F3ED",
"i. c #E9F3ED",
"p. c #F4F3EF",
"a. c #F8F8F8",
/* pixels */
"h h h h l j h h h h g h h h h z h h j j h s h j h h i i w j q j h j y h h j h h h j d j h h h h j h ",
"h j s h l h h g h h h g h h h h h h h h h h h h j i i h s j 9 j j j y d d z h h z j h h h h q h h z ",
"h g j h j j s j j i j j h j j h h h h h s a h i j j i j j q q j q q h i f h h h z a d h t q h z j y ",
"j h h h h s h j i h i i h h g h h z g a i h i h i s h h j q q q j q y i a j h g h d i h h q h 6 h h ",
"h h k s g h j i i i h h j g h j g h h s h i h e q w w q q q q q q y y j a s j h f d j u h q q h h j ",
"h h k h j h i i h j i h i i h j z h h j i h i r w q q q q q j q q q y j d h s s g d i i t q h q h j ",
"h h h g j i i j i s i i i i a i h g s h i i q q q j q h q h q j q j h i i h h g s f i i h q q q j f ",
"h h g a d h i i i q w y i j i a a h a i i q q q q 9 h j q q q j q q j i i a s h g f i i i h h h h h ",
"h h h i i i j y w j r h r i i i h a i h h e q h h 9 q q h h h q q q r r l s h s s g f i i j i i h y ",
"h a j i h i y q w q q i i i i h z i z i u h h q 9 h 0 h q h q q q q e r i a s s g g g p p i i i h d ",
"j h i j y y q w j q i e i j i f h f h i u u q q h h q h h s e h q q j h h i a a f j h f f s d f f h ",
"h y w q q t j q w h h i i p g g h h i i h u q q q q q h e e e q q h h q r r i i p j j j g h j h h h ",
"h j h 9 q q q h q i i i h d h g g j g i h i e h h e h e h e e q q q q q h e h i h p g h h g z h j j ",
"h h h 6 j 6 q h q y i i i f s s g j j g i i u u h h h h u i u e j q q q q h y i i i g g h h g h j j ",
"h 5 5 h 5 j 6 j h i i s j h f g h g g s p i i i i i i h h h h h q h q q q q q j i d j j z h h h j j ",
"j + + 5 5 6 6 q w i i i i j d d f h j h g i               i h u h j 9 q j w w y i i f s f h h h j j ",
". h @ = j 5 h h t h y i j i i j g j g s g   I I I I I I I   i h q q q q q q q i h i p g f j h h j j ",
"h @ . j 5 5 h q q y j j i j i i p g g h   I I I I I I I I I   i i y u t h i w y h i j j j f h h h f ",
"h j . @ h 5 7 q w r y y y i i i f g g s   I I   I I I   I I   d j i i y u u h i i f i f f j h z i j ",
"h h @ 5 h 7 9 h q r j i y j i i p f f f   I I   I I I   I I   i y j i i h i i i i i i f f i i i i j ",
"3 h 5 5 5 5 q q i y i i i i i i i i i i   I I           I I   i i i d i i p i i j h i i i y h h h h ",
"h h 5 5 8 q q u q i i s s i j y j i i   I I     v / v     I I   i j i f j g h i z i i i i y h j h z ",
"h h h 8 h q h y y i y j i w h h i j i   I   v / / A A A A   I   i j f j h f f p i j y i y t h h h h ",
"h h 8 q q t y i j i i y i h i u i h t   I   v Z Z Z Z Z Z   I   h f j g h g j p i y y t t t q h 9 j ",
"h z 9 j t y z y i i i i i w q i i q i   I I   / / / A A   I P   p i h h s h i i i j h h q q j j h z ",
"h h j h h j j d j i i i r i i i u i t   P P P           P P P   i j g g f h i i t q q q 9 h h j h 6 ",
"h 9 h z h i h h f f i i i h i i i i i   U R P P P I P P Y E T   i p g g g f i i q q h 9 9 q 9 9 h j ",
"j t h h i y d h j j i i i h i i i     p.r.6.! W ~ ~ Q ^ %.5.q.a.    f d f j i y t q q 9 h 8 j 9 9 j ",
"h 9 h h y d d f j g i j i i d d   ) G O.&.w.i.i.u.0.5.9.p.e.1.O.' )   p d j h h q h 9 9 9 6 h 6 q 9 ",
"h j q t h h d f h f j p g a     ) K ) `  .&.<.y.t.t.p.p.&.*. .' ) ) )     i i t h q h q 9 6 q q h j ",
"h h y t y f d f j g i p p   ) ) ) ) ) J ) { o.;.<.;.=.*.} ) H ) ) ) ) ' )   i i q q 9 9 6 q q j q j ",
"q q h h y y y d i j f g i   ) ) ) ) ) ) ) ) ) ) ) ) ) ' ) ' K L ) ) ) ) )   h h h h h q 9 h q h h y ",
"h j q q h y i i j d h f   ; S   < H ' ( ' ( J ( ' ( J ( ) ) ' ) ) H *   S ;   y y h 9 h q q h q h y ",
"h 9 h q t t i d h j h f   , S   ; D ' ) ) ) J ( ) ( ( ) ) ) ) ) L V &   b -   i t q j 8 8 h h h j h ",
"z 9 h 9 t y i i d y f   % b L   ; D ) H ( ) ) ) ( ' ) ) ) ' ' H M C *   F 2 *   q h 9 h 8 6 j h j h ",
"h h 9 h h j i i j d f   $ b   * b H ) ) ) ) ) ) ) ) ( ( K K K H B ) S *   , $   q 6 9 8 h 6 6 q q t ",
"h h y 9 y y y p f h h   $ 1   : n H ) ) ' ' ' ( H H K K H K K H H K N *   O X   8 8 5 6 j h 6 h h j ",
"h h 9 9 z y i i f h h   o >   % B N ) ) ) K J ( ' J ) K H ' ' K J m m &   > #   8 5 5 5 h z 9 h q q ",
"h j 9 h q y y d f h g   ; B   < D B ) ) K H V J ) ' ) K ( ) ) ) ' S C &   m :   5 5 4 h 5 h 9 q t h ",
"h j j h h y y f s g z   J ( ' ( ( ( ' ' ( H J ) ' ( ' ) ' ' ' ) ) ) ) ) ) ) )   5 z 5 3 6 h 8 h h h ",
"j h j 6 q q i i h h h   ) ) _ ) ' ) ) ) ) ( ' ) ) ) ) ' ) ) ) ) ) ) ) _ ] ) )   h h h 3 5 h h 9 t h ",
"h j 5 6 6 h i h f h h x   8.>.@.} ] ] ' ) ' ( ' ' ) ' ' ' ) ' ) ) [ X.#.-.7.  5 h h 5 + 5 h h t t y ",
"h h 5 5 j q h i h h z h x   8.7.2.>.-.@.+.| ..+.+.} { } | | +.@.$.:.4.7.7.  q h 6 5 3 h 6 8 9 9 h h ",
"h j s 5 j h e i a g h x z   8.8.8.8.8.7.3.,.,.>.,.,.3.3.3.3.3.>.7.7.8.8.8.  9 7 5 h h z h h z t y h ",
"h j h + 7 h e i g h h h h z       7.8.8.8.8.8.8.8.8.8.8.8.8.8.8.8.8.      q q j 9 6 j j 9 6 q y y h ",
"j + h 6 h q e i h h h z c c h h h                                   h i h e h h z 9 6 j h h h h h h ",
"h h h 6 7 h h i s h h z c c x c z h g a d i i h h i j j h h j h i h i h i h r q q j q q j y j y h h ",
"h h h 6 h e i h d h h j h h x x h z h h h i h i h y y h f h h h i j f h i h i w w h q h h j d h h h ",
"h h j h q y i f h h j j h h h h h h h h f f i j h h h h h d h h d j d d i h i y y y y y h j h j h h ",
"h h 8 h h q h h j h h h h h h c h h c h h h h h h y h h j j y j h j h h j h h j h i j j h h h j h j "
};
