/* XPM */
static char *result[] = {
/* columns rows colors chars-per-pixel */
"50 50 256 2 ",
"   c black",
".  c gray3",
"X  c #040404",
"o  c gray40",
"O  c #605E5E",
"+  c #666464",
"@  c #4A4848",
"#  c #626060",
"$  c #010101",
"%  c #646262",
"&  c #464444",
"*  c #222120",
"=  c #060605",
"-  c #7C7A7A",
";  c gray10",
":  c #484847",
">  c #464645",
",  c #545252",
"<  c gray4",
"1  c #444242",
"2  c gray11",
"3  c #4E4C4C",
"4  c #131313",
"5  c #484646",
"6  c #5C5A5A",
"7  c #353434",
"8  c #3C3C3B",
"9  c #0C0C0C",
"0  c #090808",
"q  c #3A3939",
"w  c #5E5C5C",
"e  c #313030",
"r  c #0E0D0D",
"t  c #333232",
"y  c #444444",
"u  c #50504F",
"i  c #363635",
"p  c #585656",
"a  c #565454",
"s  c #181817",
"d  c #504E4E",
"f  c #4E4E4D",
"g  c #4C4A4A",
"h  c #525050",
"j  c #1E1E1E",
"k  c #2F2E2D",
"l  c #656264",
"z  c #3E3E3D",
"x  c #424040",
"c  c #444442",
"v  c gray25",
"b  c gray26",
"n  c #6A6668",
"m  c #202020",
"M  c #120E08",
"N  c #5F5D5D",
"B  c #525250",
"V  c #403E3E",
"C  c #111010",
"Z  c #817E7E",
"A  c #4C4C4C",
"S  c #100C06",
"D  c #91764C",
"F  c #545453",
"G  c #9F8154",
"H  c #040201",
"J  c #322718",
"K  c #292828",
"L  c #161616",
"P  c #9C7C4F",
"I  c #9F8152",
"U  c #060906",
"Y  c #A38556",
"T  c #2C2B2B",
"R  c gray29",
"E  c #686666",
"W  c #0C0B08",
"Q  c #A18354",
"!  c #171410",
"~  c #A18153",
"^  c #565654",
"/  c #252523",
"(  c #9A794D",
")  c #6A6868",
"_  c #888787",
"`  c #40403E",
"'  c #1D1810",
"]  c #15120D",
"[  c #033819",
"{  c #493C29",
"}  c #109A48",
"|  c #1B1717",
" . c #383837",
".. c #2C261D",
"X. c #565656",
"o. c #414240",
"O. c #14100A",
"+. c #3E3C3C",
"@. c #352F26",
"#. c #DAC49D",
"$. c #4A4A48",
"%. c #A68756",
"&. c #AA8B59",
"*. c #5A5858",
"=. c #CBB591",
"-. c #95784E",
";. c #043317",
":. c #403524",
">. c #312A1C",
",. c #261B0D",
"<. c #119546",
"1. c #8F7247",
"2. c #312C22",
"3. c #1F161B",
"4. c #B79E75",
"5. c #5A4C35",
"6. c #A6885A",
"7. c #8F6F44",
"8. c #C1AE90",
"9. c #866942",
"0. c #615038",
"q. c #51422D",
"w. c #767575",
"e. c #676466",
"r. c #B3A181",
"t. c #6E5733",
"y. c #12321C",
"u. c #020806",
"i. c #A89779",
"p. c #646061",
"a. c #CA6820",
"s. c #9D7E52",
"d. c #DD7425",
"f. c #062112",
"g. c #3D3220",
"h. c #AA8D61",
"j. c #C1AB85",
"k. c #81643C",
"l. c #24201A",
"z. c #987D51",
"x. c #534734",
"c. c #61605F",
"v. c #E77928",
"b. c #896A3E",
"n. c #1E1C1C",
"m. c #362C1E",
"M. c #2D2212",
"N. c #1B4027",
"B. c #002611",
"V. c #0D7738",
"C. c #BCA175",
"Z. c #9D835A",
"A. c #735A32",
"S. c #E4E4DB",
"D. c #584933",
"F. c #AE9061",
"G. c #86673A",
"H. c #6D5B40",
"J. c #221E18",
"K. c #8E8066",
"L. c #5AB486",
"P. c #A08863",
"I. c #96886E",
"U. c #17A14F",
"Y. c #372110",
"T. c #4D3D26",
"R. c #A4906F",
"E. c #25221F",
"W. c #483E21",
"Q. c #1B161A",
"!. c #622F0F",
"~. c #0E8F43",
"^. c #64543C",
"/. c #585858",
"(. c #753711",
"). c #494237",
"_. c #957C54",
"`. c #BDA57C",
"'. c #7C5D31",
"]. c #E8F1EB",
"[. c #03150A",
"{. c #B08E5B",
"}. c #76736F",
"|. c #6E3614",
" X c #D1BB95",
".X c #0C873F",
"XX c #877860",
"oX c #626262",
"OX c #E2782A",
"+X c #B35E21",
"@X c #DDC8A2",
"#X c #A78B62",
"$X c #C5AF8A",
"%X c #172D1B",
"&X c #36322C",
"*X c #CE6D23",
"=X c #EDD8AF",
"-X c #1B4C2B",
";X c #B49565",
":X c #544D41",
">X c #0B813C",
",X c #493617",
"<X c #C5B39A",
"1X c #183F24",
"2X c #937446",
"3X c #EAD2AC",
"4X c #ED812D",
"5X c #50B180",
"6X c #EBE7E1",
"7X c #896C40",
"8X c #DFEFE7",
"9X c #502A10",
"0X c #877A64",
"qX c #0A6E34",
"wX c #766E60",
"eX c #6C6452",
"rX c #DFCBA5",
"tX c #5A4422",
"yX c #0A0608",
"uX c #06120A",
"iX c #5C461E",
"pX c #644C22",
"aX c #5C5444",
"sX c #283830",
"dX c #DFD5C9",
"fX c #645034",
"gX c #64BB8F",
"hX c #3E3A30",
"jX c #D16C22",
"kX c #626260",
"lX c #B19364",
"zX c #81745E",
"xX c #9FCFB7",
"cX c #B56024",
"vX c #D3F1DF",
"bX c #7E7E7E",
"nX c #362A1A",
"mX c #1E6034",
"MX c #9F8F72",
"NX c #B5DDC7",
"BX c #766C58",
"VX c #6E6452",
"CX c #6E401E",
"ZX c #463A28",
"AX c #205C36",
"SX c #567866",
"DX c #1A522C",
"FX c #9B4E18",
"GX c #2E2C2C",
"HX c #894E22",
"JX c #D1B991",
"KX c #065428",
"LX c #12AB50",
"PX c #878D87",
"IX c #70C799",
"UX c #F5F1E7",
/* pixels */
"p.p.# p.p.p.p.# c.# # c.# # # # # # # # # c.# % + e.e.e.e.+ e.e.+ + + e.e.+ + e.e.+ e.e.e.e.e.e.% w.",
"p.# p.# # # # c.p.O p.l l l l l l l l l l % N + n n n n n n E % E n n % e.n n + % n e.e.e.e.e.E O w.",
"# # p.# # p.p.% h z @ h u h h h h h u h h u V : a a , , , a 3 z 3 a h x > a a > ` h % # N N N O & o ",
"p.p.p.# c.p p a 4   X X = = = = = = X = X . = X = . X X X X X X X X = 0 X X < = $ = a N , a a ^ : }.",
"# c.c.c.N A 5 z <                         $       $                   =     = $     a O F ^ ^ p B - ",
"# % + + % u g c r                         $                           X     $ $   $ a N B a F ^ f w.",
"6 e ; j m L 4 4 X     4  .i i i i i r     r T k 7 e T k 2     = k e k i z 5 t     $ s L 4 4 4 4 4 % ",
"6 ;     $       $     j , u u u u d L     s $.f F f > R GX    0 y 5 y u 6 ) @     $ $           $ kX",
"e.*   $ .             2 f R R : & A s     . 3.3.3.Q.Q.3.r     . v b v a N 6 V     $         $   = ) ",
"e.*     C * 2 ; =     2 d R g > b f s     uX[ [ [ [ [ [ f.    . x 1 x p c.p 8     $ j m j C     . ) ",
"E *     2 d 3 @ r     2 f @ @ @ @ g L     y.U.} } } } LXmX    0 b 1 b u p w V       g a f K     = o ",
"o *     L +.y > 9     2 A @ @ @ @ : 4   X %XV.V.~.~..XV.DX    0 1 c 1 c $.X.q       x a f T     X o ",
"o *     ; @ @ > r     2 A @ @ @ @ g L   H N.;.[ } <.>X[.N.0   0 1 c 1 A h p 8   $ $ x O # t   $ 0 - ",
"o /     2 d @ > r     2 R : @ @ : R s   H N.y.;..X>XqX[.-XyX$ 0 1 & 1 u F p 8   $ $ v w e.7   X < - ",
"o *     ; 3 @ v <     ; V v @ @ z ` L     y.[   U U X uX1X    . b c c d F a t        .@ p.t     . - ",
"o *     ; f @ b <     2 c c @ @ 1 V 9     < U Y.FX+X(.S uX  $   T : 1 d F X.i       8 h l t     0 - ",
"+ m   $ j > z > r     2 3 @ V v R > 0 0 $ ,.cXOX4Xd.*Xa.CX  9   / @ b f , X.8 $ X $ b c.c.k   X 9 - ",
"+ j     2 5 z > r     2 A : V v @ & <     M.*Xd.jXa.a.OXHX  H   / $.c A u F  .      x c.c.GX    < - ",
"o *     ; f @ b <     2 5 > @ @ 1 z 0     S +X4Xv.v.d.OX9X      / 5 8 R h F i       8 u l t     . - ",
"o /   $ 2 f @ x < $   2 c c @ @ V q 0 . r f.W.(.|.|.!.!.%X< r   / &  .@ h F 7 $ X X q @ p.i   X 9 - ",
"+ *     2 g b x 9     ; : y y y @ 1 . $ $ N.KXf.B.B.B.;.DXH =   * A b @ @ d i   $ $ z a # e   $ < - ",
"% 2     ; : 8 V <     ; > x 1 b i  .C     %X<.<.} } <.U.AX    = e t q @ ` @ 7       8 a 6 T     0 - ",
"e.*     ; A b V <     ; 5 & v e ' &Xe     sXL.L.gXL.5XIXSX    k }.M ..v $.f t       q d # e     0 - ",
"o *     ; f y V <     ; 1 v T ' D _.2.    o.].].8XNXxXvXPX    | P.%.fX4 : : e       t ` c.7     0 - ",
"o *     ; f 1 V <     ; k M :.z.z.6.2.    &XdX6XS.S.S.UXwX    ] G Q Q H.! l.GX      q g p.7     0 - ",
"o *     ; f y V <   $   ZX-.D Y G 6.J     GXj.<X<X8.8.<XH.    O.s.G Q s.D 9.W       +.a % 7     0 - ",
"o *     ; A 1 V <   H   { {.6.G G %.>.    2.#X#X#XP.Z.lX^.    O.I Q G Y {.D $       i , % e     0 - ",
"o *     2 h 5 b <     S t.H.T.7X-.%.>.    ..G s.I P ( &.0.    O.s.I 2Xt.{ 9.J        .F % t     0 - ",
"o *     s p *.B C     ,.9.:.M A.1.%.>.    ..I G G s.( &.0.    O.G P G.,X= A.T.X     +.@ F t     0 - ",
"o *     s p *.B C   $ ,.2Xq.M A.7.Y >.    2.G ~ G I z.6.^.  $ ! D 7.G.,Xr k.q.X     +.@ F t   $ < - ",
"o /   $ m + /.B 4     >.9.ZXM.A.1.Q m.= = @.Y ~ G G s.&.^.= < ' b.b.7.tX,.H.D..   $ 8 F % i   X 9 - ",
"o *     n.% X.h C     nXg.,.'.k.D Y J   H ..G P ( ( z.%.5.    M 7X2X( k.iX' :.$     8 h # t     . - ",
"o *     2 % O X.C     nXg.M.'.7.( {.m.    2.&.Q P I Y {.0.    ] P I P b.pX' g.X     ` /.)  .    < - ",
"o /   X C k e GX9     | ,.O.:.{ { 5.J.. . E.D.D.D.5.x.5.@.. < ! x.q.{ T.J S ...   $ * k  .m X = r bX",
"o *   $ X       $               X     $   .       $       $           X     = X             $   < Z ",
"o *     X       $                         0 $   $ <   $               .     . X     $           < Z ",
"o *     = 9 0 0 X     H S M M M M M X     9 ] M ] W           $ M M O.! M M O.X     . 0 < =     < Z ",
"o *     ; *.d $.r     x.j.R.Z._.D z.J     ..D D D l.  $       C 1.D _.Z.P.4.K.$     i @ 6 e     0 Z ",
"o *     j o 6 F C     E.i.JXj.C.4.C.m.    2.h.h.h...  X $     ] F.4.C.j.=.$X:X    $ i 1 l  .    < Z ",
"o *     n.% X.B C   X   aX=X@X#.=.JX:.    &XC.4.4.J.      $   ! `.$X XrX3X=.        q 3 l i     < Z ",
"o *     j 6 3 B C     . :XK.0XI.@X3X).    hX#.#.#.I.BX0X).    ' #.3X8.XXK.zX;       z p + i     < Z ",
"o *     j N u B C     K q < 9 E.MXr.@.    k i.i.i.r.r.8.eX    4 i.r.eXX . L i       z a l i     < Z ",
"o j     ; ) w ^ C     * O w c., 2 s .     = ; s s L 4 L 9     $ L 4 k ^ B ^ e       v *.) i     = Z ",
"+ e 4 4 K h 5 b C $   2 : y y y x y L     L b o.x z 8 ` /   $ 0 8 8 8 8 8 +./ $ $ $ e > h i L s n.Z ",
"# oXoXE :     $ X   $                 $   X $   $ $         $         $     $ $   $ $ $   T ) p.w _ ",
"# # # E g     $ X                         X $   $ H                   X     X $   $ X     K E # 6 _ ",
"# # c.w & $   X X                         X $   $ X                   X     X $   $ = $   T + p p _ ",
"p.# c.f @ g @ @ @ : : : : : : : > > > > > 5 > > > 5 > > > > > > > > > 5 > > i 8 @ @ 1 +.: a 6 @ h _ ",
"p.# # 6 w + + + + + + + + + + + % % l l l % % l % % l % l l l l l l % % % % 6 c.+ + p.c.+ % O 6 *._ ",
"p.# # p.p.c.# # # # # # # # # O N N O O O O O O O O O O O O O O O O O O N N O c.c.c.c.# c.c.# l 6 _ "
};