/* XPM */
static char *result[] = {
/* columns rows colors chars-per-pixel */
"50 50 137 2 ",
"   c #000000",
".  c #3E3F3E",
"X  c #5B3F1A",
"o  c #403F3F",
"O  c #004A21",
"+  c #005322",
"@  c #005B25",
"#  c #005E2E",
"$  c #3E403F",
"%  c #006026",
"&  c #006C2D",
"*  c #00722F",
"=  c #006637",
"-  c #006D30",
";  c #007231",
":  c #007C33",
">  c #5C441F",
",  c #62441D",
"<  c #79521E",
"1  c #41413F",
"2  c #6E4D23",
"3  c #694C28",
"4  c #755122",
"5  c #7F5927",
"6  c #74542C",
"7  c #78572F",
"8  c #7C5A2C",
"9  c #735531",
"0  c #7D5E34",
"q  c #725A39",
"w  c #3F3F40",
"e  c #3D4140",
"r  c #006848",
"t  c #444444",
"y  c #494747",
"u  c #474947",
"i  c #47474A",
"p  c #494749",
"a  c #474949",
"s  c #4C4C4C",
"d  c #504F4F",
"f  c #4F504F",
"g  c #50504F",
"h  c #4F4F50",
"j  c #514F51",
"k  c #4F5150",
"l  c #545454",
"z  c #595757",
"x  c #575957",
"c  c #595957",
"v  c #565658",
"b  c #585658",
"n  c #575959",
"m  c #5E5C5D",
"M  c #615E5D",
"N  c #5E605F",
"B  c #60605F",
"V  c #5F5F60",
"C  c #5E6060",
"Z  c #606060",
"A  c #BC5200",
"S  c #825E30",
"D  c #85602B",
"F  c #8A6434",
"G  c #82643D",
"H  c #8E6A3C",
"J  c #90683C",
"K  c #96703E",
"L  c #CD5E10",
"P  c #E25E00",
"I  c #D76515",
"U  c #EA6B14",
"Y  c #F4741A",
"T  c #826846",
"R  c #947145",
"E  c #90714A",
"W  c #9C764A",
"Q  c #97784F",
"!  c #A07745",
"~  c #A17846",
"^  c #A47B4A",
"/  c #A87F4E",
"(  c #A77F51",
")  c #008236",
"_  c #008539",
"`  c #008B3B",
"'  c #00913D",
"]  c #008F40",
"[  c #009345",
"{  c #00984B",
"}  c #00A15D",
"|  c #00A667",
" . c #00AC74",
".. c #00B177",
"X. c #FF861F",
"o. c #AA814F",
"O. c #AE8453",
"+. c #A5825C",
"@. c #B08756",
"#. c #B28758",
"$. c #B18B5D",
"%. c #AB8D68",
"&. c #B58D60",
"*. c #AA916F",
"=. c #B89469",
"-. c #B59974",
";. c #BB9B75",
":. c #BB9E79",
">. c #BCA27D",
",. c #C0A077",
"<. c #C1A17D",
"1. c #00B681",
"2. c #37C399",
"3. c #BFA582",
"4. c #C2A682",
"5. c #C9AC82",
"6. c #C9AD8C",
"7. c #CDB28C",
"8. c #D2B38C",
"9. c #D2B692",
"0. c #D9BC94",
"q. c #D1B89D",
"w. c #DCBF99",
"e. c #DEC29C",
"r. c #E0C39D",
"t. c #BDDFD1",
"y. c #BAE5D4",
"u. c #E2D6C6",
"i. c #E8DCCF",
"p. c #ECE2D5",
"a. c #EFEADF",
"s. c #DDEDE5",
"d. c #EEEDE8",
"f. c #EEF6F0",
"g. c #F3F2F1",
"h. c #F9FAF7",
"j. c #FDFEFE",
/* pixels */
"m m m M B m M m m m x M m m V m m M m V m c m m m M l g g M s m M m j m m M m M m m b m m m m m m m ",
"m M c m m m m n M m m n m M m m m m m m m M M m M l l m M M s M M M j v b m V m n m m m m m s M m m ",
"m n M m M M c M M l M m m m M m m V m m c l m l m m g m M s s m s s m l n M M M V v b M h s m m m j ",
"M m m m m n m M l m l l M b n m m m n x l m l m l m m M M s s p M s j l l M n V m v l M m s m s m m ",
"m m m N n m M l l l m m M x m m n m m x m l m f d d s d s d s p s d d M x c m m b v m k m s i m m m ",
"m m N m M M l l m m l m l l M m m m M m l m l g s s s s s s M d s s d M l m n m n l l l h s m s V m ",
"m m c c m l l M l m d l l l l c m c x m l l s s s M s m s M s m d m m l l M m n m b l l m s s s M M ",
"N c m n l m l l k f j l l m l x n M x l l s s s s s m m s s s m s s m l l x c m x v l l l m m m M M ",
"m m m l l l M j s M d M l g l l m x l m m f s m m u u s m m m s s s f l M x m c n c b l l M l l M j ",
"m x M l M j j d j s s l l l l m m l m l k m m s s m s m s m s s s s f g l l x c n n n b l l l l M j ",
"m M l m j j s d m s h l l M l z m x m l k h s s m m s m m c s m s s M M M l x x b M m b m l v b m m ",
"m j j s s h M s d m m l l l z n V m v l m k s s s a s m f f f f s M m s g g l l l M M M n M M m M m ",
"m M M p s p s m s l d l m l n m n M b l m l f m M s M s m f f s s s y s m f m l M z b n m n m m M b ",
"m m M t M s s m s j l l l n n m n M m x l l k k m m m m l k k f M s s s s m d l l z n m m m n M M M ",
"M t t M t M y M m l l m M M v n n n n m l l l l l l l m m M m m s m s s s s d m l l M m b V m m M m ",
"m w o t t y y s f l l l l M l b               l m l M n l l m k m m s s M d s l l l b n m m m M M V ",
". m $ 1 m t m m s m j l M l l   ' ' ' ' ' ' '   x m n n n v v m s f s s s k s l m l l m b M b V M V ",
"m . . M t t m s s d m m l M   ' ' ' ' ' ' ' '     n c m M b l l l d k s m l h j m l m m M b m m M b ",
"m m $ $ m t u s g g s l l j   ' ' ' ' ' ' ' ' ` ;   m c m v v l m d l j s f m l l b l b b M V m b M ",
"m M $ t M t s m s l m l l   ' ' ' ' '   ' ' ' ) &   m m n b l l l m l l M l l l l l l b b l l l j M ",
"e m t t t i s s g s l l l   ' ' ' ' '   ' ' ` * %   m m m n l l l l l l l l l l m M l b l j m M M m ",
"m m t t i s s s g l d m m       ' ` )   ' ' _ * +   m M n b l l l m z b M z M l m l l l l j m M m M ",
"m m m i m s M s l l         X.P   @ ) ' ' ' ` * O   m n m M l z b m b M m b z z l m l j j h m m m M ",
"m m i s s h j l m   X.Y U U U U L   ) ' ' ' ` : +   n n n n l l m b M n m n m b l l h s h s s m p m ",
"m m h M j j m l l   X.U U U U U A   : ' ' ' ' _ -   M x v l l x z l m m m n l l j m m m s p M M V m ",
"m M m m m M m v M l   U L U U I   @ ) ' ' ' ' ] `   l l l v M M v M n n b M l l h s s s s M M M m t ",
"V p m m m l m m b z l           @ : ` ' ' ` ` { [       k l l l l l b n n b l l h s m s y y p p m m ",
"m s m m j l l m M M l l   # r = _ ] ' ' ' { } 1.t.g.d.  l l l l l m b b b M l j   s p s m y M p p m ",
"m p V V j l v b m n z m   j.s. .| } .... .2.y.h.d.q.$.O.        l l l n v m m m   M s y p p M s s s ",
"m m p j V m b b m z m z   g.j.j.j.j.j.h.f.h.h.p.<.#.O.@.O.O./ 4           v l   e.  m s i s p p m m ",
"m m j s j v l b M v b l   +.6.i.a.p.u.q.5.6.4.;.@.O.O.O.O.O.O.W R ^ O.< 4       r.  p s p p p M d M ",
"p s m m j j l b n M l v   O.@.&.=.=.&.O.@.O.@.O.O.O.O.O.O.O.O.~ J H F 8 0 W w.r.r.  m p p M s M M j ",
"V m j j m j l l m v m   O.O.O.O.o.@.@.O.O./ J   @.O.O.O.    @.4 2 , , X 3 Q ,.0.0.  y m s s m s m j ",
"m p m p h j l v m M m   O.O.O.O./ O.o.@.o./ 6   O.O.O.O.O.O.              O.%.8.9.  M i i m m m m m ",
"m p m s h j l l v l b   O.O.O.o./ o.@.@.@.^ F O.O.O.O.O.o.@.@.o.O.O.( H <   G 8.r.  s M i y M m m m ",
"m m p m M M j l M b b   O.o.O.O.o.O.o.o.O.o.o.@.O.O.O.@.@.@.o.@.O.O.! 5 <   9 5.e.  i t m y y s s j ",
"m m p j s j l b b M m   O.^ O.O.O.O.o.~ O.O.O.O.O.O.O.O.O.@.@.O.O.~ F < <   7 :.e.  t t M m y m m m ",
"m m p j M j j l z n m   O./ O.O.O.O.@.! o.O.O.@.O.O.O.O.O.O.o.@.@.J D < <   E -.  t t t m V p m s s ",
"m m p m s j j b n m m   O.O.O.o.O.O.@.o.O.@.O.  O.O.O.O.O.O.O.O.o./ K <   8 %.9.  t t m t m s s j V ",
"V m m m M s j b z m m m   O.O.~ O.O.O.O.O.O.W 4   @.O.O.O.O.O.O.@.@.O.  *.:.9.r.  V w o t m i m m m ",
"m M M y s s l l n m m V   O.O.O.O.O.O.O.@.O./ H S O.O.O.O.O.O.#.      0 >.9.e.  V m m t t m m s s m ",
"m M t t y M g M n M N C   O.O.O.O.@.O.O.O.O.@.o./ O.O.          4 6 G :.w.r.  t m m w t t m V p s s ",
"M m o t M s m l M m m m C   O.O./ ^ ! R H J H R ( $.+.T q q q T *.-.4.w.e.  y m t t w m t i p h M m ",
"M m M t M m k l z n m C m   J H J J J J J J J $.$.$.$.q q -.-.-.-.r.e.r.  m s u t M m m M m m s j m ",
"m M m t t m k l c m m m Z m     R 2 2 2 2 , > 3 R 7.3.>.4.6.6.8.e.e.    l s s M y i M M i s s h j M ",
"m o M t m s k l m m V m Z Z V M                                     m l m s m m M p i M M M M m m m ",
"m M m t s m M l n m m V Z B m C n m n x l l l m m j m m m m m M l m l M l m d s s M d s m j m j M m ",
"m m M i m s l M n c m M m m C C V V M M m l m l m j l m j m M M l M l M l m l d d M j m m m j M m V ",
"M m m M p j j b m M m m m m m m m m m V b b j m m m m M M j M M v M v v j m l j j j j j M M m M m m ",
"M m i m M h m m m M m M V m m Z m m m m m m m m m l V M m m b m m M m m m m m m M l M M m M m M m M "
};
