/* XPM */
static char *result[] = {
/* columns rows colors chars-per-pixel */
"50 50 256 2 ",
"   c #626060",
".  c #5E5C5C",
"X  c #9F8154",
"o  c #585656",
"O  c #545252",
"+  c #5C5A5A",
"@  c #4A4848",
"#  c #605E5E",
"$  c #A18354",
"%  c #5A5858",
"&  c #4C4A4A",
"*  c #444442",
"=  c #626262",
"-  c #444242",
";  c gray32",
":  c #666464",
">  c gray29",
",  c gray26",
"<  c #4C4C4C",
"1  c #565654",
"2  c #4E4E4D",
"3  c #484847",
"4  c #444444",
"5  c #464444",
"6  c #414040",
"7  c #565454",
"8  c #60605F",
"9  c #50504F",
"0  c gray33",
"q  c #686466",
"w  c #646262",
"e  c #5C5C5A",
"r  c #565656",
"t  c #525050",
"y  c #484646",
"u  c #0D8F43",
"i  c #A18356",
"p  c #0D9144",
"a  c #817E7E",
"s  c #5E5D5D",
"d  c #585856",
"f  c #504E4E",
"g  c #9C7D50",
"h  c #4E4C4C",
"j  c #464645",
"k  c #424240",
"l  c #A08254",
"z  c #525250",
"x  c #3D3D3C",
"c  c #4A4A48",
"v  c #858383",
"b  c #9D7E52",
"n  c #0F9847",
"m  c #3F3F3E",
"M  c #666264",
"N  c #9E8052",
"B  c gray8",
"V  c #1D1C1D",
"C  c #A38556",
"Z  c #464644",
"A  c #161617",
"S  c #09090A",
"D  c #4C4C4A",
"F  c #9F8152",
"G  c #0E0F11",
"H  c #0B8A40",
"J  c #585858",
"K  c #1D1710",
"L  c #464442",
"P  c #A7885A",
"I  c #18130B",
"U  c #A38456",
"Y  c #353535",
"T  c #372D1E",
"R  c #92754B",
"E  c #033719",
"W  c #060405",
"Q  c #A98A59",
"!  c #907348",
"~  c #282929",
"^  c #121315",
"/  c #0B8E41",
"(  c #282013",
")  c #12110E",
"_  c #96774C",
"`  c #8C6F45",
"'  c #636161",
"]  c #231B20",
"[  c #312F2F",
"{  c #997A4C",
"}  c #000002",
"|  c #826741",
" . c #067F3B",
".. c #D26A20",
"X. c #696667",
"o. c #B09973",
"O. c #BEA986",
"+. c #493A22",
"@. c #97866A",
"#. c #3B3A3A",
"$. c #6F5429",
"%. c #87693F",
"&. c #888787",
"*. c #896C42",
"=. c #0F9446",
"-. c gray14",
";. c #A68656",
":. c #109145",
">. c #2B251A",
",. c #2E2B2C",
"<. c #AB8B5A",
"1. c #55462E",
"2. c #997B50",
"3. c #020D08",
"4. c #393939",
"5. c #6A604D",
"6. c #7C5F37",
"7. c #8D7F65",
"8. c #544127",
"9. c #066933",
"0. c #745B35",
"q. c #33281A",
"w. c #41331C",
"e. c #AF8E5D",
"r. c #9E855D",
"t. c #033D1A",
"y. c #A58B62",
"u. c #7E6239",
"i. c #061F0E",
"p. c #493419",
"a. c #B59E78",
"s. c #057035",
"d. c #5F4929",
"f. c #DCC69F",
"g. c #3D301E",
"h. c #CCB692",
"j. c #D5BF99",
"k. c #595041",
"l. c #1B191B",
"z. c #C66721",
"x. c #9B7C4E",
"c. c #5E4C2F",
"v. c #685334",
"b. c #5A5A5A",
"n. c #957F59",
"m. c #747373",
"M. c #D96F22",
"N. c #4F3E27",
"B. c #614E33",
"V. c #C1AD89",
"C. c #81817E",
"Z. c #7C6E55",
"A. c #635A48",
"S. c #0D622E",
"D. c #9E8E72",
"F. c gray36",
"G. c #82745E",
"H. c #443826",
"J. c #0C8641",
"K. c #042813",
"L. c #0A3A1C",
"P. c #604E32",
"I. c #F0EFE8",
"U. c #A98C5F",
"Y. c #904815",
"T. c #067938",
"R. c #242A28",
"E. c #B9A480",
"W. c #16944C",
"Q. c #A7926E",
"!. c #5A5959",
"~. c #F9F9F7",
"^. c #8D724A",
"/. c #BAA685",
"(. c #EAE1D7",
"). c #219B55",
"_. c #36A66A",
"`. c #6E6D6C",
"'. c #096330",
"]. c #D5C19D",
"[. c #CAB49C",
"{. c #E7F1E9",
"}. c #E4E6DE",
"|. c #756142",
" X c #40AF79",
".X c #7B4219",
"XX c #6C5A3B",
"oX c #947A51",
"OX c #866E49",
"+X c #6A6868",
"@X c #463A28",
"#X c #4D4944",
"$X c #0A5D2C",
"%X c #634A24",
"&X c #482911",
"*X c #484A48",
"=X c #EEE8DF",
"-X c #874415",
";X c #69522F",
":X c #11A14C",
">X c #605E5C",
",X c #C4B095",
"<X c #DBEADF",
"1X c #388058",
"2X c #424042",
"3X c #954411",
"4X c #8A7556",
"5X c #E5EFE6",
"6X c #A05017",
"7X c #08873F",
"8X c #074D25",
"9X c #0E1F1C",
"0X c #766B55",
"qX c #DDCBAC",
"wX c #4FB380",
"eX c #AD9D7E",
"rX c #6C5224",
"tX c #0A7C3A",
"yX c #5E4620",
"uX c #023016",
"iX c #7A5A2A",
"pX c #4E4C4A",
"aX c #AB936A",
"sX c #68360E",
"dX c #D9CDBB",
"fX c #0C2A16",
"gX c #142C20",
"hX c #AB9168",
"jX c #E7F1EB",
"kX c #7C7A7A",
"lX c #E3DFD3",
"zX c #5E3214",
"xX c #0A2612",
"cX c #B5D7C7",
"vX c #103420",
"bX c #0A4A22",
"nX c #7A7A78",
"mX c #7E6846",
"MX c #B76020",
"NX c #DDD7CD",
"BX c #4E8768",
"VX c #A5D5BB",
"CX c #48AB78",
"ZX c #8BCBA9",
"AX c #E7CFA7",
"SX c #D5E3D7",
"DX c #187444",
"FX c #E5D1A7",
"GX c #A5561E",
"HX c #D1C3AD",
"JX c #065A28",
"KX c #045A2A",
"LX c #2EA366",
"PX c #FF8B32",
"IX c #E37626",
"UX c #5EB98D",
/* pixels */
"' '   ' ' ' '     '     ' ' ' ' ' ' ' '       w : q : q q : : q : : : q q : : q q : : : : : : : w m.",
"'   '           8 + # 8                   8 + ' : : : : : M w   M M M   w : : w   : M : q q : X.# m.",
"    '     ' ' w . @ o w ' ' ' ' ' ' ' ' w # & o +Xq q q q +X# & # +XM h O q q O pXw :   s s s # 5 X.",
"' ' '   8 J o o 7 D ; o o o o o o o o o o r < O !.!.!.!.% % 7 h o !.J 7 # M M . % M : b.0 7 7 1 y m.",
"        # < y k 3 & > > > > > > > @ @ @ > > & @ @ @ @ @ k #.3 & 3 6 * # X.t O q q : q e 1 o 1 d O nX",
"        8 f @ 5 @ & < < < < < < & & & & & & & > > @ 3 @ - m y 3 y k 4 + M 7 7 w w w M d 9 z z O h m.",
"o % 8   o k @ & & & < & < & & > > 3 - @ > @ m * > - x x , , , , , , k h d # 8 O 2 . 8 9 3 c @ c #.: ",
"7 o   ' 7 m @ < > & < & < & > 9 t 2 *Xf z 9 k 2X& 4 x x k , - - - , k & o # 8 t & s   t @ c c & #.: ",
"8   + !.# 2 @ j @ & & < > < 2 ] ] ] ] ] ] l.[ t * k 2X, , , - - - , k 7 8 o d # # + o 9 @ @ 5 @ 5 `.",
"    o O # 9 3 k @ & & > f 5 ~ E E E E E E L.vXY Z x 2X2X, , , , , , k o   O O 8   o t f c @ 6 y j `.",
"' ' 8   e j @ @ @ @ @ & m R.t.=.n n n n n :X$XW Y y - - - - - - - - , 9 % % % 7 O % !.f 5 @ 3 c 6 +X",
"' ' ' = z #.j @ @ @ @ f -.i.n u :.:.:.:.:.=.9.i.xXY - * * * * * * * - * & ; O Z k t 0 O @ O % o 6 +X",
"= = ' = F.j @ @ @ @ @ > -.uXu :.:.:.J.H :.u :.p KXS k 5 * * * * 5 * - D ; O O t f O O F.+ s 8 ' 7 kX",
"= '     s & @ @ 3 @ 2 [ t.u u :.:.=.E '.n u 7X .8XS k 5 * 5 5 5 5 5 - 9 0 ; t ; 0 O ; b.8 s s . !.a ",
"' ' ' f & > @ - #.j f ,.t.n H :.u =.K.$Xn H  .s.8XS - 5 * 4 4 4 4 5 * f O ; * y O O @ y + 8 % 3 9 C.",
"' ' ' r O > @ j 6 y 2 [ S i.xXJ.H H K.$Xn H  .s.L.S k 5 * L L L L L * f 0 ; c < 0 0 2 f . # + t O C.",
"8 7 !.= 8 - m & V S G } zX..3XxXS.tX .H :.u  .9.L.G k L * * * * L * * 2 ; ; ; 0 @ y ; s + t +   + a ",
"  7 !.= 8 - x V .XGXY.Y.MXIX..sXi.s.=.:.:.H J.s.L.S , 4 * 4 4 4 4 4 4 < t 9 t O @ y ; s + z +   !.a ",
"'   ' + o D j } z.PX..M...z...6XW 9.p u u u J.T.bXS x * * k 6 * 4 , x > t 9 > f O O h 2 . # . 1 7 a ",
"' ' ' 1 O & @ ,.p.GX..z.M.M.z.&XvXs./ :.u :.H u '.S k *X4 6 m * 4 k 4.@ ; t 3 D O 0 @ y +   + t O C.",
"  + s ' # 3 - & 9X&XY..XY.Y..XfXS. ./ :.:.:.u W.9.} -.,.m , k , , , k @ @ > < f D 2 9 O + d . # !.a ",
"8 z o = 8 4 x 6 & ~ } W 3.3.3.S.T.7Xu u u u =.).1X[ ,.S Y 3 4 4 * k , j k j > D j x j O 1 f !.  !.a ",
"' s 8 # + @ , , k y A gXBX1XDXJ.W.W.W.W.).LXwXZXSX}.NX#X~ Y Y Y #.* * c c > @ c z V -.O !.+ s + o a ",
"' ' ' 7 z > 4 , - @ G 8 ~.cXCX_.LX XwX XUXVX<X~.lX,Xy.b K W S W A 6 x , j j - y t -.V k %   + 9 O C.",
"= '   . !.> - - - @ G 7 ~.I.jXjX{.5X5XSX}.I.=XdXa.r.X l R R ^.6.+.B K K B ) Y & ^ 0X0X^ ' # s % o a ",
"= '   = 8 > 4 - - 3 A T E.HX(.I.=XlXdX[.[.,X/.o.i l l i i C U 2.*.| OX` %XyXK S } G.Z.G w s .   !.a ",
"' = ' ' # @ - , k @ ^ q.U.hXa././.a.hXU.y.P y.P l l l l P Q l 2.R ` ` %.0.0.XX@.D.h.5.^ : O @ . + a ",
"' = ' ' 8 2 y j c [ @XmXi N b i U X N N b 2.v.1.i l $ b @Xq.^.x.6.0.0.;XrXXXR O.j.FXA.^ : o t s !.a ",
"' ' =   t 0 J 1 f l.v.e.X l l N X X i X b ` T ) U l l X B.1.H.( K I I I I K OXhXa.].A.G 7 s 8 8 !.a ",
"' ' =   9 O % 1 2 l.P.P X X b 2.b X l l b %.c.B.$ l l l <.e.B.g.@X+.@XH.g.q.8.OXo.f.A.G 7 . #   + a ",
"' = ' ' '   J 0 s ~ c.P N X b g N X X l N ` _ Q X l i l X N P e.<.<.Q U %.iXI 1.Q.f.5.^ w s #   + a ",
"' = ' ' = ' J 0 >X~ c.;.g l X X l X b N X N b N $ i i i i $ X X X b { *.$.rXK 8.r.f.5.^ w s #   + a ",
"' ' ' ' !.+ J 0 % -.P.;.2.X X X l $ { g l X i C X i i l l l i l l x.` 6.$.iXK 8.r.V.A.V ' s s 8 !.a ",
"' ' = 8 D 9 !.1 z V B.Q b l X X X l { x.X i oX^.i l l l l l i l i { %.u.rXyX( XXo.k.-.1 .       + v ",
"' = ' ' e s 1 z + ~ c.C b X N X l l F F b <.P.( X X l l l l l l X b { ` %XI c.n.h.k.l.F.>X# + ' + v ",
"' = '   = ' c j r 0 -.N.;.b _ X l l l X X N | g.T i l l l l l X i P Q x.>.0XQ.E.AXA.^ + # 7 @ s . v ",
"' = ' ' ' ' ; f 1 s V q.P b x.X X l l l X N ! v.c.i X U C C U Q | T T T 1.Q.O.].G.[ , r # . o ' + v ",
"= ' ' = =   !.r 1 F.l.g.e.b X X l l i i i U F 2.x.X X H.K >.( ( q.p.H.N.y.V.].k.~ j ; 9 # '   . !.v ",
"= ' ' = '   J 1 r J x [ |.;.X X g x._ R R R R _ b r.X N.>.>.>.>.1.oX4Xr.V.FXG.V 6 r - 6 + ' !.@ t v ",
"= ' = ' '   d 1 r 0 8 [ g.Q 2.R ! ` *.%.| | ` oXi r.n.mXXXmX4X7.n.eXV.].].7.~ 4 O 2 > D s   >Xo o v ",
"' = ' ' ' d h 1 d t L #.T 8.8.*.u.u.u.u.u.6.| n.y.a.o.n.4XeXV./.O.j.h.7.Z.V 4 ; 3 3 9 1 #     w . v ",
"= ' ' ' = + t 1 r 0 3 J #.S A P.N.+.+.p.p.w.w.+.|.@.7.7.@.@.@.@.D.eX7.G ^ 3 f 2 > @ 2 0 >X    ' + v ",
"= ' ' t z = J 1 r r d r r b.0 l.B I A A B B A A B A B B ^ ^ B B B G V 2 9 D k j 9 9 f 0 >X  ' w + v ",
"= ' ' t t ' J r d d r d d r 1 1 O ; O O O O O O ; f < < < < < < < < < < < < k j 9 9 9 7 #   ' w + v ",
"' ' ' ' '   d 1 r 1 1 1 1 1 1 1 O O O O O O O O ; ; ; ; ; ; ; ; ; ; ; z z ; ; 7 t f 1 s       ' + &.",
"' ' ' ' '   . e e e e e e e e e !.!.!.!.!.!.!.!.!.!.!.!.!.!.!.!.!.!.!.!.!.!.+ s O t F.    8   w + &.",
"      % !.                      8 # # # # # # # # # # # # # # # # # # # # # o +   8 >X+ 8   # % o &.",
"'     h 2 '                   8 # # # # # # # # # # # # # # # # # # # # # s 3 f ' ' o t s ' + @ t &.",
"'     . +     ' ' ' ' ' ' '     # # 8 8 8 8 8 8 8 8 8 8 8 8 8 8 8 8 # 8 # s % .     # . 8   8 + % &.",
"'     ' '     '           '     # # 8 # # # # # # # # # # # # # # # # 8 # # 8         '       w + &."
};
