/* XPM */
static char *result[] = {
/* columns rows colors chars-per-pixel */
"50 50 256 2 ",
"   c #626060",
".  c #545252",
"X  c #5E5C5C",
"o  c #9F8154",
"O  c #A18354",
"+  c #4C4A4A",
"@  c #5C5A5A",
"#  c #605E5E",
"$  c #4A4848",
"%  c #5A5858",
"&  c gray32",
"*  c #4C4C4C",
"=  c gray29",
"-  c #444242",
";  c #484848",
":  c #626262",
">  c #585656",
",  c #666464",
"<  c #4E4E4E",
"1  c #424040",
"2  c gray26",
"3  c #484646",
"4  c #565654",
"5  c #686466",
"6  c #525050",
"7  c #444442",
"8  c #9B7C4F",
"9  c #565454",
"0  c #4E4D4C",
"q  c #545453",
"w  c #4C4C4A",
"e  c #464644",
"r  c #464444",
"t  c #444444",
"y  c #9F8152",
"u  c #585856",
"i  c #565656",
"p  c #9D7E52",
"a  c #646262",
"s  c gray8",
"d  c #817E7E",
"f  c #505050",
"g  c #5C5C5A",
"h  c #4A4948",
"j  c #403F3E",
"k  c #606060",
"l  c #A18154",
"z  c #504E4E",
"x  c #464646",
"c  c #A9997A",
"v  c #525250",
"b  c #484846",
"n  c #A48657",
"m  c #50504E",
"M  c #9A7A4D",
"N  c #3B3A3A",
"B  c #97784A",
"V  c #666264",
"C  c #9D7E50",
"Z  c #3E3D3C",
"A  c #585858",
"S  c #A08354",
"D  c #858383",
"F  c #2D2D2E",
"G  c #5A5959",
"H  c #615F5E",
"J  c #0A0702",
"K  c #343435",
"L  c #131413",
"P  c #947448",
"I  c #A7895C",
"U  c #5F5D5D",
"Y  c #424240",
"T  c gray25",
"R  c #020303",
"E  c #B9A075",
"W  c #A4875A",
"Q  c #846740",
"!  c #484A48",
"~  c #9D8152",
"^  c #DDC89F",
"/  c #0E1013",
"(  c #917346",
")  c #086D32",
"_  c #013617",
"`  c #AA8F62",
"'  c #A18356",
"]  c #271D0D",
"[  c #695027",
"{  c #060703",
"}  c #002611",
"|  c #0F9746",
" . c #109947",
".. c #DBC49D",
"X. c #14110B",
"o. c #886A3F",
"O. c #022D13",
"+. c #10A14B",
"@. c #5F5E5D",
"#. c #636161",
"$. c #B69C72",
"%. c #201A1C",
"&. c #6A6768",
"*. c #8C6F41",
"=. c #252020",
"-. c #211C12",
";. c #7B603B",
":. c #E0C9A2",
">. c #0F0D0B",
",. c #AA8B5C",
"<. c #554323",
"1. c #0B803B",
"2. c #8D7047",
"3. c #BFAC8D",
"4. c #0B893F",
"5. c #483923",
"6. c #836439",
"7. c #6B5432",
"8. c #90754E",
"9. c #E5E8DF",
"0. c #755930",
"q. c #149648",
"w. c #82817F",
"e. c #747373",
"r. c #170C05",
"t. c #109D4A",
"y. c #052D16",
"u. c #A3895E",
"i. c #C4B399",
"p. c #086830",
"a. c #2F292C",
"s. c #023A18",
"d. c #2E1F0C",
"f. c #1C1915",
"g. c #545250",
"h. c #06612C",
"j. c #332913",
"k. c #94764D",
"l. c #BBA279",
"z. c #393938",
"x. c #AC9268",
"c. c #E3CDA7",
"v. c #0A0B0C",
"b. c #878686",
"n. c #0A7135",
"m. c #1C1419",
"M. c #CDB792",
"N. c #0C080A",
"B. c #C0A982",
"V. c #2B2A26",
"C. c #B3A384",
"Z. c #B1986F",
"A. c #4F422D",
"S. c #D06B22",
"D. c #282326",
"F. c #121915",
"G. c #733712",
"H. c gray36",
"J. c #D87023",
"K. c #E9E6DE",
"L. c #898787",
"P. c #7B7977",
"I. c #E1EBE1",
"U. c #DD7424",
"Y. c #705732",
"T. c #9E8F72",
"R. c #132C1D",
"E. c #908267",
"W. c #58B384",
"Q. c #EA7D2C",
"!. c #E9EFE9",
"~. c #634A23",
"^. c #CECAB5",
"/. c #62270A",
"(. c #887961",
"). c #0E9045",
"_. c #89C7A5",
"`. c #109B48",
"'. c #0D8F42",
"]. c #5D4B30",
"[. c #B1571B",
"{. c #B9A285",
"}. c #323130",
"|. c #765F3A",
" X c #B19264",
".X c #2E3030",
"XX c #3E3220",
"oX c #683111",
"OX c #3E311C",
"+X c #A89778",
"@X c #20201D",
"#X c #1F9551",
"$X c #BFDFCD",
"%X c #6E6D6C",
"&X c #312A21",
"*X c #C5AD86",
"=X c #695A43",
"-X c #0B5327",
";X c #B96022",
":X c #014620",
">X c #ECD6AE",
",X c #B79D77",
"<X c #342D32",
"1X c #65BA8E",
"2X c #144820",
"3X c #3A301E",
"4X c #BB6220",
"5X c #D7BF95",
"6X c #4EB17E",
"7X c #997C50",
"8X c #2A2214",
"9X c #DF7628",
"0X c #00200A",
"qX c #4C3C20",
"wX c #BDA37A",
"eX c #D3BD97",
"rX c #3C3C1A",
"tX c #C1BDB7",
"yX c #C7B189",
"uX c #06381A",
"iX c #0C7636",
"pX c #9D5018",
"aX c #DD7830",
"sX c #C5D5C5",
"dX c #D3BB91",
"fX c #123C1C",
"gX c #367E5A",
"hX c #4A2408",
"jX c #503C1A",
"kX c #3EAD70",
"lX c #AB9B7C",
"zX c #C7D9C9",
"xX c #443624",
"cX c #7E725C",
"vX c #464036",
"bX c #3AA56E",
"nX c #423624",
"mX c gray19",
"MX c #786C58",
"NX c #DBCFC3",
"BX c #874214",
"VX c #A3D3BB",
"CX c #463E30",
"ZX c #4C4A48",
"AX c #36A166",
"SX c #958160",
"DX c #4A3A26",
"FX c #025A28",
"GX c #4C483E",
"HX c #065E2A",
"JX c #6A5838",
"KX c #005E28",
"LX c #ABD3BB",
"PX c #CB6620",
"IX c #EF832C",
"UX c #304E42",
/* pixels */
"#.#.  #.#.#.#.    #.    #.#.#.#.#.#.#.#.      a , 5 , 5 5 , , 5 , , , 5 5 , , 5 5 , , , , , , , a P.",
"#.  #.          H @ # H                   H @ #., , , , , V a   V V V   a , , a   , V , 5 5 , &.U e.",
"    #.    #.#.a X h > a #.#.#.#.#.#.#.#.a # + > &.5 5 5 5 &.# + H &.V 0 . 5 5 . 0 a ,   U U U # r 5 ",
"#.#.#.  H A > > 9 w & > > > > > > > > > > i * . G G G G % % 9 0 i G A 9 U V V U % V , @ q 9 9 4 b e.",
"        # * x 1 3 + = = = = = = = h h h = = + h ; ; ; h 1 N 3 + 3 T 7 H &.6 g.5 5 , 5 g 4 > 4 u g.P.",
"        H < h r h + * * * * * * + + + + + + + = = ; 3 ; - Z x 3 x Y t @ V 9 9 a a a V u m v v . < e.",
"> % H   > 1 h + + + * + + * * + + ; 7 h = ; j - h 2 Z Z 2 2 2 2 2 2 1 0 u # H . 0 X H m b ZXh ZXN , ",
"9 >   #.9 j ; * = + * + * * + + * b - b < m 7 ! f ! 7 Y 1 1 - - - 2 1 + > # H 6 + U   6 h ZXZX+ N , ",
"H   @ G # 0 h e h + + + + + + ; 3 = h & K m.%.%.%.m.m.m.2 t 1 - - 2 1 9 H > u # # @ > m h h r ; r %X",
"    > q # z 3 Y h + + + + + + e Y h 6 <XR.s._ s.s.s.uXs.@XN t 1 2 2 1 >   . . H   > 6 z h h 1 x e %X",
"#.#.H   g e ; h h h h h h h h h h h z.R.) +.+. . .`.+. .:XR.Z r - - 2 z % % % 9 . % G z r ; b ZXT &.",
"#.#.#.: v N x h h h h h h h h h h b >.p.+.iXiX).).4.p.4.t.y.a.h - 7 - 7 + & q e 1 f 9 q h . % > T &.",
": : #.: H.r ; h h h h h h h h h ; + s h.+.uXy.t.| 1.{ ) q.y.a.h 7 7 - w & q q f < q q H.@ U H   9 P.",
": #.k k U + ; ; 3 h ; h 3 ; ; ; 3 0 s HX+.uXy.4.1.n.{ n.`.y.a.! 7 r - z 9 & 6 & q q & @ H U U U G d ",
"#.#.#.< + = h - N e = x N 1 h h Z j s h.t.s.R v.J { R )  .y.a.b - r 7 < q & 7 3 q q h 3 @ H % 3 z w.",
"#.#.#.i q = h e T 3 h ; T r h h t s -X| -XR d.pX;XG.J 0X1.4.y.a.b 7 7 < q & ZX* q q 0 z X # @ 6 q w.",
"H 9 G : # - Z ; = 3 1 x = h j T + N.) :XhX;XaXQ.9XS.4X[.-.n.O.=.; - 7 < & & & q $ 3 & U @ 6 @   @ d ",
"k 9 G : # - Z ; = 3 1 x h ; j T = >.) } /.J.J.S.PXS.J.U.r.h._ =.! 7 t * f z f q h 3 q U @ v @   G d ",
"#.  #.@ > = h e T 3 h ; - x h h 7 N.p.p.j.[.IXQ.Q.U.U.BXfX1.y.=.$ Y Z = f z = < q q 0 < X # X 4 9 d ",
"#.#.#.4 . = = - N x = 3 1 r h ; T N.p.+.) rXG.G.oX/.oX2X'. .} D.! T z.h & f b w q 9 ZX3 @   @ 6 q w.",
"k @ U #.@.; 2 t 7 r t r t t t ; = { KX| | FX0X} O.} } 1.).).0X=.w 7 1 h h + * < * + < q @ u X @.G d ",
"# v > : # t Z 2 - - - - 2 - t K z.a.gXkX#X'.| q.q.q.q.#XAXbXUXF K N e e Y e = w r t w & i z G   G d ",
"#.U # # @ h 2 2 - t - - r T }.-.-.tX9.sX_.W.W.1XW.6X1X_.LXsX!.P.r.V.z.h ZXh h = = + = 0 @ @ U @ > d ",
"#.#.#.9 v = t 2 - - t 1 T F X.8.8.T.C.^.I.!.!.I.$XVX$XI.9.^.C.u.n ].v.2 x = - r 0 < 7 j G   @ m . w.",
": #.  X G = - - 7 2 1 }.X.3X8.o ' u.` ,X3.NX9.9.9.9.K.i.C.Z.W ' ' o ;.f.%.j x = 0 0 h ZX@ # U % > d ",
": #.k : # = t - - x %.3Xk.k.n o o 7Xo u.x.{.i.i.3.3.3.Z.' k.7Xo o ' o 8.Q s N m w w w & X # X   G d ",
"#.: #.#.@.h - 2 1 h / 3X Xn ' o o o p ' u.u.` ` u.u.u.W o p p o y o ' ,.k.J z.6 = T Y 6 U q h X @ d ",
"#.: #.#.# < x r h }.8X7.JXqXQ M o o ' p p p p p 8 M o o o o ~ ~ ~ ( Y.DXQ 5.=.t < 7 e 6 U u f U @ d ",
"#.#.: k 6 q A 4 . %.j.o.nXJ [ ( ' o o o 7X8 l ' p 8 ~ o S S o S C 6.jX{ JX7.>.K + 0 0 3 < # H H G d ",
"#.#.: k m q % i .X-.<.*.A.>.7.2.~ 7Xp o p p o o ~ ~ o o S S p B ( 6.jXN.;.Y.OX@XN < w 3 < U #   @ d ",
"#.: #.#.#.k A u / 8X;.Q 5.8XY.( p B C S o o S S o o o o y ~ M o.o.*.~.-.JX|.[ J F v w 6 X # #   @ d ",
"#.: #.#.: #.A G s ] ;.xXd.0.;.B o o o S o S C M 8 ~ p 7XC C B *.( M o.[ X.<.<.J .Xv w 6 @ # #   @ d ",
"#.#.#.#.G @ A u s ] Y.XXd.0.o.P o S S o o o M ( B p 8 B 7Xp 7XP B ( 6.~.X.DXqXJ .Xv = 6 @ # U H G d ",
"#.#.: H w z G G s -.Y.XX] 0.Q o.o S S 8 M 8 p ~ p ~ C M C o ~ C 8.Q 6.~.X.].<.J .Xq 0 q U       @ D ",
"#.: #.#.g U 9 9 s 8X*.A.j.6.2.2.~ o y B *.P p S S o y C o S o O 7X2.*.[ -.;.Y.N..Xf = 9 # # @ #.@ D ",
"#.: #.k : #.ZXh / XXS 8.2.M 7Xp o S o B B 8 o S S S S o o S ' ' ~ ~ 7XB 2.7X8.X.F e 1 q H 9 h U X D ",
"#.: #.#.#.#.& g./ DXI C n l S l S S S C C o S S S S S S S ' S S o ' o W W o p X.F < h 4 # X > #.@ D ",
": #.#.: : k G i = V.SX5XZ.` u.n ' S o o o o S S ' O l l o o o ~ ' ` ` Z.l.dXA.F h f 0 f @.#.  X G D ",
": #.#.: #.  A 9 @.T GXT.M.B.E $.Z.` I W I I ,.I W n n W W I ,.` x.E B.yX3.MXV.T & < r T @ #.G $ 6 D ",
": #.: #.#.k u 4 q   / CX>X:.^ dXyX*Xl.E E ,XE ,X$.$.$.E ,Xl.l.B.yXeXc.c.M.{ K z 0 < = w U   # > > D ",
"#.: #.#.#.u 0 4 i q D.vXE.(.E.^ c.:.:.............^ ^ ^ ^ ^ ....c.3.(.E.cXD.2 f ; x < 4 #     a X D ",
": #.#.#.: @ 6 4 i & m N v./ s T.lX+Xc c c +X+Xc c c c c +Xc c +XC.=XR v.L e < < = = < 9 @.    #.@ D ",
": #.#.6 v : A 4 i i i u G @ 9 m.F.s s s s s s s s s s s s s s s / F & < m w 1 e < < < 9 @.  #.a @ D ",
": #.#.f 6 #.A i u u i i u i i 4 q & & & & & & & & < 0 0 0 0 0 0 0 0 0 0 0 * 1 r f f < 9 @.  #.a @ D ",
"#.#.#.#.#.k u 4 i 4 4 4 4 4 4 4 q q q q q q q q . & & & & & & & & & v v v & & 9 f z 4 U       #.@ b.",
"#.#.#.: #.  X g g g g g g g g g G G G G G G G G G G G G G G G G G G G G G G @ U g.6 H.k   H   a @ b.",
"      G G                       # # # # # # # # # # # # # # # # # # # # # # > @   H # @ H   # % > b.",
"#.    0 0 #.                  H # # # # # # # # # # # # # # # # # # # # # U 3 z #.#.> 6 U #.@ h 6 L.",
"#.    X g     #.#.#.#.#.#.#.  k # H H H H H H H H H H H H H H H H H # H # # % X     # X H   H @ % b.",
"#.    #.#.    #.          #.  k # H # # # # # # # # # # # # # # # # # H # # H         #.      a @ b."
};
