/* XPM */
static char *result[] = {
/* columns rows colors chars-per-pixel */
"50 50 37 1 ",
"  c #010201",
". c #3E3F3E",
"X c #403F3F",
"o c #683421",
"O c #3E403F",
"+ c #3D4140",
"@ c #444444",
"# c #494747",
"$ c #474947",
"% c #494947",
"& c #47474A",
"* c #494749",
"= c #474949",
"- c #4C4C4C",
"; c #504F4F",
": c #4F504F",
"> c #50504F",
", c #4F4F50",
"< c #514F51",
"1 c #4F5151",
"2 c #535353",
"3 c #575957",
"4 c #595957",
"5 c #555558",
"6 c #585659",
"7 c #575959",
"8 c #5E5C5D",
"9 c #615E5D",
"0 c #5E605F",
"q c #5F5F60",
"w c #5E6060",
"e c #606060",
"r c #DF0209",
"t c #98461C",
"y c #FC6300",
"u c orange",
"i c #ECFAFF",
/* pixels */
"8888088898688888880884888822;8-988<9888888688q8889",
"898888849q87988888888889922899-898<56q88888888-988",
"8498884892998988087q438298>89--8-<92689887581*888<",
"88888888282286888787282828989--*9-<<388887188*8-98",
"88704883229896988883829>;-;---;*-;<93788858:8--888",
"0808082288282288888829>:------9---;928784252:-8-99",
"88839229:8222233833822-:-9-9-9-9-982388482528--*88",
"884828222-;2292238322-----88--*9--9223497722288898",
"8883229<-9;8:22392288:-88--$888----29394436229228<",
"828282<;<--222289392188-$8-8-8---->>>32477862222q<",
"8828<;-;9-2>282286821:-=88-888-8--8992336894877468",
"8;;-;-9--8825647882581:---=8-::--98->2222888488788",
"989*---8<2229248887281:88:8:8::-----8:829248878899",
"889@9#-8-<22647878872211888812::8----8:22678888q99",
"9@@8@8%982288964484                       88888898",
"8XX@@##--2222q26789                       5848889q",
".8.@8@88-8229229              uuu            88899",
"8..9@@8--;88<92    uuu   uuu   uuu   uu   uuu 8886",
"88.+8@@-;><2222    uuu   uuu   uuu   uuu   uu 8829",
"88O@9@-9;>8<28  uu   uuu   uuu   uuu   uuu     529",
".8@@@-=-;-2222  uuu   uuu   uuu   uuu   uuu    98q",
"88@@&*-->2288;  uuu   uuu   uuu   uuu   uuu    888",
"q88&9-822;<822  uuuuu   uuu   uuu   uuu   uuu  889",
"88&&--<<922228                                 8*8",
"98*9,<q<222222<                               8988",
"8898889592   222212 ttt                 ttt -9888#",
"9*8q9598  yyy 222-1 tt                   tt &***88",
"8,88<<58  yii 2222  tt   urrurrruuurrr   tt  $9#-8",
"8*88<556  iii 2522  tt   urrurrruuurrr   tt  #9--*",
"89-,8866  iyy 484  ttt uurrrurrurrurruuu ttt  *-89",
"88;,<526  yyy 484  ttt uuruuuuuruuurruuu ttt  -8-9",
"**88<<26  yyy 84q  ttt uuruuuuuruuurruuu ttt  -88<",
"q9--8<2   yyy   8  t                       t  q;9<",
"8-8*,<2   iii   8  t     *---822<22222     t  8988",
"8&8<-<2 iiiiii  8  t  o  -9--22>922229  o  t  9898",
"88*8882 yiiiiy  4  t  o  =-8:-:2822222  o  t  *--,",
"88**<<2 yyyyyy  8  t  o  --8818>22888<  o  t  *888",
"88*<8<2 yyyyyy     t  o  8-8182228222-  o  t   8,,",
"88*8,  iiyyyyiii tt   o  --8222221882-  o   tt *<8",
"88888  iiiiiiiii tt   o  8-1128882,888  o   tt 888",
"988# iiiiiiiiiii tt oo *&,,<<22q2818--&@ oo tt -*8",
"88@@ yyyyyyyyyyy tt    ,,,q,222258818-=@    tt *,*",
"88@@ yyyyyyyyyyy tt    qqqqqq2222811--%8    tt ,98",
"899@             tt q<<<6q<5<22q2122,9-$@q8 tt ,<q",
"889@$8:27888q999    2q<88<8822222812>>-8-@8    ,<8",
"9X8@8-:2888qqe89q6822228888222q252828:888-*9888898",
"888@=885488qw9qqqqq66228q<888889292828>--8--9<8288",
"999@8-18688988qq86q8q2828<28<989292858:;;8,998<998",
"8898*;<6888898888q88652888889299595529<<<<<<998q88",
"89&8q,899898888e8888888882888868898998889299889889"
};
