/* XPM */
static char *result[] = {
/* columns rows colors chars-per-pixel */
"50 50 256 2 ",
"   c #626060",
".  c gray29",
"X  c #5C5A5A",
"o  c #5E5C5C",
"O  c #5A5858",
"+  c #4C4A4A",
"@  c #4C4C4C",
"#  c #605E5E",
"$  c #4A4848",
"%  c #545252",
"&  c #444242",
"*  c #444442",
"=  c #585656",
"-  c #484848",
";  c #666464",
":  c gray32",
">  c gray26",
",  c #484646",
"<  c #464444",
"1  c #000002",
"2  c #000007",
"3  c #464645",
"4  c #626262",
"5  c gray33",
"6  c #686466",
"7  c #525250",
"8  c #4C4C4A",
"9  c #565454",
"0  c #605F5F",
"q  c #424040",
"w  c #000306",
"e  c #646262",
"r  c #5C5C5A",
"t  c #4E4C4C",
"y  c #403F3E",
"u  c #4F5050",
"i  c #504E4E",
"p  c #817E7E",
"a  c #585856",
"s  c #565656",
"d  c #565654",
"f  c #525050",
"g  c #4E4E4C",
"h  c #434444",
"j  c #4E4E4E",
"k  c #484846",
"l  c #19191B",
"z  c #BC4800",
"x  c #03060D",
"c  c #50504E",
"v  c #020608",
"b  c #4A4948",
"n  c #5F5D5D",
"m  c #666264",
"M  c #171617",
"N  c #EFFFFF",
"B  c #858383",
"V  c #3B3A3A",
"C  c #36260E",
"Z  c #100B09",
"A  c #3D3C3C",
"S  c #EEB184",
"D  c #150D08",
"F  c #0A0807",
"G  c #0E0E10",
"H  c #3C3D40",
"J  c #030305",
"K  c #2D2D2E",
"L  c #1A1E21",
"P  c #3E3E3C",
"I  c #3D280F",
"U  c #492714",
"Y  c gray20",
"T  c #4C4A48",
"R  c #2B2A2A",
"E  c #69391D",
"W  c #393837",
"Q  c #424240",
"!  c #151315",
"~  c #696768",
"^  c #070708",
"/  c #35231A",
"(  c #3E2315",
")  c #454342",
"_  c #636161",
"`  c gray7",
"'  c #79401E",
"]  c #24272B",
"[  c #9B6918",
"{  c #080C0F",
"}  c #22160D",
"|  c #C62517",
" . c #15100E",
".. c #2C2623",
"X. c #B0761A",
"o. c #27160C",
"O. c #572D14",
"+. c #DF7E3A",
"@. c #5A5A59",
"#. c #795314",
"$. c #686666",
"%. c #2D180C",
"&. c #231A0C",
"*. c #1B0C05",
"=. c #4C2811",
"-. c #3F281C",
";. c #F7FFFF",
":. c #6C4B12",
">. c #FFB924",
",. c #281C0C",
"<. c #331E0D",
"1. c #442E0E",
"2. c #885C15",
"3. c #4B4A4C",
"4. c #420D0C",
"5. c #1B110D",
"6. c #936517",
"7. c #545353",
"8. c #331E18",
"9. c #724D11",
"0. c #47494A",
"q. c #130F0C",
"w. c #1E150B",
"e. c #874822",
"r. c #16191B",
"t. c #503910",
"y. c #FFBC25",
"u. c #64351B",
"i. c #883500",
"p. c #535251",
"a. c #82817F",
"s. c #2A1D0D",
"d. c #747373",
"f. c #C07846",
"g. c #3D3427",
"h. c #FFB524",
"j. c #878686",
"k. c #5A5A5A",
"l. c #825713",
"z. c #B84801",
"x. c #BF841B",
"c. c #D58F1C",
"v. c #372C21",
"b. c #FBA922",
"n. c #934E25",
"m. c #E9AF83",
"M. c #E7701D",
"N. c #33393E",
"B. c #777B7D",
"V. c #303233",
"C. c #EAF5F9",
"Z. c #D85300",
"A. c #2D2019",
"S. c #4C2B17",
"D. c #C14B00",
"F. c #898787",
"G. c #242426",
"H. c #BF0D16",
"J. c #B97B1B",
"K. c #CB891C",
"L. c #503310",
"P. c #573C10",
"I. c #855D42",
"U. c #D75C18",
"Y. c #EF6302",
"T. c #24201E",
"R. c #FFC226",
"E. c #F38024",
"W. c #462817",
"Q. c #9BA8AF",
"!. c #775014",
"~. c #FEFFFF",
"^. c #EC8320",
"/. c #8D6016",
"(. c #4A4C4C",
"). c #42403E",
"_. c #DA961D",
"`. c #E56A13",
"'. c #835814",
"]. c #AA6A18",
"[. c #E69356",
"{. c #3D1E0B",
"}. c #7E4523",
"|. c #524C4A",
" X c #894824",
".X c #525657",
"XX c #E69B20",
"oX c #DF601C",
"OX c #F69B22",
"+X c #FFF8EF",
"@X c #DD9F1C",
"#X c #EA8B20",
"$X c #AC7318",
"%X c #D6E6EE",
"&X c #6E6D6C",
"*X c #D36F1D",
"=X c #D5911E",
"-X c #F3FEFF",
";X c #CDD7DC",
":X c #E2A31E",
">X c #EAFBFF",
",X c #923800",
"<X c #C14C16",
"1X c #9A6D4E",
"2X c #C86A1B",
"3X c #CE371A",
"4X c #583826",
"5X c #F6D0B3",
"6X c #C28E68",
"7X c #9C633C",
"8X c #FFC395",
"9X c #E3AB81",
"0X c #E76002",
"qX c #2A0C0C",
"wX c #F18F20",
"eX c #8B4A24",
"rX c #DB5400",
"tX c #AF1A12",
"yX c #E9C5A9",
"uX c #687076",
"iX c #CD8B1C",
"pX c #F1741C",
"aX c #C17E50",
"sX c #464A48",
"dX c #895430",
"fX c #FFEDD9",
"gX c #58585A",
"hX c #DB7C38",
"jX c #A9B7BF",
"kX c #A53C00",
"lX c #F79F5E",
"zX c #EFEDEB",
"xX c #E5AF89",
"cX c #E9833A",
"vX c #E9EDEF",
"bX c #CF381A",
"nX c #4C4C48",
"mX c #64422E",
"MX c #E18342",
"NX c #501800",
"BX c #CBD5D9",
"VX c #875432",
"CX c #955C36",
"ZX c #B93614",
"AX c #FFE5D1",
"SX c #F5B587",
"DX c #585E62",
"FX c #D7931E",
"GX c #6C0810",
"HX c #F59D5E",
"JX c #D10E18",
"KX c #5A1E00",
"LX c #8D9597",
"PX c #6E4C36",
"IX c #F9B381",
"UX c #D1481A",
/* pixels */
"_ _   _ _ _ _     _     _ _ _ _ _ _ _ _       e ; 6 ; 6 6 ; ; 6 ; ; ; 6 6 ; ; 6 6 ; ; ; ; ; ; ; e d.",
"_   _           0 X # 0                   0 X _ ; ; ; ; ; m e   m m m   e ; ; e   ; m ; 6 6 ; ~ # d.",
"    _     _ _ e o b = e _ _ _ _ _ _ _ _ e # + = ~ 6 6 6 6 ~ # + # ~ m t % 6 6 % t e ;   n n n # < $.",
"_ _ _   0 O = = 9 8 p.= = = = = = = = = = s @ % k.@.@.@.O O 9 t = @.O 9 n m m n O m ; k.5 9 9 d k d.",
"        # @ , q , + . . . . . . . b b b . . + b - - - b q V , + , y * # ~ p.% 6 6 ; 6 r d = d a % B.",
"        0 j b < b + @ @ @ @ @ @ + + + + + + + . . - , - & P , , , Q < X m 9 9 e e e m a c p.p.% g d.",
"= O 0   = ).b + + + @ + + @ @ + + - ) b + b ).) . & P P > > > > > > q t a # 0 % t o 0 c k T b T V ; ",
"9 =   _ 9 y - @ . + @ + @ @ + + @ k & b + b y & + < P P q > & & & > q + = # 0 f + n   f b T T + V ; ",
"0   X @.# t b 3 b + + + + + + - , . . + . + . . 3 q > > > > & & & > q 9 0 = a # # X = c b b < - < &X",
"    = 7.# i , Q b + + + + + + 3 Q . @ + + . + . Q y > > > > > > > > q =   % % 0   = f i b b q , 3 &X",
"_ _ 0   r 3 - b b b b b b b b b b - , b b b b b k ) & & & & & & & & > i O O O 9 % O @.i < - k T ).~ ",
"_ _ _ 4 p.V 3 b b b b b b b b b b < y , b b b - - < ) ) ) ) ) ) ) ) & ) + p.7.3 ).f 5 7.b % O = ).~ ",
"4 4 _ 4 o 3 - b b b b b b b b b b - , - b . b - , < ) ) ) ) ) ) < ) & 8 p.7.7.f j 7.7.o X n 0   9 p ",
"4 _     n + - - , b - b , - - - - - b - b b b - , < ) ) ) ) ) ) ) ) & i 5 : f p.7.7.p.k.0 n n n @.p ",
"_ _ _ j + . b & V 3 . , V q b b y P - b . . b - - < < < < < < < < < ) j 7.p.) , 7.7.b , X 0 O , i a.",
"_ _ _ s 7.3.b 3 )., b - ).& b b > q $ b b b b b T , < & ) ) ) ) ) ) & t 7.p.T @ 5 5 t i o # X f 7.a.",
"0 9 @.4 0 & P - . , Q 3 @ f W ` ! ` ` ` ! ` ` G x x { ` G ` ` ` G l T 9 5 f 7.5 $ , : n X p.X   X p ",
"  9 @.4 0 & P - . , q b Y R r.1 2 w ^ w 2 2 2 ,.'.l.C 2 F 2 2 w ^ { L L 3 % i 7.b , 7.n X p.X   @.p ",
"_   _ X = . b 3 )., . y ` 1 ,.!.!.C 2 s.!.9.q.&.X.h.X.5.w I #.&.2 w.9.9.g.j + j 7.7.t g o # o d 9 p ",
"_ _ _ d % . . & V 3 i K J 2 t.>.>.:.2 t.h.h.<.2 ,.b.b.1.2 l.>.c.,.2 6.R.P.h T 8 7.5 T , X   X f 7.a.",
"  X n _ # - > < * < b K '.J.1.C [ K.X.1.C /.K.6.C C /.iX[ C I X.iX[ ,.I T.h j g @ + g 7.X a o # @.p ",
"0 p.= 4 0 < A > & > , ] $X>.[ 1 v $XR.[ 2 F XX>.$X2 ^ =Xy.:.1 F FXy.[ 2 x Q 8 8 3 < 8 p.s i @.  @.p ",
"_ n 0 # X b > > & & , R $Xy.c.!.,.P.$XiX#.I 9.x.XX#.I :.J.x.9.&.9.X.>.x.s.h T . . . T @ X X n X = p ",
"_ _ _ 9 p.. & ) < < - R P.'.l.6.C 2 v 9.6.1.2 w.'.6.1.2 5.'./.s.2  .'.2.C H < 3 g c < P @.  X c % a.",
"4 _   o @.. 3 H H H 3 V.x x 2 2 Z 5.F 2 2 w Z ^ 2 2 ^ Z F 2 2 v  .q.2 2 ! sX- . 0.h > + o # n O = p ",
"4 _   4 0 $ q ..*.} A > P ) K %.}.E q.x v v 2 v v v 2 2 v v { F O.e.=.] 8 , . g A.*.A.$ @.# o   @.p ",
"_ 4 _ _ 0 q x ,XcXf...h ) < G.%.n.( w &.=.4.L.4.4.=.L.L.4.4.qXv } eXO.L ) Y b ] VX[.z.D H O k o X p ",
"_ 4 _ _ _ 3 w 7X+X%XV.3 , & x o.eXC 1 t.E.H.wXbXH.oXy.b.| JXGX2  .e.O.1 W Q @ T.Q.~.6XD V n i n @.p ",
"_ _ 4 0 % b 1 Q.5XaXY = @.V.5.u.eX( #.].3XH.#X| | U.UX#X| bX2X2.C }.' o.L b c L I.IXBXl V.e # 0 @.p ",
"_ _ 4 0 % b x 7XpXz.v.k.r r.%.n. XS.:XE.| ^.OX^.M.oXM.OX| U.>.h.L.' n.U x ) f ] i.Y.f. .Y e n   X p ",
"_ 4 _   4 i x ,XY.z v.: O L o.e.' ( x.*XZX@Xc.@X2X<X:XFXtX<X_.=X1.E eXW.{ ) T ] i.Y.z *.W   n   X p ",
"_ 4 _ e s G 1 CXHXf.q.{ < L %.E q.F w.o.A.g.g.v.v.v.v.v.A./ / } Z { U U { y ! 1 VXlXf.F 1 - e # X p ",
"_ _ _ ; b l B.BX;.C.DX1 q L %.u.v } ^ r.: u j u j (.(.3.0.u K 1 } v ( S.{ q 1 N.;X;.%XLXY A ; n @.p ",
"_ _ _ _ H T.5X;.C.+X1X1 Q l <.u.w -.D L = T Q i % t 8 8 . : K v W.^ ( S.{ ) 2 PXAXC.-XfXmXH ~ 0 X B ",
"4 _   ~ u *.U.hXhXcXi.1 A L %.E w / q.l i f j p.7.g @ @ 8 7 K J -.x ( S.x P 1 KXM.+.+.M.NXH ; 0 X B ",
"_ _   d . |.*XrXZ.0X7XN.G. .( S.v /  .! V f 5 p.p.g @ @ 8 7.K ^ -.F <.S.5.l N.I.`.Z.Z.`.I.H ) X o B ",
"4   ~ F M -XyX+.MX[.zX~.u O.E ^ w / Z ! T p.7.7.7.g 8 8 < g K 1 -.Z 1 S.' ..vX;.xX+.+.9X;.- 1 # n B ",
"_ ; 3.uXQ.N N N N N >X;..XO.E Z -./ R V 9 7.7.5 % g @ 8 P < y R 8.-.} W.' ..>XN N N N N -XjXB.. @.B ",
"_ $.V.6X8Xm.m.S S m.m.SX4XO.E G 8.5.(.O p.7.5 7.7.t k . . . 8 j M 8.5.W.' A.9XS m.S m.S m.8X9XR i B ",
"  $.V.i.D.z.z z z.z z D.{.u.E x G ! . p.p.7.5 7.7.. A < g @ y ).L { x S.}.o.z.z z z z z.z z kXA.gXB ",
"_ ; P M l l M l l r.! l v S.=.r.= 7.b & f 7.7.7.7.t 3 . @ @ b k 8 p.K <.u.F ! M M M r.l l l M K # B ",
"4 _ 0 # 0 O j 7.5 f , 7 W R R W 5 7.t $ f 7.5 7.% g @ @ @ @ @ @ 8 c P G...R . @ - - (.7 X n o 0 X B ",
"4 _ _ p.% e @.s = a a a @.k.k.@.7.p.7.7.7.7.5 7.7.g @ @ @ @ @ @ @ 8 g u c c Q 3 u u i 9 # _ _ e X B ",
"4 _ _ f f _ O s = s s s s s s d 7.5 5 7.5 5 5 5 7.j @ @ @ @ @ @ @ @ @ 8 8 8 q 3 u u u 5 n     4 X B ",
"_ _ _ _ _   a d s d d d d d d d 7.p.p.p.p.p.p.p.p.p.p.p.p.p.p.p.p.p.p.p.p.p.p.9 f i d n       _ X j.",
"_ _ _ _ _   o r r r r r r r r r @.@.@.@.@.@.@.@.@.@.@.@.@.@.@.@.@.@.@.@.@.@.X n % f o     0   e X j.",
"      O @.                      0 # # # # # # # # # # # # # # # # # # # # # = X   0 # X 0   # O = j.",
"_     t t _                   0 # # # # # # # # # # # # # # # # # # # # # n , i _ _ = f n _ X b f F.",
"_     o r     _ _ _ _ _ _ _     # # 0 0 0 0 0 0 0 0 0 0 0 0 0 0 0 0 # 0 # n O o     # o 0   0 X O j.",
"_     _ _     _           _     # # 0 # # # # # # # # # # # # # # # # 0 # # 0         _       e X j."
};
